

<svg version="1.1"  xmlns="http://www.w3.org/2000/svg" xmlns:xlink="http://www.w3.org/1999/xlink" x="0px" y="0px"
	 viewBox="0 0 80 80" style="enable-background:new 0 0 80 80;" xml:space="preserve">
<style type="text/css">
	.st0{fill:#FFFFFF;}
</style>
<g id="surface1">
	<path class="st0" d="M71,8c-10.5,0-20.6,4.2-28,11.6L26.9,35.7L17.6,35L7.4,47.4l8,3.4l0.4,0.4l-2.5,5.5l0.8,0.8
		c-1.6,1.9-2.4,4.4-2.9,6.6c-0.6,2.4-0.7,4.4-0.7,4.4l-0.1,1.1l1.1-0.1c0,0,2-0.1,4.4-0.7c2.1-0.5,4.6-1.4,6.6-2.9l0.8,0.8l5.5-2.5
		l0.4,0.4l3.4,8L45,62.4l-0.8-9.3L60.4,37C67.8,29.6,72,19.5,72,9V8H71z M69.9,10.1c-0.3,9.6-4.1,18.7-10.9,25.5L42.2,52.4l0,0
		C42.1,52.6,42,52.8,42,53c0,0.3,0.1,0.5,0.3,0.7l0.6,7.8l-9.6,7.8l-2.6-6l-1.6-1.6l-5.5,2.5l-8-8l2.5-5.5l-1.6-1.6l-6-2.6l7.8-9.6
		l7.8,0.6c0.2,0.2,0.4,0.3,0.7,0.3c0.2,0,0.4-0.1,0.6-0.2l0,0L44.4,21C51.2,14.2,60.3,10.4,69.9,10.1z M60,19c-0.6,0-1,0.4-1,1
		s0.4,1,1,1s1-0.4,1-1S60.6,19,60,19z M53,21c-3.3,0-6,2.7-6,6s2.7,6,6,6s6-2.7,6-6S56.3,21,53,21z M53,23c2.2,0,4,1.8,4,4
		s-1.8,4-4,4s-4-1.8-4-4S50.8,23,53,23z M46,33c-0.6,0-1,0.4-1,1s0.4,1,1,1s1-0.4,1-1S46.6,33,46,33z M24,39c-0.6,0-1,0.4-1,1
		s0.4,1,1,1s1-0.4,1-1S24.6,39,24,39z M21,42c-0.6,0-1,0.4-1,1s0.4,1,1,1s1-0.4,1-1S21.6,42,21,42z M18,45c-0.6,0-1,0.4-1,1
		s0.4,1,1,1s1-0.4,1-1S18.6,45,18,45z M40,55c-0.6,0-1,0.4-1,1s0.4,1,1,1s1-0.4,1-1S40.6,55,40,55z M37,58c-0.6,0-1,0.4-1,1
		s0.4,1,1,1s1-0.4,1-1S37.6,58,37,58z M15.5,58.9l1.5,1.5c-1.1,1.7-2,4.6-2,4.6s2.9-0.9,4.6-2l1.5,1.5c-1.5,1.2-3.7,1.9-5.6,2.4
		c-1.5,0.4-2.1,0.4-2.8,0.5c0.1-0.7,0.1-1.2,0.5-2.8C13.6,62.6,14.4,60.5,15.5,58.9z M34,61c-0.6,0-1,0.4-1,1s0.4,1,1,1s1-0.4,1-1
		S34.6,61,34,61z"/>
</g>
</svg>
