
<svg xmlns="http://www.w3.org/2000/svg" viewBox="0 0 100 100" fill="#102535"><path d="M 38.324219 13.001953 C 32.646991 13.001953 29 17.330872 29 21.712891 C 29 23.327613 29.430058 24.516406 29.910156 25.355469 C 29.765417 25.568243 29.640626 25.855993 29.626953 26.222656 A 0.50005 0.50005 0 0 0 29.626953 26.224609 C 29.622253 26.363785 29.636058 26.381857 29.648438 26.46875 C 29.660827 26.55564 29.676256 26.663102 29.697266 26.787109 C 29.739286 27.035125 29.798089 27.349686 29.859375 27.669922 C 29.981946 28.310393 30.098433 28.913654 30.195312 29.216797 C 30.323017 29.624413 30.674823 29.856415 31 30.101562 L 31 30.375 C 31 31.305422 31.347363 32.083051 31.669922 32.576172 C 32.153495 33.31572 33.043641 34.135092 34.158203 34.808594 C 35.272814 35.482095 36.610989 36 37.980469 36 C 39.367003 36 40.716085 35.482189 41.835938 34.808594 C 42.955788 34.134998 43.846888 33.31602 44.330078 32.576172 C 44.652637 32.083051 45 31.305422 45 30.375 L 45 30.101562 C 45.325177 29.856416 45.676983 29.624413 45.804688 29.216797 C 45.901868 28.91351 46.019868 28.310589 46.142578 27.669922 C 46.203928 27.349588 46.260742 27.035324 46.302734 26.787109 C 46.323734 26.663002 46.341176 26.555857 46.353516 26.46875 C 46.365856 26.38164 46.378617 26.364929 46.373047 26.222656 C 46.359065 25.84653 46.22896 25.550823 46.080078 25.337891 C 46.563289 24.493084 47 23.302497 47 21.710938 C 47 20.037278 46.653197 18.560087 46.03125 17.447266 C 45.455266 16.416684 44.587817 15.736317 43.570312 15.570312 C 42.977396 14.401824 41.434887 13.001953 38.324219 13.001953 z M 62.324219 13.001953 C 56.646991 13.001953 53 17.330872 53 21.712891 C 53 23.327613 53.430058 24.516406 53.910156 25.355469 C 53.765417 25.568243 53.640626 25.855993 53.626953 26.222656 A 0.50005 0.50005 0 0 0 53.626953 26.224609 C 53.622253 26.363785 53.636057 26.381857 53.648438 26.46875 C 53.660828 26.55564 53.676256 26.663102 53.697266 26.787109 C 53.739286 27.035125 53.798089 27.349686 53.859375 27.669922 C 53.981946 28.310393 54.098433 28.913654 54.195312 29.216797 C 54.323017 29.624413 54.674823 29.856415 55 30.101562 L 55 30.375 C 55 31.305422 55.347363 32.083051 55.669922 32.576172 C 56.153495 33.31572 57.043641 34.135092 58.158203 34.808594 C 59.272814 35.482095 60.610989 36 61.980469 36 C 63.367003 36 64.716086 35.482189 65.835938 34.808594 C 66.955788 34.134998 67.846888 33.31602 68.330078 32.576172 C 68.652637 32.083051 69 31.305422 69 30.375 L 69 30.101562 C 69.325177 29.856416 69.676984 29.624413 69.804688 29.216797 C 69.901867 28.91351 70.019868 28.310589 70.142578 27.669922 C 70.203938 27.349588 70.260742 27.035324 70.302734 26.787109 C 70.323734 26.663002 70.341176 26.555857 70.353516 26.46875 C 70.365856 26.38164 70.378617 26.364929 70.373047 26.222656 C 70.359065 25.84653 70.22896 25.550823 70.080078 25.337891 C 70.563289 24.493084 71 23.302497 71 21.710938 C 71 20.037278 70.653197 18.560087 70.03125 17.447266 C 69.455266 16.416684 68.587817 15.736317 67.570312 15.570312 C 66.977396 14.401824 65.434887 13.001953 62.324219 13.001953 z M 38.324219 14.001953 C 41.317801 14.001953 42.537109 15.410424 42.845703 16.169922 A 0.50005 0.50005 0 0 0 43.273438 16.480469 C 43.987116 16.530089 44.6449 17.017118 45.158203 17.935547 C 45.671506 18.853976 46 20.177596 46 21.710938 C 46 23.278486 45.534489 24.373667 45.078125 25.085938 C 44.922841 25.328295 44.912488 25.278839 44.78125 25.429688 C 44.70217 25.052523 44.68863 24.611805 44.550781 24.298828 A 0.50024099 0.50024099 0 1 0 43.634766 24.701172 C 43.85444 25.199942 44 25.763579 44 26.5 A 0.50005 0.50005 0 0 0 44.794922 26.904297 C 44.794922 26.904297 45.043844 26.708384 45.359375 26.357422 C 45.349065 26.427612 45.334487 26.514209 45.316406 26.621094 C 45.276246 26.858505 45.220426 27.165802 45.160156 27.480469 C 45.039617 28.109802 44.880339 28.828396 44.853516 28.912109 A 0.50005 0.50005 0 0 0 44.851562 28.916016 C 44.760742 29.207164 44.485274 29.476506 44.339844 29.525391 A 0.50005 0.50005 0 0 0 44 30 L 44 30.375 C 44 31.046578 43.725628 31.672417 43.492188 32.029297 C 43.141376 32.566449 42.327211 33.345518 41.320312 33.951172 C 40.313415 34.556826 39.112934 35 37.980469 35 C 36.868949 35 35.678219 34.558873 34.675781 33.953125 C 33.673343 33.347377 32.85924 32.566749 32.507812 32.029297 C 32.274372 31.672417 32 31.046578 32 30.375 L 32 30 A 0.50005 0.50005 0 0 0 31.660156 29.525391 C 31.514726 29.476511 31.239254 29.207164 31.148438 28.916016 A 0.50005 0.50005 0 0 0 31.146484 28.912109 C 31.119364 28.827249 30.962226 28.109747 30.841797 27.480469 C 30.781587 27.16583 30.723824 26.858547 30.683594 26.621094 C 30.667089 26.523698 30.654728 26.448554 30.644531 26.380859 C 30.963884 26.7255 31.216797 26.914063 31.216797 26.914062 A 0.50005 0.50005 0 0 0 32 26.501953 C 32 26.501953 32.136921 25.325487 32.521484 24.037109 C 32.855037 24.557185 33.199219 24.900391 33.199219 24.900391 A 0.50005 0.50005 0 0 0 33.929688 24.755859 C 33.929688 24.755859 34.486937 23.819378 35.375 22.740234 C 36.072085 21.893161 36.988512 21.065611 37.927734 20.466797 C 37.865844 21.284385 37.712535 22.281784 37.083984 23.224609 A 0.50005 0.50005 0 0 0 37.5 24.001953 C 37.822778 24.001953 38.223022 23.918463 38.689453 23.728516 A 0.50016049 0.50016049 0 0 0 38.310547 22.802734 C 38.300027 22.807034 38.297559 22.804394 38.287109 22.808594 C 38.860171 21.43248 39 20.05333 39 19.501953 A 0.50005 0.50005 0 0 0 38.308594 19.039062 C 36.819598 19.659202 35.541953 20.963159 34.603516 22.103516 C 33.895402 22.963991 33.656213 23.38909 33.447266 23.720703 C 33.226868 23.44382 33 23.051332 33 22.501953 A 0.50005 0.50005 0 0 0 32.058594 22.265625 C 31.446311 23.413655 31.218294 24.49703 31.109375 25.330078 C 31.017955 25.216191 31.019495 25.270458 30.919922 25.117188 C 30.466018 24.418516 30 23.325953 30 21.712891 C 30 17.882909 33.151446 14.001953 38.324219 14.001953 z M 62.324219 14.001953 C 65.317801 14.001953 66.537109 15.410424 66.845703 16.169922 A 0.50005 0.50005 0 0 0 67.273438 16.480469 C 67.987116 16.530089 68.6449 17.017118 69.158203 17.935547 C 69.671506 18.853976 70 20.177596 70 21.710938 C 70 23.278486 69.534489 24.373667 69.078125 25.085938 C 68.922841 25.328295 68.912488 25.278839 68.78125 25.429688 C 68.70217 25.052523 68.68863 24.611805 68.550781 24.298828 A 0.50024099 0.50024099 0 1 0 67.634766 24.701172 C 67.85444 25.199942 68 25.763579 68 26.5 A 0.50005 0.50005 0 0 0 68.794922 26.904297 C 68.794922 26.904297 69.043844 26.708384 69.359375 26.357422 C 69.349065 26.427612 69.334487 26.514209 69.316406 26.621094 C 69.276246 26.858505 69.220426 27.165802 69.160156 27.480469 C 69.039617 28.109802 68.880339 28.828396 68.853516 28.912109 A 0.50005 0.50005 0 0 0 68.851562 28.916016 C 68.760743 29.207164 68.485274 29.476506 68.339844 29.525391 A 0.50005 0.50005 0 0 0 68 30 L 68 30.375 C 68 31.046578 67.725628 31.672417 67.492188 32.029297 C 67.141377 32.566449 66.327212 33.345518 65.320312 33.951172 C 64.313414 34.556826 63.112934 35 61.980469 35 C 60.868949 35 59.678219 34.558873 58.675781 33.953125 C 57.673343 33.347377 56.85924 32.566749 56.507812 32.029297 C 56.274372 31.672417 56 31.046578 56 30.375 L 56 30 A 0.50005 0.50005 0 0 0 55.660156 29.525391 C 55.514726 29.476511 55.239254 29.207164 55.148438 28.916016 A 0.50005 0.50005 0 0 0 55.146484 28.912109 C 55.119364 28.827249 54.962226 28.109747 54.841797 27.480469 C 54.781587 27.16583 54.723824 26.858547 54.683594 26.621094 C 54.667097 26.523698 54.65473 26.448554 54.644531 26.380859 C 54.963884 26.7255 55.216797 26.914063 55.216797 26.914062 A 0.50005 0.50005 0 0 0 56 26.501953 C 56 26.501953 56.136921 25.325487 56.521484 24.037109 C 56.855037 24.557185 57.199219 24.900391 57.199219 24.900391 A 0.50005 0.50005 0 0 0 57.929688 24.755859 C 57.929688 24.755859 58.486937 23.819378 59.375 22.740234 C 60.072085 21.893161 60.988512 21.065611 61.927734 20.466797 C 61.865844 21.284385 61.712535 22.281784 61.083984 23.224609 A 0.50005 0.50005 0 0 0 61.5 24.001953 C 61.822778 24.001953 62.223022 23.918463 62.689453 23.728516 A 0.50016049 0.50016049 0 0 0 62.310547 22.802734 C 62.300027 22.807034 62.297559 22.804394 62.287109 22.808594 C 62.860171 21.43248 63 20.05333 63 19.501953 A 0.50005 0.50005 0 0 0 62.308594 19.039062 C 60.819598 19.659202 59.541953 20.963159 58.603516 22.103516 C 57.895402 22.963991 57.656213 23.38909 57.447266 23.720703 C 57.226868 23.44382 57 23.051332 57 22.501953 A 0.50005 0.50005 0 0 0 56.058594 22.265625 C 55.446311 23.413655 55.218294 24.49703 55.109375 25.330078 C 55.017955 25.216191 55.019495 25.270458 54.919922 25.117188 C 54.466018 24.418516 54 23.325953 54 21.712891 C 54 17.882909 57.151446 14.001953 62.324219 14.001953 z M 41.484375 19 A 0.50005 0.50005 0 0 0 41.017578 19.369141 C 40.790624 20.211309 40.462088 20.853415 40.095703 21.357422 A 0.50005 0.50005 0 1 0 40.904297 21.945312 C 41.081475 21.701584 41.185172 21.305735 41.339844 21.007812 C 41.60246 21.696306 41.956288 22.303319 42.359375 22.810547 A 0.50005 0.50005 0 1 0 43.140625 22.189453 C 42.494099 21.375892 42 20.684963 42 19.5 A 0.50005 0.50005 0 0 0 41.484375 19 z M 65.484375 19 A 0.50005 0.50005 0 0 0 65.017578 19.369141 C 64.790624 20.211309 64.462088 20.853415 64.095703 21.357422 A 0.50005 0.50005 0 1 0 64.904297 21.945312 C 65.081475 21.701584 65.185172 21.305735 65.339844 21.007812 C 65.60246 21.696306 65.956288 22.303319 66.359375 22.810547 A 0.50005 0.50005 0 1 0 67.140625 22.189453 C 66.494099 21.375892 66 20.684963 66 19.5 A 0.50005 0.50005 0 0 0 65.484375 19 z M 21.478516 31 C 13.249826 31 8 37.222222 8 43.5 C 8 45.503947 8.4547287 47.037369 9.0234375 48.179688 C 8.9914772 48.21545 8.9916347 48.215006 8.9570312 48.253906 C 8.8003575 48.430037 8.674008 48.562606 8.5429688 48.732422 A 1.0001 1.0001 0 0 0 8.5390625 48.740234 C 8.2667445 49.099427 8.0259834 49.636406 8.0019531 50.296875 C 7.9918891 50.569606 8.0157882 50.577282 8.0351562 50.712891 C 8.0545243 50.848499 8.0810322 51.013611 8.1132812 51.203125 C 8.1777793 51.582152 8.2655999 52.057582 8.359375 52.544922 C 8.5464521 53.517143 8.714281 54.403951 8.8789062 54.917969 C 8.8789062 54.917969 8.8808594 54.919922 8.8808594 54.919922 C 8.8811179 54.920728 8.8806008 54.923028 8.8808594 54.923828 C 9.0760003 55.53999 9.4806578 56.063135 10 56.472656 L 10 56.490234 C 10 58.018186 10.652783 59.309267 11.158203 60.078125 L 11.15625 60.078125 C 12.397216 61.967867 14.158689 63.287599 15.880859 64.253906 C 15.6832 65.352972 14.672849 65.804412 14.666016 65.806641 C 14.665994 65.806648 14.662109 65.808594 14.662109 65.808594 L 9.0976562 67.630859 A 1.0001 1.0001 0 0 0 9.046875 67.650391 C 6.6759227 68.575063 4.9761922 70.581682 4.2753906 72.982422 A 1.0001 1.0001 0 0 0 4.0488281 73.427734 C 3.7622303 74.73522 4.8082294 76 6.140625 76 L 35.859375 76 C 37.191771 76 38.237374 74.735284 37.951172 73.427734 A 1.0001 1.0001 0 0 0 37.724609 72.978516 C 37.023263 70.578976 35.323726 68.571938 32.953125 67.648438 A 1.0001 1.0001 0 0 0 32.902344 67.630859 L 27.34375 65.810547 C 27.33034 65.805747 26.32053 65.322895 26.121094 64.251953 C 27.842633 63.285757 29.604025 61.967462 30.84375 60.078125 L 30.841797 60.078125 C 31.347264 59.309267 32 58.018186 32 56.490234 L 32 56.472656 C 32.519608 56.062713 32.924292 55.538096 33.119141 54.921875 L 33.119141 54.917969 C 33.283919 54.404174 33.453369 53.518072 33.640625 52.544922 C 33.734405 52.057582 33.822221 51.580199 33.886719 51.201172 C 33.918969 51.011658 33.945474 50.848499 33.964844 50.712891 C 33.984214 50.577282 34.008117 50.569606 33.998047 50.296875 C 33.974497 49.637439 33.735653 49.100103 33.460938 48.738281 A 1.0001 1.0001 0 0 0 33.457031 48.732422 C 33.395178 48.65226 33.046117 48.187311 32.974609 48.091797 C 33.543105 46.936237 34 45.414875 34 43.5 C 34 41.085915 33.49483 38.962715 32.605469 37.380859 C 31.780794 35.914058 30.564133 34.972833 29.152344 34.746094 C 28.383361 33.107252 26.098462 31 21.478516 31 z M 79.478516 31 C 71.249826 31 66 37.222222 66 43.5 C 66 45.503947 66.454729 47.037369 67.023438 48.179688 C 66.991477 48.21545 66.991635 48.215006 66.957031 48.253906 C 66.800358 48.430037 66.674008 48.562606 66.542969 48.732422 A 1.0001 1.0001 0 0 0 66.539062 48.740234 C 66.266745 49.099427 66.025983 49.636406 66.001953 50.296875 C 65.991893 50.569606 66.015796 50.577282 66.035156 50.712891 C 66.054526 50.848499 66.081031 51.013611 66.113281 51.203125 C 66.177781 51.582152 66.2656 52.057582 66.359375 52.544922 C 66.546452 53.517143 66.714281 54.403951 66.878906 54.917969 C 66.878906 54.917969 66.880859 54.919922 66.880859 54.919922 C 66.881118 54.920728 66.880601 54.923028 66.880859 54.923828 C 67.075782 55.539354 67.480457 56.062899 68 56.472656 L 68 56.490234 C 68 58.018186 68.652783 59.309267 69.158203 60.078125 L 69.15625 60.078125 C 70.397216 61.967867 72.158689 63.287599 73.880859 64.253906 C 73.6832 65.352972 72.672849 65.804412 72.666016 65.806641 C 72.665994 65.806648 72.662109 65.808594 72.662109 65.808594 L 67.097656 67.630859 A 1.0001 1.0001 0 0 0 67.046875 67.650391 C 64.675883 68.57511 62.976192 70.581682 62.275391 72.982422 A 1.0001 1.0001 0 0 0 62.048828 73.427734 C 61.762213 74.735144 62.808229 76 64.140625 76 L 93.859375 76 C 95.191771 76 96.237374 74.735284 95.951172 73.427734 A 1.0001 1.0001 0 0 0 95.724609 72.978516 C 95.023263 70.578976 93.323726 68.571938 90.953125 67.648438 A 1.0001 1.0001 0 0 0 90.902344 67.630859 L 85.34375 65.810547 C 85.33034 65.805747 84.32053 65.322895 84.121094 64.251953 C 85.842633 63.285757 87.604025 61.967462 88.84375 60.078125 L 88.841797 60.078125 C 89.347264 59.309267 90 58.018186 90 56.490234 L 90 56.472656 C 90.519608 56.062713 90.924292 55.538096 91.119141 54.921875 L 91.119141 54.917969 C 91.283919 54.404174 91.453369 53.518072 91.640625 52.544922 C 91.734395 52.057582 91.822221 51.580199 91.886719 51.201172 C 91.918969 51.011658 91.945474 50.848499 91.964844 50.712891 C 91.984214 50.577282 92.008117 50.569606 91.998047 50.296875 C 91.974497 49.637439 91.735653 49.100103 91.460938 48.738281 A 1.0001 1.0001 0 0 0 91.457031 48.732422 C 91.395178 48.65226 91.046117 48.187311 90.974609 48.091797 C 91.543105 46.936237 92 45.414875 92 43.5 C 92 41.085915 91.49483 38.962715 90.605469 37.380859 C 89.780794 35.914058 88.564133 34.972833 87.152344 34.746094 C 86.383361 33.107252 84.098462 31 79.478516 31 z M 21.478516 32 C 25.95609 32 27.850005 34.101807 28.345703 35.314453 A 0.50005 0.50005 0 0 0 28.773438 35.623047 C 29.921301 35.702347 30.952533 36.481996 31.732422 37.869141 C 32.512311 39.256285 33 41.227085 33 43.5 C 33 47.09003 31.617761 48.659641 30.855469 49.376953 C 30.821069 49.004541 30.862169 48.951191 30.730469 48.386719 A 0.50005 0.50005 0 1 0 29.757812 48.613281 C 30.013694 49.710047 30 50.492188 30 50.492188 A 0.50005 0.50005 0 0 0 30.789062 50.908203 C 30.789062 50.908203 31.24883 50.572314 31.820312 49.882812 C 31.83631 49.903863 31.857298 49.933851 31.869141 49.949219 C 31.917749 50.013418 31.975442 50.125585 31.992188 50.322266 C 31.990797 50.354925 31.98992 50.390875 31.984375 50.429688 C 31.969265 50.535497 31.944483 50.686451 31.914062 50.865234 C 31.853213 51.222801 31.767381 51.68998 31.675781 52.166016 C 31.492581 53.118087 31.240768 54.23597 31.216797 54.310547 A 1.0001 1.0001 0 0 0 31.214844 54.316406 C 31.074541 54.762271 30.807613 55.009289 30.683594 55.050781 A 1.0001 1.0001 0 0 0 30 56 L 30 56.490234 C 30 57.394283 29.514455 58.459327 29.171875 58.980469 C 29.032524 59.19284 28.882109 59.399453 28.724609 59.599609 C 28.692026 59.641073 28.656323 59.679777 28.623047 59.720703 C 28.498623 59.873485 28.371749 60.022684 28.238281 60.167969 C 27.959559 60.4721 27.658759 60.75527 27.349609 61.025391 C 27.275333 61.090107 27.202588 61.156014 27.126953 61.21875 C 27.032497 61.297299 26.932218 61.364058 26.835938 61.439453 C 26.525552 61.681888 26.21127 61.917653 25.888672 62.126953 C 25.788719 62.191872 25.688363 62.246951 25.587891 62.308594 C 25.276363 62.499552 24.962651 62.680812 24.652344 62.839844 C 23.149491 63.606782 21.691756 64 20.970703 64 C 20.289674 64 18.866976 63.613692 17.388672 62.863281 C 17.044105 62.688123 16.695499 62.486051 16.349609 62.271484 C 16.274043 62.224454 16.198333 62.183662 16.123047 62.134766 C 15.795547 61.922729 15.477086 61.685651 15.162109 61.439453 C 15.065846 61.363969 14.96556 61.297394 14.871094 61.21875 C 14.796458 61.156798 14.723704 61.091227 14.650391 61.027344 C 14.337966 60.754249 14.03342 60.468022 13.751953 60.160156 C 13.413624 59.790938 13.101898 59.39737 12.828125 58.980469 C 12.485545 58.459327 12 57.394283 12 56.490234 L 12 56 A 1.0001 1.0001 0 0 0 11.318359 55.052734 C 11.19526 55.011474 10.925076 54.760383 10.785156 54.316406 A 1.0001 1.0001 0 0 0 10.783203 54.310547 C 10.759233 54.235967 10.507419 53.12004 10.324219 52.167969 C 10.232619 51.691933 10.146783 51.224753 10.085938 50.867188 C 10.055518 50.688403 10.030735 50.535497 10.015625 50.429688 C 10.010082 50.390875 10.009212 50.354591 10.007812 50.322266 C 10.024818 50.125646 10.08412 50.013628 10.132812 49.949219 C 10.130003 49.952945 10.167451 49.910862 10.169922 49.908203 C 10.341166 50.104439 10.504766 50.277075 10.646484 50.412109 C 10.799776 50.558172 10.931247 50.670911 11.023438 50.748047 C 11.069527 50.786617 11.106678 50.816714 11.126953 50.833984 C 11.132553 50.838684 11.111184 50.811969 11.115234 50.818359 A 0.50005 0.50005 0 0 0 12 50.5 C 12 50.5 12.249161 48.413819 13.355469 46.09375 C 13.441259 46.360394 13.453259 46.773698 13.552734 46.972656 C 13.832549 47.532285 14.146484 47.853516 14.146484 47.853516 A 0.50005 0.50005 0 0 0 14.935547 47.746094 C 14.935547 47.746094 15.674393 46.441415 16.902344 44.929688 C 17.917485 43.679949 19.302121 42.422997 20.78125 41.552734 C 20.573435 42.571081 20.153265 43.882638 19.109375 45.1875 A 0.50005 0.50005 0 0 0 19.5 46 C 20.733068 46 21.818845 45.659292 22.746094 45.132812 A 0.50005 0.50005 0 1 0 22.253906 44.263672 C 21.742428 44.554083 21.098806 44.613257 20.490234 44.734375 C 21.484363 43.092617 22 41.454317 22 40.5 A 0.50005 0.50005 0 0 0 21.308594 40.037109 C 19.192063 40.913965 17.408753 42.722759 16.126953 44.300781 C 15.120679 45.539604 14.760878 46.197541 14.507812 46.619141 C 14.477113 46.564981 14.479966 46.592744 14.447266 46.527344 C 14.227084 46.086975 14 45.416667 14 44.5 A 0.50005 0.50005 0 0 0 13.083984 44.222656 C 11.55522 46.515802 11.247182 48.384327 11.138672 49.451172 C 10.905119 49.210756 10.654124 48.954842 10.380859 48.544922 C 9.6906407 47.509535 9 45.9031 9 43.5 C 9 37.777778 13.751205 32 21.478516 32 z M 79.478516 32 C 83.95609 32 85.850005 34.101807 86.345703 35.314453 A 0.50005 0.50005 0 0 0 86.773438 35.623047 C 87.921301 35.702347 88.952533 36.481996 89.732422 37.869141 C 90.512311 39.256285 91 41.227085 91 43.5 C 91 47.09003 89.617761 48.659641 88.855469 49.376953 C 88.821069 49.004541 88.862169 48.951191 88.730469 48.386719 A 0.50005 0.50005 0 1 0 87.757812 48.613281 C 88.013694 49.710047 88 50.492187 88 50.492188 A 0.50005 0.50005 0 0 0 88.789062 50.908203 C 88.789062 50.908203 89.24883 50.572314 89.820312 49.882812 C 89.83631 49.903863 89.857298 49.933851 89.869141 49.949219 C 89.917749 50.013418 89.975442 50.125585 89.992188 50.322266 C 89.990797 50.354925 89.98992 50.390875 89.984375 50.429688 C 89.969265 50.535497 89.944483 50.686451 89.914062 50.865234 C 89.853212 51.222801 89.767381 51.68998 89.675781 52.166016 C 89.492581 53.118087 89.240768 54.23597 89.216797 54.310547 A 1.0001 1.0001 0 0 0 89.214844 54.316406 C 89.074541 54.762271 88.807613 55.009289 88.683594 55.050781 A 1.0001 1.0001 0 0 0 88 56 L 88 56.490234 C 88 57.394283 87.514455 58.459327 87.171875 58.980469 C 87.032524 59.19284 86.882109 59.399453 86.724609 59.599609 C 86.692026 59.641073 86.656323 59.679777 86.623047 59.720703 C 86.498623 59.873485 86.371749 60.022684 86.238281 60.167969 C 85.959559 60.4721 85.658759 60.75527 85.349609 61.025391 C 85.275333 61.090107 85.202588 61.156014 85.126953 61.21875 C 85.032497 61.297299 84.932218 61.364058 84.835938 61.439453 C 84.525552 61.681888 84.21127 61.917653 83.888672 62.126953 C 83.788719 62.191872 83.688363 62.246951 83.587891 62.308594 C 83.276363 62.499552 82.962651 62.680812 82.652344 62.839844 C 81.149491 63.606782 79.691756 64 78.970703 64 C 78.289674 64 76.866976 63.613692 75.388672 62.863281 C 75.044105 62.688123 74.695499 62.486051 74.349609 62.271484 C 74.274043 62.224454 74.198333 62.183662 74.123047 62.134766 C 73.795547 61.922729 73.477086 61.685651 73.162109 61.439453 C 73.065846 61.363969 72.96556 61.297394 72.871094 61.21875 C 72.796458 61.156798 72.723704 61.091227 72.650391 61.027344 C 72.337966 60.754249 72.03342 60.468022 71.751953 60.160156 C 71.413624 59.790938 71.101898 59.39737 70.828125 58.980469 C 70.485545 58.459327 70 57.394283 70 56.490234 L 70 56 A 1.0001 1.0001 0 0 0 69.316406 55.050781 C 69.192387 55.009291 68.925352 54.761259 68.785156 54.316406 A 1.0001 1.0001 0 0 0 68.783203 54.310547 C 68.759233 54.235967 68.507419 53.12004 68.324219 52.167969 C 68.232619 51.691933 68.146783 51.224753 68.085938 50.867188 C 68.055517 50.688403 68.030735 50.535497 68.015625 50.429688 C 68.010082 50.390875 68.009212 50.354591 68.007812 50.322266 C 68.024818 50.125646 68.08412 50.013628 68.132812 49.949219 C 68.130003 49.952945 68.167451 49.910862 68.169922 49.908203 C 68.341166 50.104439 68.504766 50.277075 68.646484 50.412109 C 68.799776 50.558172 68.931248 50.670911 69.023438 50.748047 C 69.069528 50.786617 69.106688 50.816714 69.126953 50.833984 C 69.132553 50.838684 69.111184 50.811969 69.115234 50.818359 A 0.50005 0.50005 0 0 0 70 50.5 C 70 50.5 70.249161 48.413819 71.355469 46.09375 C 71.441259 46.360394 71.453259 46.773698 71.552734 46.972656 C 71.832549 47.532285 72.146484 47.853516 72.146484 47.853516 A 0.50005 0.50005 0 0 0 72.935547 47.746094 C 72.935547 47.746094 73.674393 46.441415 74.902344 44.929688 C 75.917485 43.679949 77.302121 42.422997 78.78125 41.552734 C 78.573435 42.571081 78.153265 43.882638 77.109375 45.1875 A 0.50005 0.50005 0 0 0 77.5 46 C 78.733068 46 79.818845 45.659292 80.746094 45.132812 A 0.50005 0.50005 0 1 0 80.253906 44.263672 C 79.742428 44.554083 79.098806 44.613257 78.490234 44.734375 C 79.484363 43.092617 80 41.454317 80 40.5 A 0.50005 0.50005 0 0 0 79.308594 40.037109 C 77.192063 40.913965 75.408753 42.722759 74.126953 44.300781 C 73.120679 45.539604 72.760879 46.197541 72.507812 46.619141 C 72.477113 46.564981 72.479966 46.592744 72.447266 46.527344 C 72.227084 46.086975 72 45.416667 72 44.5 A 0.50005 0.50005 0 0 0 71.083984 44.222656 C 69.55522 46.515802 69.247182 48.384327 69.138672 49.451172 C 68.905119 49.210756 68.654124 48.954842 68.380859 48.544922 C 67.69064 47.509535 67 45.9031 67 43.5 C 67 37.777778 71.751205 32 79.478516 32 z M 26.484375 39 A 0.50005 0.50005 0 0 0 26.025391 39.341797 C 25.70222 40.312252 25.062764 41.606124 24.121094 42.699219 A 0.50005 0.50005 0 1 0 24.878906 43.351562 C 25.483719 42.649495 25.717207 41.946477 26.087891 41.220703 C 26.178641 42.027698 26.383053 42.840791 26.994141 43.773438 A 0.50005 0.50005 0 1 0 27.830078 43.226562 C 26.920076 41.837711 27 41.004637 27 39.5 A 0.50005 0.50005 0 0 0 26.484375 39 z M 84.484375 39 A 0.50005 0.50005 0 0 0 84.025391 39.341797 C 83.70222 40.312252 83.062764 41.606124 82.121094 42.699219 A 0.50005 0.50005 0 1 0 82.878906 43.351562 C 83.483719 42.649495 83.717207 41.946477 84.087891 41.220703 C 84.178641 42.027698 84.383053 42.840791 84.994141 43.773438 A 0.50005 0.50005 0 1 0 85.830078 43.226562 C 84.920076 41.837711 85 41.004637 85 39.5 A 0.50005 0.50005 0 0 0 84.484375 39 z M 50.478516 42 C 42.249826 42 37 48.222222 37 54.5 C 37 56.503947 37.454729 58.037369 38.023438 59.179688 C 37.991477 59.21545 37.991635 59.215006 37.957031 59.253906 C 37.800358 59.430037 37.674008 59.562606 37.542969 59.732422 A 1.0001 1.0001 0 0 0 37.539062 59.740234 C 37.266745 60.099427 37.025983 60.636406 37.001953 61.296875 C 36.991893 61.569606 37.015796 61.577282 37.035156 61.712891 C 37.054526 61.848499 37.081031 62.013611 37.113281 62.203125 C 37.177781 62.582152 37.2656 63.057582 37.359375 63.544922 C 37.546452 64.517143 37.714281 65.403951 37.878906 65.917969 C 37.878906 65.917969 37.880859 65.919922 37.880859 65.919922 C 37.881118 65.920728 37.880601 65.923028 37.880859 65.923828 C 38.075993 66.540019 38.480658 67.063135 39 67.472656 L 39 67.490234 C 39 69.018186 39.652783 70.309267 40.158203 71.078125 L 40.15625 71.078125 C 41.397216 72.967867 43.158689 74.287599 44.880859 75.253906 C 44.6832 76.352972 43.672849 76.804412 43.666016 76.806641 C 43.665994 76.806648 43.662109 76.808594 43.662109 76.808594 L 38.097656 78.630859 A 1.0001 1.0001 0 0 0 38.046875 78.650391 C 35.675883 79.57511 33.976192 81.581682 33.275391 83.982422 A 1.0001 1.0001 0 0 0 33.048828 84.427734 C 32.762213 85.735144 33.808229 87 35.140625 87 L 64.859375 87 C 66.191771 87 67.237374 85.735284 66.951172 84.427734 A 1.0001 1.0001 0 0 0 66.724609 83.978516 C 66.023263 81.578976 64.323726 79.571938 61.953125 78.648438 A 1.0001 1.0001 0 0 0 61.902344 78.630859 L 56.34375 76.810547 C 56.33034 76.805747 55.32053 76.322895 55.121094 75.251953 C 56.842633 74.285757 58.604025 72.967462 59.84375 71.078125 L 59.841797 71.078125 C 60.347264 70.309267 61 69.018186 61 67.490234 L 61 67.472656 C 61.519608 67.062713 61.924292 66.538096 62.119141 65.921875 L 62.119141 65.917969 C 62.283919 65.404174 62.453369 64.518072 62.640625 63.544922 C 62.734405 63.057582 62.822221 62.580199 62.886719 62.201172 C 62.918969 62.011658 62.945474 61.848499 62.964844 61.712891 C 62.984214 61.577282 63.008117 61.569606 62.998047 61.296875 C 62.974497 60.637439 62.735653 60.100103 62.460938 59.738281 A 1.0001 1.0001 0 0 0 62.457031 59.732422 C 62.395178 59.65226 62.046117 59.187311 61.974609 59.091797 C 62.543105 57.936237 63 56.414875 63 54.5 C 63 52.085915 62.49483 49.962715 61.605469 48.380859 C 60.780794 46.914058 59.564133 45.972833 58.152344 45.746094 C 57.383361 44.107252 55.098462 42 50.478516 42 z M 50.478516 43 C 54.95609 43 56.850005 45.101807 57.345703 46.314453 A 0.50005 0.50005 0 0 0 57.773438 46.623047 C 58.921301 46.702347 59.952533 47.481996 60.732422 48.869141 C 61.512311 50.256285 62 52.227085 62 54.5 C 62 58.09003 60.617761 59.659641 59.855469 60.376953 C 59.821069 60.004541 59.862169 59.951191 59.730469 59.386719 A 0.50005 0.50005 0 1 0 58.757812 59.613281 C 59.013694 60.710047 59 61.492188 59 61.492188 A 0.50005 0.50005 0 0 0 59.789062 61.908203 C 59.789062 61.908203 60.24883 61.572314 60.820312 60.882812 C 60.83631 60.903863 60.857298 60.933851 60.869141 60.949219 C 60.917749 61.013418 60.975442 61.125585 60.992188 61.322266 C 60.990797 61.354925 60.98992 61.390875 60.984375 61.429688 C 60.969265 61.535497 60.944483 61.686451 60.914062 61.865234 C 60.853212 62.222801 60.767381 62.68998 60.675781 63.166016 C 60.492581 64.118087 60.240768 65.23597 60.216797 65.310547 A 1.0001 1.0001 0 0 0 60.214844 65.316406 C 60.074541 65.762271 59.807613 66.009289 59.683594 66.050781 A 1.0001 1.0001 0 0 0 59 67 L 59 67.490234 C 59 68.394283 58.514455 69.459327 58.171875 69.980469 C 58.032524 70.19284 57.882109 70.399453 57.724609 70.599609 C 57.692026 70.641073 57.656323 70.679777 57.623047 70.720703 C 57.498623 70.873485 57.371749 71.022684 57.238281 71.167969 C 56.959559 71.4721 56.658759 71.75527 56.349609 72.025391 C 56.275333 72.090107 56.202588 72.156014 56.126953 72.21875 C 56.032497 72.297299 55.932218 72.364058 55.835938 72.439453 C 55.525552 72.681888 55.21127 72.917653 54.888672 73.126953 C 54.788719 73.191872 54.688363 73.246951 54.587891 73.308594 C 54.276363 73.499552 53.962651 73.680812 53.652344 73.839844 C 52.149491 74.606782 50.691756 75 49.970703 75 C 49.289674 75 47.866976 74.613692 46.388672 73.863281 C 46.044105 73.688123 45.695499 73.486051 45.349609 73.271484 C 45.274043 73.224454 45.198333 73.183662 45.123047 73.134766 C 44.795547 72.922729 44.477086 72.685651 44.162109 72.439453 C 44.065846 72.363969 43.96556 72.297394 43.871094 72.21875 C 43.796458 72.156798 43.723704 72.091227 43.650391 72.027344 C 43.337966 71.754249 43.03342 71.468022 42.751953 71.160156 C 42.629176 71.02617 42.513586 70.886452 42.398438 70.746094 C 42.357962 70.696756 42.314841 70.649725 42.275391 70.599609 C 42.117805 70.399418 41.967626 70.1929 41.828125 69.980469 C 41.485545 69.459327 41 68.394283 41 67.490234 L 41 67 A 1.0001 1.0001 0 0 0 40.318359 66.052734 C 40.19526 66.011474 39.925076 65.760383 39.785156 65.316406 A 1.0001 1.0001 0 0 0 39.783203 65.310547 C 39.759233 65.235967 39.507419 64.12004 39.324219 63.167969 C 39.232619 62.691933 39.146783 62.224753 39.085938 61.867188 C 39.055518 61.688403 39.030735 61.535497 39.015625 61.429688 C 39.010082 61.390875 39.009212 61.354591 39.007812 61.322266 C 39.024817 61.125646 39.084111 61.013628 39.132812 60.949219 C 39.130003 60.952945 39.167451 60.910862 39.169922 60.908203 C 39.341166 61.104439 39.504766 61.277075 39.646484 61.412109 C 39.799776 61.558172 39.931248 61.670911 40.023438 61.748047 C 40.069527 61.786617 40.106678 61.816714 40.126953 61.833984 C 40.132553 61.838684 40.111184 61.811969 40.115234 61.818359 A 0.50005 0.50005 0 0 0 41 61.5 C 41 61.5 41.249161 59.413819 42.355469 57.09375 C 42.441259 57.360394 42.453259 57.773698 42.552734 57.972656 C 42.832549 58.532285 43.146484 58.853516 43.146484 58.853516 A 0.50005 0.50005 0 0 0 43.935547 58.746094 C 43.935547 58.746094 44.674393 57.441415 45.902344 55.929688 C 46.917485 54.679949 48.302121 53.422997 49.78125 52.552734 C 49.573435 53.571081 49.153265 54.882638 48.109375 56.1875 A 0.50005 0.50005 0 0 0 48.5 57 C 49.733068 57 50.818845 56.659292 51.746094 56.132812 A 0.50005 0.50005 0 1 0 51.253906 55.263672 C 50.742428 55.554083 50.098806 55.613257 49.490234 55.734375 C 50.484363 54.092617 51 52.454317 51 51.5 A 0.50005 0.50005 0 0 0 50.308594 51.037109 C 48.192063 51.913965 46.408753 53.722759 45.126953 55.300781 C 44.120679 56.539604 43.760878 57.197541 43.507812 57.619141 C 43.477112 57.564981 43.479966 57.592744 43.447266 57.527344 C 43.227084 57.086975 43 56.416667 43 55.5 A 0.50005 0.50005 0 0 0 42.083984 55.222656 C 40.55522 57.515802 40.247182 59.384327 40.138672 60.451172 C 39.905119 60.210756 39.654124 59.954842 39.380859 59.544922 C 38.69064 58.509535 38 56.9031 38 54.5 C 38 48.777778 42.751205 43 50.478516 43 z M 28.941406 44.994141 A 0.50005 0.50005 0 0 0 28.539062 45.78125 C 28.750308 46.091077 28.932171 46.406609 29.085938 46.720703 A 0.50050682 0.50050682 0 1 0 29.984375 46.279297 C 29.81014 45.923391 29.603989 45.568923 29.365234 45.21875 A 0.50005 0.50005 0 0 0 28.941406 44.994141 z M 86.941406 44.994141 A 0.50005 0.50005 0 0 0 86.539062 45.78125 C 86.750309 46.091077 86.932171 46.406609 87.085938 46.720703 A 0.50050682 0.50050682 0 1 0 87.984375 46.279297 C 87.81014 45.923391 87.603989 45.568923 87.365234 45.21875 A 0.50005 0.50005 0 0 0 86.941406 44.994141 z M 55.484375 50 A 0.50005 0.50005 0 0 0 55.025391 50.341797 C 54.70222 51.312252 54.062764 52.606124 53.121094 53.699219 A 0.50005 0.50005 0 1 0 53.878906 54.351562 C 54.483719 53.649495 54.717207 52.946477 55.087891 52.220703 C 55.178641 53.027698 55.383053 53.84079 55.994141 54.773438 A 0.50005 0.50005 0 1 0 56.830078 54.226562 C 55.920076 52.837711 56 52.004637 56 50.5 A 0.50005 0.50005 0 0 0 55.484375 50 z M 57.941406 55.994141 A 0.50005 0.50005 0 0 0 57.539062 56.78125 C 57.750309 57.091077 57.932172 57.406609 58.085938 57.720703 A 0.50050682 0.50050682 0 1 0 58.984375 57.279297 C 58.81014 56.923391 58.603989 56.568923 58.365234 56.21875 A 0.50005 0.50005 0 0 0 57.941406 55.994141 z M 24.015625 64.246094 C 24.10176 65.590269 24.859045 66.476819 25.544922 67.015625 C 25.135687 67.280825 24.475951 67.593319 23.408203 67.794922 A 0.50005 0.50005 0 1 0 23.591797 68.777344 C 24.867671 68.536444 25.700838 68.133356 26.222656 67.769531 C 26.321698 67.700477 26.359861 67.648664 26.4375 67.583984 C 26.512236 67.618216 26.648438 67.685547 26.648438 67.685547 A 1.0001 1.0001 0 0 0 26.689453 67.701172 L 32.230469 69.515625 C 34.146933 70.263199 35.551056 71.891155 35.994141 73.855469 A 1.0001 1.0001 0 0 0 35.994141 73.859375 C 36.01046 73.945403 35.979571 74 35.859375 74 L 6.140625 74 C 6.0204289 74 5.9898823 73.943655 6.0058594 73.859375 A 1.0001 1.0001 0 0 0 6.0078125 73.855469 C 6.4505654 71.892634 7.8526891 70.266963 9.7675781 69.517578 L 15.310547 67.701172 A 1.0001 1.0001 0 0 0 15.337891 67.691406 C 15.337891 67.691411 15.473566 67.624749 15.546875 67.591797 C 15.73572 67.748461 15.964111 67.914449 16.287109 68.083984 C 17.19066 68.55825 18.662666 69 21 69 C 21.188333 69 21.354966 68.993101 21.515625 68.988281 A 0.50024408 0.50024408 0 0 0 21.484375 67.988281 C 21.315034 67.993414 21.161667 68 21 68 C 18.788334 68 17.486402 67.584715 16.751953 67.199219 C 16.631867 67.136188 16.548579 67.077486 16.457031 67.017578 C 17.14311 66.480109 17.897029 65.596849 17.984375 64.251953 C 19.148094 64.739671 20.199872 65 20.970703 65 C 21.762236 65 22.835338 64.738049 24.015625 64.246094 z M 82.015625 64.246094 C 82.10176 65.590269 82.859045 66.476819 83.544922 67.015625 C 83.135687 67.280825 82.475951 67.593319 81.408203 67.794922 A 0.50005 0.50005 0 1 0 81.591797 68.777344 C 82.867671 68.536444 83.700838 68.133356 84.222656 67.769531 C 84.321698 67.700477 84.359861 67.648664 84.4375 67.583984 C 84.512236 67.618216 84.648438 67.685547 84.648438 67.685547 A 1.0001 1.0001 0 0 0 84.689453 67.701172 L 90.230469 69.515625 C 92.146933 70.263199 93.551056 71.891155 93.994141 73.855469 A 1.0001 1.0001 0 0 0 93.994141 73.859375 C 94.01046 73.945403 93.979571 74 93.859375 74 L 64.140625 74 C 64.020429 74 63.989882 73.94366 64.005859 73.859375 A 1.0001 1.0001 0 0 0 64.007812 73.855469 C 64.450563 71.89264 65.852689 70.266963 67.767578 69.517578 L 73.310547 67.701172 A 1.0001 1.0001 0 0 0 73.337891 67.691406 C 73.337885 67.69141 73.47357 67.624749 73.546875 67.591797 C 73.73572 67.748461 73.964111 67.914449 74.287109 68.083984 C 75.19066 68.55825 76.662666 69 79 69 C 79.188333 69 79.354966 68.993101 79.515625 68.988281 A 0.50024408 0.50024408 0 0 0 79.484375 67.988281 C 79.315034 67.993414 79.161667 68 79 68 C 76.788334 68 75.486402 67.584715 74.751953 67.199219 C 74.631867 67.136188 74.548579 67.077486 74.457031 67.017578 C 75.143282 66.480167 75.897 65.597305 75.984375 64.251953 C 77.148094 64.739671 78.199872 65 78.970703 65 C 79.762236 65 80.835338 64.738049 82.015625 64.246094 z M 53.015625 75.246094 C 53.10176 76.590269 53.859045 77.476819 54.544922 78.015625 C 54.135687 78.280825 53.475951 78.593319 52.408203 78.794922 A 0.50005 0.50005 0 1 0 52.591797 79.777344 C 53.867671 79.536444 54.700838 79.133356 55.222656 78.769531 C 55.321698 78.700477 55.359861 78.648664 55.4375 78.583984 C 55.512236 78.618216 55.648438 78.685547 55.648438 78.685547 A 1.0001 1.0001 0 0 0 55.689453 78.701172 L 61.230469 80.515625 C 63.146933 81.263199 64.551056 82.891155 64.994141 84.855469 A 1.0001 1.0001 0 0 0 64.994141 84.859375 C 65.01046 84.945403 64.979571 85 64.859375 85 L 35.140625 85 C 35.020429 85 34.989882 84.94366 35.005859 84.859375 A 1.0001 1.0001 0 0 0 35.007812 84.855469 C 35.450562 82.89264 36.852689 81.266963 38.767578 80.517578 L 44.310547 78.701172 A 1.0001 1.0001 0 0 0 44.337891 78.691406 C 44.337885 78.69141 44.47357 78.624749 44.546875 78.591797 C 44.73572 78.748461 44.964111 78.914449 45.287109 79.083984 C 46.19066 79.55825 47.662666 80 50 80 C 50.188333 80 50.354966 79.993101 50.515625 79.988281 A 0.50024408 0.50024408 0 0 0 50.484375 78.988281 C 50.315034 78.993414 50.161667 79 50 79 C 47.788334 79 46.486402 78.584715 45.751953 78.199219 C 45.631867 78.136188 45.548579 78.077486 45.457031 78.017578 C 46.143282 77.480167 46.897 76.597305 46.984375 75.251953 C 48.148094 75.739671 49.199872 76 49.970703 76 C 50.762236 76 51.835338 75.738049 53.015625 75.246094 z" fill="#102535"/></svg>
