

<svg version="1.1"  xmlns="http://www.w3.org/2000/svg" xmlns:xlink="http://www.w3.org/1999/xlink" x="0px" y="0px"
	 viewBox="0 0 80 80" style="enable-background:new 0 0 80 80;" xml:space="preserve">
<style type="text/css">
	.st0{fill:#103144;}
</style>
<path class="st0" d="M32,8c-2.2,0-4,1.8-4,4v2.2c-0.8,0.3-1.5,1-1.8,1.8H8v52h66V16H55.8c-0.3-0.8-1-1.5-1.8-1.8V12c0-2.2-1.8-4-4-4
	H32z M32,10h1.3c0.3,0.6,1,1,1.7,1h12c0.7,0,1.4-0.4,1.7-1H50c1.1,0,2,0.9,2,2v2.2c-0.8,0.3-1.5,1-1.8,1.8H31.8
	c-0.3-0.8-1-1.5-1.8-1.8V12C30,10.9,30.9,10,32,10z M10,18h62v21c0,2.8-2.2,5-5,5H15c-2.8,0-5-2.2-5-5V18z M41,36c-1.1,0-2,0.9-2,2
	s0.9,2,2,2s2-0.9,2-2S42.1,36,41,36z M10,43.9c1.3,1.3,3,2.1,5,2.1h52c2,0,3.7-0.8,5-2.1V66H10V43.9z M13,46c-0.6,0-1,0.4-1,1
	s0.4,1,1,1s1-0.4,1-1S13.6,46,13,46z M69,46c-0.6,0-1,0.4-1,1s0.4,1,1,1s1-0.4,1-1S69.6,46,69,46z M13,50c-0.6,0-1,0.4-1,1
	s0.4,1,1,1s1-0.4,1-1S13.6,50,13,50z M69,50c-0.6,0-1,0.4-1,1s0.4,1,1,1s1-0.4,1-1S69.6,50,69,50z M13,54c-0.6,0-1,0.4-1,1
	s0.4,1,1,1s1-0.4,1-1S13.6,54,13,54z M69,54c-0.6,0-1,0.4-1,1s0.4,1,1,1s1-0.4,1-1S69.6,54,69,54z M13,58c-0.6,0-1,0.4-1,1
	s0.4,1,1,1s1-0.4,1-1S13.6,58,13,58z M69,58c-0.6,0-1,0.4-1,1s0.4,1,1,1s1-0.4,1-1S69.6,58,69,58z M13,62c-0.6,0-1,0.4-1,1
	s0.4,1,1,1s1-0.4,1-1S13.6,62,13,62z M17,62c-0.6,0-1,0.4-1,1s0.4,1,1,1s1-0.4,1-1S17.6,62,17,62z M21,62c-0.6,0-1,0.4-1,1
	s0.4,1,1,1s1-0.4,1-1S21.6,62,21,62z M25,62c-0.6,0-1,0.4-1,1s0.4,1,1,1s1-0.4,1-1S25.6,62,25,62z M29,62c-0.6,0-1,0.4-1,1
	s0.4,1,1,1s1-0.4,1-1S29.6,62,29,62z M33,62c-0.6,0-1,0.4-1,1s0.4,1,1,1s1-0.4,1-1S33.6,62,33,62z M37,62c-0.6,0-1,0.4-1,1
	s0.4,1,1,1s1-0.4,1-1S37.6,62,37,62z M41,62c-0.6,0-1,0.4-1,1s0.4,1,1,1s1-0.4,1-1S41.6,62,41,62z M45,62c-0.6,0-1,0.4-1,1
	s0.4,1,1,1s1-0.4,1-1S45.6,62,45,62z M49,62c-0.6,0-1,0.4-1,1s0.4,1,1,1s1-0.4,1-1S49.6,62,49,62z M53,62c-0.6,0-1,0.4-1,1
	s0.4,1,1,1s1-0.4,1-1S53.6,62,53,62z M57,62c-0.6,0-1,0.4-1,1s0.4,1,1,1s1-0.4,1-1S57.6,62,57,62z M61,62c-0.6,0-1,0.4-1,1
	s0.4,1,1,1s1-0.4,1-1S61.6,62,61,62z M65,62c-0.6,0-1,0.4-1,1s0.4,1,1,1s1-0.4,1-1S65.6,62,65,62z M69,62c-0.6,0-1,0.4-1,1
	s0.4,1,1,1s1-0.4,1-1S69.6,62,69,62z"/>
</svg>
