

<svg version="1.1"  xmlns="http://www.w3.org/2000/svg" xmlns:xlink="http://www.w3.org/1999/xlink" x="0px" y="0px"
	 viewBox="0 0 71 94.9" style="enable-background:new 0 0 71 94.9;" xml:space="preserve">
<style type="text/css">
	.st0{fill:#FFFFFF;}
</style>
<g>
	<path class="st0" d="M44.2,46.6L44.2,46.6L44.2,46.6L44.2,46.6L44.2,46.6 M46.1,45.5l1.8,1.1h-1.6h-0.4h-1.6L46.1,45.5z M47.5,44.7
		c0.1,0.6,0.2,1.1,0.3,1.6l-1.5-0.9L47.5,44.7C47.5,44.7,47.5,44.7,47.5,44.7 M44.6,44.3l0.2-0.1h2.5l0.1,0.1c0,0,0,0.1,0,0.1
		l-1.4,0.8L44.6,44.3C44.6,44.3,44.6,44.3,44.6,44.3L44.6,44.3z M45.8,43l-1.1,0.9c0.1-0.5,0.2-1.1,0.2-1.7L45.8,43z M46.9,39.4
		c0,0.1,0,0.1,0,0.2L46,40.4l-0.9-0.8c0-0.1,0-0.1,0-0.2H46.9z M46.9,39.2C46.9,39.2,46.9,39.2,46.9,39.2L46.9,39.2L46.9,39.2z
		 M46,38.4l0.7,0.8h-1.3L46,38.4z M45.3,37.6l0.6,0.7l-0.7,0.8C45.2,38.7,45.2,38.1,45.3,37.6 M46.7,35.5L46,36.3l-0.7-0.8
		L46.7,35.5C46.7,35.4,46.7,35.5,46.7,35.5 M45.4,37.4h1.3L46,38.2L45.4,37.4L45.4,37.4z M45.3,37.2c0-0.5,0-1,0.1-1.5l0.6,0.7
		L45.3,37.2z M46.6,37.2h-1.2l0.6-0.7L46.6,37.2z M46.7,37.1l-0.6-0.7l0.5-0.7C46.7,36.2,46.7,36.7,46.7,37.1 M45.4,33.6l0.5,0.7
		l-0.5,0.8C45.4,34.6,45.4,34.1,45.4,33.6 M45.4,29.6l0.5,0.8l-0.5,0.8C45.4,30.6,45.4,30.1,45.4,29.6 M46,30.2l-0.6-0.8h1.1
		L46,30.2z M46.6,31l-0.5-0.7l0.5-0.7C46.6,30.1,46.6,30.6,46.6,31 M46,32.2l-0.6-0.8h1.1v0L46,32.2z M46.6,33.1l-0.5-0.7l0.5-0.7
		C46.6,32.1,46.6,32.6,46.6,33.1 M46,32.5l0.5,0.8h-1.1L46,32.5z M46.6,31.3L46.6,31.3l-1.1,0l0.6-0.8L46.6,31.3z M45.4,31.6
		l0.5,0.8l-0.5,0.8C45.4,32.6,45.4,32.1,45.4,31.6 M46.6,35.3h-1.2l0.6-0.9L46.6,35.3z M45.4,33.4h1.1L46,34.2L45.4,33.4z
		 M46.9,39.2l-0.8-0.9l0.7-0.8C46.8,38.1,46.8,38.7,46.9,39.2 M46.7,35.1l-0.6-0.8l0.5-0.7C46.6,34.1,46.6,34.6,46.7,35.1
		 M45.4,28.9h1.2c0,0.1,0,0.2,0,0.4h-1.2C45.4,29.2,45.4,29,45.4,28.9 M47,41.4l-0.9-0.8l0.7-0.7C46.9,40.4,47,40.9,47,41.4
		 M46.2,43l0.9-0.8c0.1,0.6,0.2,1.2,0.2,1.7L46.2,43z M47.1,44h-2.2l1.1-0.9L47.1,44z M47.1,41.8c0,0.1,0,0.1,0,0.2L46,42.8
		l-1.1-0.9c0-0.1,0-0.1,0-0.2H47.1z M46,40.7l1,1h-2L46,40.7z M45.1,39.8l0.8,0.7L45,41.4C45,40.9,45.1,40.4,45.1,39.8 M44.6,44.6
		l1.2,0.8l-1.6,1c0.1-0.4,0.2-1,0.3-1.6C44.6,44.7,44.6,44.7,44.6,44.6 M49.9,48.8v-0.2h-1v-0.4v0v0l0,0c0-0.1-0.5-0.9-1-3.6
		c-0.4-2.6-0.9-7.4-0.8-15.8h0v-0.3l0.5-0.5l0,0v-0.4h-0.8v-3.3h-0.6v-4.1h-0.3v4.1h-0.5v3.3h-0.8V28l0,0l0.5,0.5v0.3h0
		c0.1,8.4-0.4,13.2-0.8,15.8c-0.5,2.7-1,3.6-1,3.6l0,0v0v0.4h-1v0.2h0.9l-0.5,1.4h-0.4v0.3h0.1v2.2h7.6v-2.2h0.1v-0.3h-0.4L49,48.8
		H49.9z"/>
	<path class="st0" d="M39.8,39.1h-0.4v-2.4c0-0.2,0.1-0.3,0.2-0.3s0.2,0.2,0.2,0.3V39.1z M39.1,39.1h-0.7v-2.4
		c0-0.2,0.2-0.3,0.3-0.3c0.2,0,0.3,0.2,0.3,0.3V39.1z M39,48.8h-0.2v-0.6c0-0.1,0.1-0.1,0.1-0.1c0.1,0,0.1,0.1,0.1,0.1V48.8z
		 M38.5,41.7c0-0.1,0.1-0.2,0.2-0.2c0.1,0,0.2,0.1,0.2,0.2c0,0.1-0.1,0.2-0.2,0.2C38.6,41.9,38.5,41.8,38.5,41.7 M38.7,44
		c0.1,0,0.2,0.1,0.2,0.2c0,0.1-0.1,0.2-0.2,0.2c-0.1,0-0.2-0.1-0.2-0.2C38.5,44.1,38.6,44,38.7,44 M38.5,46.8c0-0.1,0.1-0.2,0.2-0.2
		c0.1,0,0.2,0.1,0.2,0.2c0,0.1-0.1,0.2-0.2,0.2C38.6,47,38.5,46.9,38.5,46.8 M38.7,48.8h-0.2v-0.6c0-0.1,0.1-0.1,0.1-0.1
		c0.1,0,0.1,0.1,0.1,0.1V48.8z M38.1,39.1h-0.4v-2.4c0-0.2,0.1-0.3,0.2-0.3s0.2,0.2,0.2,0.3V39.1z M34.2,36.1h-0.5V33
		c0-0.2,0.1-0.4,0.3-0.4c0.1,0,0.3,0.2,0.3,0.4V36.1z M33.3,36.1h-0.9V33c0-0.2,0.2-0.4,0.4-0.4s0.4,0.2,0.4,0.4V36.1z M33.2,48.2
		h-0.3v-0.8c0-0.1,0.1-0.2,0.2-0.2s0.2,0.1,0.2,0.2V48.2z M32.6,39.3c0-0.2,0.1-0.3,0.3-0.3c0.2,0,0.3,0.1,0.3,0.3
		c0,0.2-0.1,0.3-0.3,0.3C32.7,39.6,32.6,39.5,32.6,39.3 M32.8,42.2c0.2,0,0.3,0.1,0.3,0.3c0,0.2-0.1,0.3-0.3,0.3
		c-0.2,0-0.3-0.1-0.3-0.3C32.6,42.4,32.7,42.2,32.8,42.2 M32.6,45.7c0-0.2,0.1-0.3,0.3-0.3c0.2,0,0.3,0.1,0.3,0.3
		c0,0.2-0.1,0.3-0.3,0.3C32.7,46,32.6,45.9,32.6,45.7 M32.8,48.2h-0.3v-0.8c0-0.1,0.1-0.2,0.2-0.2c0.1,0,0.2,0.1,0.2,0.2V48.2z
		 M32,36.1h-0.5V33c0-0.2,0.1-0.4,0.3-0.4S32,32.8,32,33V36.1z M31.7,48.6h-0.4v-1c0-0.1,0.1-0.2,0.2-0.2c0.1,0,0.2,0.1,0.2,0.2
		V48.6z M31.1,48.6h-0.4v-1c0-0.1,0.1-0.2,0.2-0.2c0.1,0,0.2,0.1,0.2,0.2V48.6z M30.6,48.6h-0.4v-1c0-0.1,0.1-0.2,0.2-0.2
		c0.1,0,0.2,0.1,0.2,0.2V48.6z M30,48.6h-0.4v-1c0-0.1,0.1-0.2,0.2-0.2c0.1,0,0.2,0.1,0.2,0.2V48.6z M30.2,37.2
		c0-0.2,0.2-0.4,0.4-0.4c0.2,0,0.4,0.2,0.4,0.4v5.4h-0.8V37.2z M29.5,42.6h-0.8v-5.4c0-0.2,0.2-0.4,0.4-0.4s0.4,0.2,0.4,0.4V42.6z
		 M28.7,48.6h-0.4v-1c0-0.1,0.1-0.2,0.2-0.2c0.1,0,0.2,0.1,0.2,0.2V48.6z M27,52.6c0.1-1.1,0.3-1.9,0.7-1.9c0.3,0,0.6,0.8,0.7,1.9
		H27z M26.6,47.6c0-0.1,0.1-0.2,0.2-0.2c0.1,0,0.2,0.1,0.2,0.2v1h-0.4V47.6z M25.8,37.2c0-0.2,0.2-0.4,0.4-0.4
		c0.2,0,0.4,0.2,0.4,0.4v5.4h-0.8V37.2z M25.8,48.7h-0.4v-1c0-0.1,0.1-0.2,0.2-0.2c0.1,0,0.2,0.1,0.2,0.2V48.7z M25.2,48.7h-0.4v-1
		c0-0.1,0.1-0.2,0.2-0.2c0.1,0,0.2,0.1,0.2,0.2V48.7z M24.6,48.7h-0.4v-1c0-0.1,0.1-0.2,0.2-0.2c0.1,0,0.2,0.1,0.2,0.2V48.7z
		 M24.4,37.2c0-0.2,0.2-0.4,0.4-0.4c0.2,0,0.4,0.2,0.4,0.4v5.4h-0.8V37.2z M28,47.1v1.5h-0.6v-1.5c0-0.2,0.1-0.3,0.3-0.3
		C27.9,46.8,28,46.9,28,47.1 M27.3,37.2c0-0.2,0.2-0.4,0.4-0.4c0.2,0,0.4,0.2,0.4,0.4v5.4h-0.8V37.2z M24.1,48.7h-0.4v-1
		c0-0.1,0.1-0.2,0.2-0.2c0.1,0,0.2,0.1,0.2,0.2V48.7z M23.6,33c0-0.2,0.1-0.4,0.3-0.4c0.1,0,0.3,0.2,0.3,0.4v3.1h-0.5V33z
		 M23.2,36.1h-0.9V33c0-0.2,0.2-0.4,0.4-0.4c0.2,0,0.4,0.2,0.4,0.4V36.1z M23.1,48.2h-0.3v-0.8c0-0.1,0.1-0.2,0.2-0.2
		c0.1,0,0.2,0.1,0.2,0.2V48.2z M22.4,39.3c0-0.2,0.1-0.3,0.3-0.3c0.2,0,0.3,0.1,0.3,0.3c0,0.2-0.1,0.3-0.3,0.3
		C22.6,39.6,22.4,39.5,22.4,39.3 M22.7,42.2c0.2,0,0.3,0.1,0.3,0.3c0,0.2-0.1,0.3-0.3,0.3c-0.2,0-0.3-0.1-0.3-0.3
		C22.4,42.4,22.6,42.2,22.7,42.2 M22.4,45.7c0-0.2,0.1-0.3,0.3-0.3c0.2,0,0.3,0.1,0.3,0.3c0,0.2-0.1,0.3-0.3,0.3
		C22.6,46,22.4,45.9,22.4,45.7 M22.7,48.2h-0.3v-0.8c0-0.1,0.1-0.2,0.2-0.2c0.1,0,0.2,0.1,0.2,0.2V48.2z M21.9,36.1h-0.5V33
		c0-0.2,0.1-0.4,0.3-0.4c0.1,0,0.3,0.2,0.3,0.4V36.1z M40.3,40.2v-0.4H40v-3.2l0.1-0.1l0.1-0.9l0-0.2l0.1-0.4L40.1,35l0-0.1h-0.1
		l-0.1-0.1l-0.1,0.1l-0.2-0.1l-0.1,0.1h-0.2l-0.1-0.1l-0.1,0.1L39,33.6c0.2,0,0.3-0.1,0.3-0.2c0-0.1-0.1-0.2-0.3-0.2l-0.1-2.5h0
		v-0.5h0.3v-0.1h-0.3v-0.3h-0.1v0.3h-0.3v0.1h0.3v0.5h0l-0.1,2.5c-0.2,0-0.3,0.1-0.3,0.2c0,0.1,0.1,0.2,0.3,0.2l-0.1,1.1l-0.1-0.1
		l-0.1,0.1h-0.2L38,34.6l-0.2,0.1l-0.1-0.1l-0.1,0.1h-0.1l0,0.1l-0.2-0.1l0.1,0.4l0,0.2l0.1,0.9l0.1,0.1v3.2h-0.3v0.4v0l-2.5-2.1
		v-0.6V37h-0.3v-4l0.1-0.1l0.1-1.1l0-0.3l0.1-0.6l-0.2,0.1l-0.1-0.2h-0.2l-0.1-0.1L34,30.7l-0.2-0.2l-0.1,0.1h-0.2l-0.1-0.1l-0.1,0
		l-0.1-1.1l0.1-0.1l-0.2-0.3H33v-0.6h0.1l-0.2-3.3h0v-0.4h0.3v-0.1h-0.3v-0.3h-0.1v0.3h-0.3v0.1h0.3v0.4h0l-0.2,3.3h0.1v0.6h-0.1
		l-0.2,0.3l0.1,0.1l-0.1,1.1l-0.1,0l-0.1,0.1H32l-0.1-0.1l-0.2,0.2l-0.2-0.1l-0.1,0.1h-0.2l-0.1,0.2l-0.2-0.1l0.1,0.6l0,0.3l0.1,1.1
		l0.1,0.1v1.6h-0.6L29.7,34l0-0.2c0.2,0,0.3-0.1,0.3-0.2c0-0.1-0.1-0.1-0.3-0.2l-0.1-2.1h0v-0.5h0.3v-0.1h-0.3v-0.3h-0.1v0.3h-0.3
		v0.1h0.3v0.5h0l-0.1,2.1c-0.1,0-0.2,0.1-0.3,0.1l-0.7-0.4v-0.4h-0.6c0.1-0.1,0.3-0.3,0.1-0.4c0,0,0.3-0.5,0-0.4l-0.1,0v-0.5
		c0,0,0.2,0.1,0.1-0.8c0,0,0.3-0.1,0.3-0.7l-0.3,0.4c0,0,0-0.1-0.1-0.1c-0.2,0-0.1,0.1-0.1,0.1l-0.3-0.4c0,0.6,0.3,0.7,0.3,0.7
		c-0.1,0.9,0.1,0.8,0.1,0.8v0.5l-0.1,0c-0.3,0,0,0.4,0,0.4c-0.2,0.1,0,0.4,0.1,0.4H27v0.4l-2.3,1.4h-0.4V33l0.1-0.1l0.1-1.1l0-0.3
		l0.1-0.6l-0.2,0.1l-0.1-0.2h-0.2l-0.1-0.1l-0.2,0.1l-0.2-0.2l-0.1,0.1h-0.2l-0.1-0.1l-0.1,0l-0.1-1.1l0.1-0.1L23,29.1h-0.1v-0.6H23
		l-0.2-3.3h0v-0.4H23v-0.1h-0.3v-0.3h-0.1v0.3h-0.3v0.1h0.3v0.4h0l-0.2,3.3h0.1v0.6h-0.1l-0.2,0.3l0.1,0.1l-0.1,1.1l-0.1,0l-0.1,0.1
		h-0.2l-0.1-0.1l-0.2,0.2l-0.2-0.1l-0.1,0.1h-0.2L21,30.9l-0.2-0.1l0.1,0.6l0,0.3l0.1,1.1l0.1,0.1v4h-0.3v0.5v13v0.2v2h19.4v-2.2h0
		V40.2z"/>
	<path class="st0" d="M35.4,61.9C21.1,61.9,9.5,50.3,9.5,36s11.6-25.9,25.9-25.9S61.2,21.8,61.2,36S49.6,61.9,35.4,61.9 M35.4,1.8
		C16.4,1.8,1.1,17.1,1.1,36c0,31.8,34.3,56.4,34.3,56.4S69.6,67.1,69.6,36C69.6,17.1,54.3,1.8,35.4,1.8"/>
</g>
</svg>
