<?xml version="1.0" encoding="utf-8"?>
<!-- Generator: Adobe Illustrator 25.2.0, SVG Export Plug-In . SVG Version: 6.00 Build 0)  -->
<svg version="1.1" id="Calque_1" xmlns="http://www.w3.org/2000/svg" xmlns:xlink="http://www.w3.org/1999/xlink" x="0px" y="0px"
	 viewBox="0 0 80 80" style="enable-background:new 0 0 80 80;" xml:space="preserve">
<style type="text/css">
	.st0{clip-path:url(#SVGID_2_);fill:#FFFFFF;}
	.st1{clip-path:url(#SVGID_2_);fill:#13448C;}
	.st2{clip-path:url(#SVGID_2_);fill:#E10B19;}
</style>
<g>
	<defs>
		<rect id="SVGID_1_" width="80" height="80"/>
	</defs>
	<clipPath id="SVGID_2_">
		<use xlink:href="#SVGID_1_"  style="overflow:visible;"/>
	</clipPath>
	<path class="st0" d="M73.1,0H6.9C3.1,0,0,3.1,0,6.9v66.1C0,76.9,3.1,80,6.9,80h66.1c3.8,0,6.9-3.1,6.9-6.9V6.9
		C80,3.1,76.9,0,73.1,0"/>
	<path class="st1" d="M77.1,6.9v66.1c0,2.2-1.8,4-4,4H6.9c-2.2,0-4-1.8-4-4V6.9c0-2.2,1.8-4,4-4h66.1C75.3,2.9,77.1,4.7,77.1,6.9"/>
	<path class="st2" d="M73.1,0.4H52.9v0.8V2v0.2h20.1c2.6,0,4.8,2.1,4.8,4.8v66.1c0,2.6-2.1,4.8-4.8,4.8H52.9V78v0.8v0.8h20.1
		c3.6,0,6.6-2.9,6.6-6.6V6.9C79.6,3.3,76.7,0.4,73.1,0.4"/>
	<path class="st1" d="M6.9,2.2h20.1v-1V0.4H6.9c-3.6,0-6.6,2.9-6.6,6.6v66.1c0,3.6,2.9,6.6,6.6,6.6h20.1v-0.8v-1H6.9
		c-2.6,0-4.8-2.1-4.8-4.8V6.9C2.2,4.3,4.3,2.2,6.9,2.2"/>
	<path class="st0" d="M72.8,56H7.2V44.7H19v0h53.8V56z M11.9,25.2h1.6l1.3,2.1c0.5,0.8,0.6,1,0.6,1h0c0,0,0.1-0.2,0.6-1l1.3-2.1H19
		v7.1h-1.7v-1.7c0-1.7,0.1-2.5,0-2.5h0c0,0-0.6,1-0.6,1.1l-0.8,1.4H15l-0.8-1.4C14.1,29,13.5,28,13.5,28h0c0,0,0.1,0.8,0.1,2.5v1.7
		h-1.7V25.2z M28.1,28.7c0,2.1-1.6,3.7-3.7,3.7c-2,0-3.7-1.5-3.7-3.7c0-2.1,1.6-3.7,3.7-3.7C26.4,25,28.1,26.6,28.1,28.7 M31.8,30.7
		v1.6h-1.7v-7.1h1.6l1.5,2c0.5,0.6,1.5,2.1,1.5,2.1h0c0,0,0-1.3,0-2.5v-1.6h1.7v7.1h-1.6l-1.4-2c-0.6-0.9-1.6-2.2-1.6-2.2h0
		C31.8,28.1,31.8,29.2,31.8,30.7 M27.5,41.1c0.7,0,1.3-0.3,1.6-0.8l1.7,0.4c-0.6,1.3-1.9,2.1-3.3,2.1c-2,0-3.7-1.5-3.7-3.7
		c0-2.1,1.6-3.7,3.7-3.7c1.4,0,2.6,0.7,3.2,1.9L29,37.8c-0.3-0.4-0.9-0.7-1.5-0.7c-1.2,0-1.9,0.8-1.9,2
		C25.6,40.4,26.4,41.1,27.5,41.1 M39.2,39.1c0,2.1-1.6,3.7-3.7,3.7c-2,0-3.7-1.5-3.7-3.7c0-2.1,1.6-3.7,3.7-3.7
		C37.6,35.4,39.2,37,39.2,39.1 M46.2,38.4L46.2,38.4c0,0-0.6,1-0.6,1.1l-0.8,1.4h-0.9L43,39.5c-0.1-0.1-0.6-1.1-0.6-1.1h0
		c0,0,0.1,0.8,0.1,2.5v1.7h-1.7v-7.1h1.6l1.3,2.1c0.5,0.8,0.6,1,0.6,1h0c0,0,0.1-0.2,0.6-1l1.3-2.1h1.6v7.1h-1.7v-1.7
		C46.2,39.3,46.2,38.4,46.2,38.4 M55.3,38c0,1.5-1.1,2.4-2.8,2.4h-1v2.2h-1.7v-7.1h2.7C54.3,35.6,55.3,36.5,55.3,38 M56.4,37.2v-1.6
		h6v1.6h-2.2v5.5h-1.7v-5.5H56.4z M68,38.3v1.5h-2.7v1.3h3.5v1.6h-5.2v-7.1h5.2v1.6h-3.5v1.2H68z M73.6,43.9V33.5H42.4V23.1H6.4
		v11.2H19v9.5H6.4v13h67.2V43.9z"/>
	<polygon class="st0" points="9.5,53.9 11.2,53.9 11.2,51.4 13.8,51.4 13.8,49.8 11.2,49.8 11.2,48.4 14.6,48.4 14.6,46.9 9.5,46.9 
			"/>
	<path class="st0" d="M20.8,50.4c0,1.2-0.8,2-1.9,2c-1.1,0-1.9-0.8-1.9-2c0-1.2,0.8-2,1.9-2C20,48.4,20.8,49.2,20.8,50.4 M15.2,50.4
		c0,2.1,1.6,3.7,3.7,3.7c2,0,3.7-1.5,3.7-3.7c0-2.1-1.6-3.7-3.7-3.7C16.8,46.7,15.2,48.3,15.2,50.4"/>
	<path class="st0" d="M25.6,48.4h1.2c0.6,0,0.9,0.5,0.9,0.8c0,0.4-0.2,0.8-0.9,0.8h-1.2V48.4z M25.6,51.6h0.9l1.3,2.3h1.9l-1.6-2.6
		c0.8-0.4,1.3-1.1,1.3-2c0-1.5-1.1-2.4-2.9-2.4h-2.6v7.1h1.7V51.6z"/>
	<path class="st0" d="M32.5,52.2c0-1.7-0.1-2.5-0.1-2.5h0c0,0,0.6,1,0.6,1.1l0.8,1.4h0.9l0.8-1.4c0.1-0.1,0.6-1.1,0.6-1.1h0
		c0,0-0.1,0.8-0.1,2.5v1.7h1.7v-7.1h-1.6L35,49c-0.5,0.8-0.6,1-0.6,1h0c0,0-0.1-0.2-0.6-1l-1.3-2.1h-1.6v7.1h1.7V52.2z"/>
	<path class="st0" d="M42.1,50c0.2-0.4,0.3-1,0.3-1h0c0,0,0.2,0.6,0.3,1l0.5,1.4h-1.7L42.1,50z M41.1,52.8h2.8l0.4,1.1h1.8l-2.8-7.1
		h-1.6l-2.8,7.1h1.8L41.1,52.8z"/>
	<polygon class="st0" points="47.7,53.9 49.4,53.9 49.4,48.4 51.5,48.4 51.5,46.9 45.5,46.9 45.5,48.4 47.7,48.4 	"/>
	<rect x="52.5" y="46.9" class="st0" width="1.7" height="7.1"/>
	<path class="st0" d="M59.1,48.4c1.2,0,1.9,0.8,1.9,2c0,1.2-0.8,2-1.9,2c-1.1,0-1.9-0.8-1.9-2C57.2,49.2,58,48.4,59.1,48.4
		 M59.1,54.1c2,0,3.7-1.5,3.7-3.7c0-2.1-1.7-3.7-3.7-3.7c-2,0-3.7,1.5-3.7,3.7C55.5,52.5,57.1,54.1,59.1,54.1"/>
	<path class="st0" d="M65.8,52.4c0-1.5,0-2.6,0-2.6h0c0,0,1,1.3,1.6,2.2l1.4,2h1.6v-7.1h-1.7v1.6c0,1.3,0,2.5,0,2.5h0
		c0,0-1.1-1.5-1.5-2.1l-1.5-2h-1.6v7.1h1.7V52.4z"/>
	<path class="st0" d="M33.6,39.1c0,1.2,0.8,2,1.9,2c1.2,0,1.9-0.8,1.9-2c0-1.2-0.8-2-1.9-2C34.4,37.1,33.6,37.9,33.6,39.1"/>
	<path class="st0" d="M51.5,37.2v1.7h1c0.7,0,1.1-0.3,1.1-0.8s-0.4-0.8-1.1-0.8H51.5z"/>
	<path class="st0" d="M22.5,28.7c0,1.2,0.8,2,1.9,2c1.2,0,1.9-0.8,1.9-2c0-1.2-0.8-2-1.9-2C23.3,26.7,22.5,27.5,22.5,28.7"/>
</g>
</svg>
