<?xml version="1.0" encoding="utf-8"?>
<!-- Generator: Adobe Illustrator 21.0.2, SVG Export Plug-In . SVG Version: 6.00 Build 0)  -->
<svg version="1.1" id="Calque_1" xmlns="http://www.w3.org/2000/svg" xmlns:xlink="http://www.w3.org/1999/xlink" x="0px" y="0px"
	 viewBox="0 0 50 50" style="enable-background:new 0 0 50 50;" xml:space="preserve">
<style type="text/css">
	.st0{fill:#103144;}
</style>
<path class="st0" d="M12,0c-1.1,0-2,0.9-2,2v2H4C2.9,4,2,4.9,2,6v17c0,0.4,0.2,0.7,0.5,0.9c0.3,0.2,0.7,0.2,1,0
	C3.8,23.7,4,23.4,4,23v-7h42v30H4v-8c0-0.4-0.2-0.7-0.5-0.9s-0.7-0.2-1,0S2,37.6,2,38v8c0,1.1,0.9,2,2,2h42c1.1,0,2-0.9,2-2V6
	c0-1.1-0.9-2-2-2h-6V2c0-1.1-0.9-2-2-2h-2c-1.1,0-2,0.9-2,2v2H16V2c0-1.1-0.9-2-2-2H12z M12,2h2v6h-2V5.2c0-0.1,0-0.2,0-0.3V2z
	 M36,2h2v2.8c0,0.1,0,0.2,0,0.3V8h-2V2z M4,6h6v2c0,1.1,0.9,2,2,2h2c1.1,0,2-0.9,2-2V6h18v2c0,1.1,0.9,2,2,2h2c1.1,0,2-0.9,2-2V6h6
	v8H4V6z M16.8,22.1c-0.4,0-0.8,0.2-0.9,0.6c-0.2,0.4-0.1,0.8,0.2,1.1L21,29H3c-0.4,0-0.7,0.2-0.9,0.5s-0.2,0.7,0,1S2.6,31,3,31h17.5
	L16,35.7c-0.4,0.4-0.4,1,0,1.4s1,0.4,1.4,0l5.8-6.1c0.3-0.1,0.5-0.3,0.6-0.6l0.5-0.6l-7-7.3C17.3,22.3,17.1,22.1,16.8,22.1z"/>
</svg>
