

<svg version="1.1"  xmlns="http://www.w3.org/2000/svg" xmlns:xlink="http://www.w3.org/1999/xlink" x="0px" y="0px"
	 viewBox="0 0 1066 1066" style="enable-background:new 0 0 1066 1066;" xml:space="preserve">
<style type="text/css">
	.st0{fill:#F73432;}
</style>
<path class="st0" d="M533,0C238.6,0,0,238.6,0,533s238.6,533,533,533s533-238.6,533-533S827.4,0,533,0z M837.2,410.8L464.1,783.9
	c-10.4,10.4-24,15.6-37.7,15.6s-27.3-5.2-37.7-15.6L228.8,624c-20.8-20.8-20.8-54.5,0-75.4s54.5-20.8,75.4,0l122.2,122.2
	l335.4-335.4c20.8-20.8,54.5-20.8,75.4,0C858,356.3,858,389.9,837.2,410.8z"/>
</svg>
