<?xml version="1.0" encoding="utf-8"?>
<!-- Generator: Adobe Illustrator 21.0.2, SVG Export Plug-In . SVG Version: 6.00 Build 0)  -->
<svg version="1.1" id="Calque_1" xmlns="http://www.w3.org/2000/svg" xmlns:xlink="http://www.w3.org/1999/xlink" x="0px" y="0px"
	 viewBox="0 0 80 80" style="enable-background:new 0 0 80 80;" xml:space="preserve">
<style type="text/css">
	.st0{fill:#103144;}
</style>
<path class="st0" d="M19,11v23H9v36h20.1H30h21h20V17H49v28h-8c0-0.5-0.5-1-1-1s-1,0.5-1,1h-8V34H21V13h18v4c0,0.6,0.4,1,1,1
	s1-0.4,1-1l0,0v-6H19z M25,16v3h3v-3H25z M32,16v3h3v-3H32z M51,19h18v49h-7v-6h-4v6h-7v-1c0-0.6-0.4-1-1-1s-1,0.4-1,1l0,0v1h-7v-6
	h-4v6h-7c0-0.3,0-0.7,0-1c0-0.6-0.5-1-1-1l0,0c-0.6,0-1,0.5-1,1c0,0.3,0,0.6,0,1h-7v-6h-4.1v6H11V36h18v9l0,0v1v2l0,0l0,0
	c0,0.1,0,0.2,0.1,0.3l0,0c0.2,0.5,0.8,0.8,1.3,0.5c0.4-0.2,0.6-0.5,0.6-0.9v-1h18v1c0,0.6,0.4,1,1,1s1-0.4,1-1l0,0v-3V19z M40,20
	c-0.5,0-1,0.5-1,1s0.5,1,1,1s1-0.5,1-1S40.5,20,40,20z M25,22v3h3v-3H25z M32,22v3h3v-3H32z M55,22v3h3v-3H55z M62,22v3h3v-3H62z
	 M40,24c-0.5,0-1,0.5-1,1s0.5,1,1,1s1-0.5,1-1S40.5,24,40,24z M40,28c-0.5,0-1,0.5-1,1s0.5,1,1,1s1-0.5,1-1S40.5,28,40,28z M55,28v3
	h3v-3H55z M62,28v3h3v-3H62z M40,32c-0.5,0-1,0.5-1,1s0.5,1,1,1s1-0.5,1-1S40.5,32,40,32z M55,34v3h3v-3H55z M62,34v3h3v-3H62z
	 M40,36c-0.5,0-1,0.5-1,1s0.5,1,1,1s1-0.5,1-1S40.5,36,40,36z M15,39v3h3v-3H15z M22,39v3h3v-3H22z M40,40c-0.5,0-1,0.5-1,1
	s0.5,1,1,1s1-0.5,1-1S40.5,40,40,40z M55,40v3h3v-3H55z M62,40v3h3v-3H62z M15,45v3h3v-3H15z M22,45v3h3v-3H22z M55,46v3h3v-3H55z
	 M62,46v3h3v-3H62z M35,50v3h3v-3H35z M42,50v3h3v-3H42z M15,51v3h3v-3H15z M22,51v3h3v-3H22z M30,51c-0.5,0-1,0.5-1,1s0.5,1,1,1
	s1-0.5,1-1S30.5,51,30,51z M50,51c-0.5,0-1,0.5-1,1s0.5,1,1,1s1-0.5,1-1S50.5,51,50,51z M55,52v3h3v-3H55z M62,52v3h3v-3H62z M30,55
	c-0.5,0-1,0.5-1,1s0.5,1,1,1s1-0.5,1-1S30.5,55,30,55z M50,55c-0.5,0-1,0.5-1,1s0.5,1,1,1s1-0.5,1-1S50.5,55,50,55z M35,56v3h3v-3
	H35z M42,56v3h3v-3H42z M30,59c-0.5,0-1,0.5-1,1s0.5,1,1,1s1-0.5,1-1S30.5,59,30,59z M50,59c-0.5,0-1,0.5-1,1s0.5,1,1,1s1-0.5,1-1
	S50.5,59,50,59z M30,63c-0.5,0-1,0.5-1,1c0,0.6,0.5,1,1,1s1-0.4,1-1C31,63.5,30.5,63,30,63z M50,63c-0.5,0-1,0.5-1,1
	c0,0.6,0.5,1,1,1s1-0.4,1-1C51,63.5,50.5,63,50,63z"/>
</svg>
