<?xml version="1.0" encoding="utf-8"?>
<!-- Generator: Adobe Illustrator 21.0.2, SVG Export Plug-In . SVG Version: 6.00 Build 0)  -->
<svg version="1.1" id="Calque_1" xmlns="http://www.w3.org/2000/svg" xmlns:xlink="http://www.w3.org/1999/xlink" x="0px" y="0px"
	 viewBox="0 0 80 80" style="enable-background:new 0 0 80 80;" xml:space="preserve">
<style type="text/css">
	.st0{fill:#103144;}
</style>
<path class="st0" d="M38.7,9c-4.8,0-9.2,2.6-12.3,5.2s-5.2,5.2-5.2,5.2l-0.9,1.2l1.4,0.4c0,0,0.6,0.1,1.2,0.8c0.7,0.7,1.4,1.8,1.4,4
	c0,2.8,0.4,5.1,0.6,6c-0.6,0.5-0.9,1.2-0.9,2c0,0.6,0.2,1.2,0.4,1.7c0.1,0.3,0.2,0.5,0.2,0.7c0.1,0.2,0.1,0.4,0.1,0.2
	c0,1.4,1.1,2.4,2.5,2.5c0.2,3.9,2.1,7.3,4.9,9.6v3.7c-3.5,1-18,5.7-18,12.7v6h33.4c-0.3-0.6-0.5-1.3-0.7-2H16v-4
	c0-4.7,10.6-9,16-10.7v1.9l0.1,0.2c0,0,2.4,4.6,7.9,4.6s7.9-4.6,7.9-4.6l0.1-0.2v-1.9c0.2,0.1,0.4,0.1,0.7,0.2
	c0.4-0.6,0.8-1.2,1.2-1.7c-0.9-0.3-1.4-0.4-1.9-0.6v-3.7c2.8-2.3,4.7-5.7,4.9-9.6c1.3,0,2.5-1.1,2.5-2.5c0,0.1,0,0,0.1-0.2
	s0.1-0.4,0.2-0.7c0.2-0.5,0.4-1.1,0.4-1.7c0-0.8-0.4-1.5-0.9-2.1c0.2-1.1,0.9-5.6,0.9-8.7c0-3.6-1.3-6.2-3.2-7.8
	c-1.6-1.4-3.5-2-5.2-2.1c-0.3-0.4-0.8-1.1-1.8-1.9C44.4,10.1,42.1,9,38.7,9z M38.7,11c2.9,0,4.8,0.9,5.9,1.8
	c1.1,0.9,1.5,1.7,1.5,1.7l0.3,0.6H47c1.3,0,3.1,0.5,4.5,1.7S54,19.9,54,23c0,2.8-0.7,6.9-0.9,8l0,0C53,31,53,31,53,31v-3
	c0-3.4-1.4-5.7-2.8-7.1S47.3,19,47.3,19l-0.6-0.2l-0.4,0.4c0,0-0.6,0.6-2.1,1.3S40.3,22,37,22c-1.8,0-4.2,0.6-6.2,2.1
	c-2.1,1.4-3.8,3.8-3.8,7c-0.1,0,0,0-0.1,0c0,0,0,0-0.1,0c-0.2-1-0.5-2.8-0.5-5.3c0-2.6-0.9-4.4-1.9-5.4C24,20,23.9,20,23.5,19.8
	c0.7-0.8,2-2.3,4.2-4C30.6,13.4,34.6,11,38.7,11z M47,21.2c0.2,0.1,0.9,0.3,1.8,1.2c1.1,1.1,2.2,2.8,2.2,5.7v6.3l1.5-0.9
	c0.3-0.2,0.5-0.3,0.7-0.4l0,0c0.5,0,0.8,0.4,0.8,0.8c0,0.1-0.1,0.7-0.3,1.2c-0.1,0.3-0.2,0.5-0.2,0.8s-0.1,0.4-0.1,0.8
	c0,0.3-0.2,0.5-0.6,0.5H51v1.4c0,5.4-3.9,9.9-9.1,10.8l-0.3,0.1l-0.2,0.2C41.1,49.8,40.6,50,40,50s-1.1-0.2-1.4-0.6l-0.2-0.2
	l-0.3-0.1C33,48.2,29,43.7,29,38.3V37h-1.8c-0.3,0-0.6-0.2-0.6-0.5c0-0.4-0.1-0.5-0.1-0.8c-0.1-0.2-0.1-0.5-0.2-0.8
	c-0.2-0.5-0.3-1.1-0.3-1.2c0-0.4,0.3-0.7,0.8-0.8l0,0c0.2,0.1,0.4,0.2,0.7,0.4l1.5,0.9v-3.3c0-2.5,1.2-4.2,2.9-5.3
	c1.7-1.1,3.8-1.6,5.1-1.6c3.6,0,6.2-0.8,8-1.6C46.3,21.8,46.6,21.4,47,21.2z M34.5,33c-0.8,0-1.5,0.7-1.5,1.5s0.7,1.5,1.5,1.5
	s1.5-0.7,1.5-1.5S35.3,33,34.5,33z M45.5,33c-0.8,0-1.5,0.7-1.5,1.5s0.7,1.5,1.5,1.5s1.5-0.7,1.5-1.5S46.3,33,45.5,33z M64,48
	c-8.8,0-16,7.2-16,16s7.2,16,16,16s16-7.2,16-16c0-3.3-1-6.4-2.8-9l-1.4,1.4c1.4,2.2,2.2,4.8,2.2,7.5c0,7.7-6.3,14-14,14
	s-14-6.3-14-14s6.3-14,14-14c2.8,0,5.4,0.8,7.5,2.2l1.4-1.4C70.4,49,67.3,48,64,48z M75,49v2.6L64.5,62.1C64.3,62,64.2,62,64,62
	c-1.1,0-2,0.9-2,2s0.9,2,2,2s2-0.9,2-2c0-0.2,0-0.3-0.1-0.5L76.4,53H79v-2h-2v-2H75z M34,49.8c1.1,0.6,2.2,1,3.4,1.2
	c0.8,0.6,1.6,1,2.6,1s1.8-0.4,2.6-0.9c1.2-0.2,2.4-0.7,3.4-1.2v5.9c-0.1,0.2-1.7,3.3-6,3.3s-5.9-3.1-6-3.3V49.8z M64,53
	c-6.1,0-11,4.9-11,11s4.9,11,11,11s11-4.9,11-11c0-1.9-0.5-3.8-1.4-5.4l-1.5,1.5c0.6,1.2,0.9,2.5,0.9,3.9c0,5-4,9-9,9s-9-4-9-9
	s4-9,9-9c1.4,0,2.7,0.3,3.9,0.9l1.5-1.5C67.8,53.5,65.9,53,64,53z M64,57.4c-3.6,0-6.6,2.9-6.6,6.6c0,3.6,2.9,6.6,6.6,6.6
	c3.6,0,6.6-2.9,6.6-6.6c0-0.7-0.1-1.4-0.3-2l-1.7,1.7c0,0.1,0,0.2,0,0.3c0,2.5-2,4.6-4.6,4.6s-4.6-2-4.6-4.6s2-4.6,4.6-4.6
	c0.1,0,0.2,0,0.3,0l1.7-1.7C65.4,57.6,64.7,57.4,64,57.4z M20,65c-0.6,0-1,0.4-1,1s0.4,1,1,1s1-0.4,1-1S20.6,65,20,65z M24,65
	c-0.6,0-1,0.4-1,1s0.4,1,1,1s1-0.4,1-1S24.6,65,24,65z M28,65c-0.6,0-1,0.4-1,1s0.4,1,1,1s1-0.4,1-1S28.6,65,28,65z M32,65
	c-0.6,0-1,0.4-1,1s0.4,1,1,1c0.6,0,1-0.4,1-1S32.6,65,32,65z M36,65c-0.6,0-1,0.4-1,1s0.4,1,1,1s1-0.4,1-1S36.6,65,36,65z M40,65
	c-0.6,0-1,0.4-1,1s0.4,1,1,1s1-0.4,1-1S40.6,65,40,65z M44,65c-0.6,0-1,0.4-1,1s0.4,1,1,1s1-0.4,1-1S44.6,65,44,65z"/>
</svg>
