

<svg version="1.1"  xmlns="http://www.w3.org/2000/svg" xmlns:xlink="http://www.w3.org/1999/xlink" x="0px" y="0px"
	 viewBox="0 0 80 80" style="enable-background:new 0 0 80 80;" xml:space="preserve">
<style type="text/css">
	.st0{fill:#103144;}
</style>
<path class="st0" d="M34,3c-1.1,0-2,0.9-2,2v3c0,1.1,0.9,2,2,2h2v2.3c-15.2,2-27,15-27,30.7c0,17.1,13.9,31,31,31s31-13.9,31-31
	c0-7.9-3-15.2-7.9-20.7l1.4-1.4c0.8,0.4,1.7,0.3,2.3-0.3l1.1-1.1v0c0.8-0.8,0.8-2.1,0-2.8L64.4,13c-0.4-0.4-0.9-0.6-1.4-0.6
	s-1,0.2-1.4,0.6l-1.1,1.1c-0.6,0.6-0.7,1.6-0.3,2.3l-1.6,1.6C54.3,15,49.4,13,44,12.3V10h2c1.1,0,2-0.9,2-2V5c0-1.1-0.9-2-2-2H34z
	 M34,5h12v3H34V5z M38,10h4v2h-4V10z M40,14c16,0,29,13,29,29S56,72,40,72S11,59,11,43S24,14,40,14z M63,14.4l3.6,3.6l-1.1,1.1
	l-3.6-3.6L63,14.4z M40,17c-0.6,0-1,0.4-1,1s0.4,1,1,1s1-0.4,1-1S40.6,17,40,17z M33.5,17.9C33.5,17.9,33.5,17.9,33.5,17.9
	c-0.1,0-0.2,0-0.3,0c-0.5,0.1-0.8,0.7-0.7,1.2c0.1,0.5,0.7,0.9,1.2,0.7c0.5-0.1,0.9-0.7,0.7-1.2C34.4,18.2,34,17.9,33.5,17.9z
	 M46.5,17.9c-0.4,0-0.8,0.3-1,0.7c-0.1,0.5,0.2,1.1,0.7,1.2s1.1-0.2,1.2-0.7c0.1-0.5-0.2-1.1-0.7-1.2C46.6,17.9,46.6,17.9,46.5,17.9
	z M61.4,18l1.6,1.6l-1.3,1.3c-0.5-0.5-1.1-1-1.7-1.5L61.4,18z M27.5,20.3c-0.2,0-0.3,0.1-0.5,0.1c-0.2,0.1-0.4,0.3-0.5,0.6
	c-0.1,0.3,0,0.5,0.1,0.8c0.1,0.2,0.4,0.4,0.6,0.5c0.3,0.1,0.5,0,0.8-0.1c0.5-0.3,0.6-0.9,0.4-1.4C28.2,20.5,27.8,20.3,27.5,20.3z
	 M52.5,20.4c-0.3,0-0.6,0.2-0.8,0.5c-0.3,0.5-0.1,1.1,0.4,1.4s1.1,0.1,1.4-0.4c0.3-0.5,0.1-1.1-0.4-1.4
	C52.8,20.4,52.6,20.3,52.5,20.4z M22.3,24.3c-0.3,0-0.5,0.1-0.7,0.3c-0.4,0.4-0.4,1,0,1.4c0.2,0.2,0.4,0.3,0.7,0.3s0.5-0.1,0.7-0.3
	c0.4-0.4,0.4-1,0-1.4C22.8,24.4,22.6,24.3,22.3,24.3z M57.7,24.3c-0.3,0-0.5,0.1-0.7,0.3c-0.4,0.4-0.4,1,0,1.4c0.4,0.4,1,0.4,1.4,0
	c0.4-0.4,0.4-1,0-1.4C58.2,24.4,58,24.3,57.7,24.3z M26.3,28.4l-1.4,1.4L36.5,41c-0.3,0.6-0.5,1.2-0.5,2c0,2.2,1.8,4,4,4
	c0.7,0,1.4-0.2,2-0.6l2,2l1.4-1.4l-2-2c0.4-0.6,0.6-1.3,0.6-2c0-2.2-1.8-4-4-4c-0.8,0-1.5,0.2-2.1,0.6L26.3,28.4z M61.6,29.5
	c-0.2,0-0.3,0.1-0.5,0.1c-0.5,0.3-0.6,0.9-0.4,1.4c0.3,0.5,0.9,0.6,1.4,0.4c0.2-0.1,0.4-0.3,0.5-0.6c0.1-0.3,0-0.5-0.1-0.8
	C62.3,29.7,62,29.5,61.6,29.5z M18.3,29.5c-0.3,0-0.6,0.2-0.8,0.5c-0.1,0.2-0.2,0.5-0.1,0.8c0.1,0.3,0.2,0.5,0.5,0.6
	c0.5,0.3,1.1,0.1,1.4-0.4s0.1-1.1-0.4-1.4C18.7,29.5,18.5,29.5,18.3,29.5z M15.8,35.5c-0.4,0-0.8,0.3-1,0.7
	c-0.1,0.5,0.2,1.1,0.7,1.2s1.1-0.2,1.2-0.7c0.1-0.5-0.2-1.1-0.7-1.2C16,35.5,15.9,35.5,15.8,35.5z M64.2,35.5c-0.1,0-0.2,0-0.3,0
	c-0.5,0.1-0.9,0.7-0.7,1.2c0.1,0.5,0.7,0.8,1.2,0.7c0.5-0.1,0.9-0.7,0.7-1.2C65,35.8,64.6,35.5,64.2,35.5z M40,41c1.1,0,2,0.9,2,2
	s-0.9,2-2,2s-2-0.9-2-2S38.9,41,40,41z M15,42c-0.6,0-1,0.4-1,1s0.4,1,1,1s1-0.4,1-1S15.6,42,15,42z M65,42c-0.6,0-1,0.4-1,1
	s0.4,1,1,1s1-0.4,1-1S65.6,42,65,42z M15.9,48.5c-0.1,0-0.2,0-0.3,0c-0.5,0.1-0.9,0.7-0.7,1.2c0.1,0.5,0.7,0.8,1.2,0.7
	c0.5-0.1,0.9-0.7,0.7-1.2C16.7,48.8,16.3,48.5,15.9,48.5z M64.1,48.5c-0.5,0-0.8,0.3-1,0.7c-0.1,0.5,0.2,1.1,0.7,1.2
	c0.5,0.1,1.1-0.2,1.2-0.7c0.1-0.5-0.2-1.1-0.7-1.2C64.3,48.5,64.2,48.5,64.1,48.5z M18.3,54.5c-0.2,0-0.3,0.1-0.5,0.1
	c-0.5,0.3-0.6,0.9-0.4,1.4c0.1,0.2,0.3,0.4,0.6,0.5s0.5,0,0.8-0.1c0.2-0.1,0.4-0.3,0.5-0.6c0.1-0.3,0-0.5-0.1-0.8
	C19,54.7,18.7,54.5,18.3,54.5z M61.6,54.5c-0.3,0-0.6,0.2-0.8,0.5c-0.3,0.5-0.1,1.1,0.4,1.4c0.2,0.1,0.5,0.2,0.8,0.1
	c0.3-0.1,0.5-0.2,0.6-0.5c0.1-0.2,0.2-0.5,0.1-0.8c-0.1-0.3-0.2-0.5-0.5-0.6C62,54.5,61.8,54.5,61.6,54.5z M22.3,59.7
	c-0.3,0-0.5,0.1-0.7,0.3c-0.4,0.4-0.4,1,0,1.4c0.4,0.4,1,0.4,1.4,0c0.4-0.4,0.4-1,0-1.4C22.8,59.8,22.6,59.7,22.3,59.7z M57.7,59.7
	c-0.3,0-0.5,0.1-0.7,0.3c-0.4,0.4-0.4,1,0,1.4c0.4,0.4,1,0.4,1.4,0c0.4-0.4,0.4-1,0-1.4C58.2,59.8,58,59.7,57.7,59.7z M52.5,63.6
	c-0.2,0-0.3,0.1-0.5,0.1c-0.5,0.3-0.6,0.9-0.4,1.4s0.9,0.6,1.4,0.4c0.2-0.1,0.4-0.4,0.5-0.6c0.1-0.3,0-0.5-0.1-0.8
	C53.2,63.8,52.8,63.6,52.5,63.6z M27.5,63.7c-0.3,0-0.7,0.2-0.8,0.5c-0.3,0.5-0.1,1.1,0.4,1.4c0.5,0.3,1.1,0.1,1.4-0.4
	c0.1-0.2,0.2-0.5,0.1-0.8c-0.1-0.3-0.2-0.5-0.5-0.6C27.8,63.7,27.6,63.6,27.5,63.7z M46.5,66.1C46.5,66.1,46.4,66.1,46.5,66.1
	c-0.1,0-0.2,0-0.3,0c-0.3,0.1-0.5,0.2-0.6,0.5s-0.2,0.5-0.1,0.8c0.1,0.3,0.2,0.5,0.5,0.6s0.5,0.2,0.8,0.1c0.5-0.1,0.8-0.7,0.7-1.2
	C47.3,66.5,46.9,66.2,46.5,66.1z M33.5,66.2c-0.4,0-0.8,0.3-1,0.7c-0.1,0.5,0.2,1.1,0.7,1.2c0.5,0.1,1.1-0.2,1.2-0.7
	c0.1-0.5-0.2-1.1-0.7-1.2C33.7,66.2,33.6,66.1,33.5,66.2z M40,67c-0.6,0-1,0.4-1,1s0.4,1,1,1s1-0.4,1-1S40.6,67,40,67z"/>
</svg>
