

<svg version="1.1"  xmlns="http://www.w3.org/2000/svg" xmlns:xlink="http://www.w3.org/1999/xlink" x="0px" y="0px"
	 viewBox="0 0 50 50" style="enable-background:new 0 0 50 50;" xml:space="preserve">
<style type="text/css">
	.st0{fill:#FFFFFF;}
</style>
<g id="surface1">
	<path class="st0" d="M8.8,4C8.3,4.1,8,4.5,8,5v40c0,0.6,0.4,1,1,1h6v-2h-5V6h30v38H27v2h14c0.6,0,1-0.4,1-1V5c0-0.6-0.4-1-1-1H9
		C9,4,8.9,4,8.8,4C8.9,4,8.8,4,8.8,4z M15,16v2h20v-2H15z M15,22v2h20v-2H15z M21,30c-0.8,0-1.4,0.4-1.9,1c-0.7-0.2-1.4-0.1-2.1,0.4
		c-0.6,0.5-0.8,1.2-0.8,2c-0.6,0.4-1.2,0.9-1.3,1.7c-0.1,0.8,0.2,1.4,0.7,2c-0.3,0.7-0.3,1.5,0.1,2.1c0.1,0.1,0.2,0.2,0.2,0.3V48
		c0,0.4,0.2,0.7,0.5,0.9c0.3,0.2,0.7,0.1,1-0.1l3.4-2.6l3.4,2.6c0.3,0.2,0.7,0.3,1,0.1c0.3-0.2,0.6-0.5,0.5-0.9v-8.6
		c0.1-0.1,0.2-0.2,0.2-0.3c0.4-0.7,0.3-1.5,0.1-2.1c0.5-0.5,0.8-1.2,0.7-2c-0.1-0.8-0.7-1.3-1.3-1.7c0-0.7-0.1-1.5-0.8-2
		c-0.6-0.5-1.4-0.5-2.1-0.4C22.4,30.5,21.8,30,21,30z M23,31.2C23,31.2,23.1,31.3,23,31.2L23,31.2C23,31.3,23,31.2,23,31.2z M21,32
		c0.3,0,0.4,0.1,0.4,0.3c0.1,0.2,0.1,0.3,0.2,0.4c0.1,0.1,0.1,0.1,0.4,0.2s0.5,0.1,0.5,0.1c0.2,0,0.4,0,0.5-0.1
		c0.1-0.1,0.4-0.1,0.6,0c0.2,0.1,0.2,0.2,0.1,0.5c0,0.1-0.1,0.2-0.1,0.3c0,0.1,0.1,0.2,0.1,0.3c0,0.4,0.4,0.8,0.8,0.9
		c0.2,0,0.3,0.2,0.4,0.4c0,0.2-0.1,0.4-0.2,0.5c-0.3,0.2-0.5,0.5-0.5,0.8V37c0,0.2,0.1,0.4,0.2,0.6c0,0,0.1,0.4,0,0.5
		c-0.1,0.1-0.3,0.2-0.5,0.2c-0.4-0.1-0.7,0.1-1,0.4c0,0,0,0,0,0c0,0,0,0-0.1,0.1c0,0,0,0,0,0c-0.2,0.2-0.3,0.4-0.3,0.7
		c0,0.3,0,0.3-0.2,0.3c0,0-0.1,0-0.1,0.1c0,0,0,0,0,0c-0.1,0-0.3-0.1-0.4-0.2c-0.2-0.2-0.5-0.3-0.7-0.3h-0.4c-0.3,0-0.5,0.1-0.7,0.3
		c-0.2,0.2-0.3,0.2-0.6,0.2c-0.1-0.1-0.2-0.2-0.2-0.3c0-0.2-0.1-0.4-0.2-0.6c-0.1-0.2-0.2-0.2-0.3-0.3c-0.2-0.2-0.6-0.3-0.9-0.3
		c-0.2,0-0.4-0.1-0.5-0.2c-0.1-0.2-0.2-0.3,0-0.5c0.1-0.2,0.2-0.4,0.2-0.6v-0.3c0-0.3-0.2-0.7-0.5-0.8c-0.1-0.1-0.2-0.3-0.2-0.5
		c0-0.2,0.2-0.3,0.4-0.4c0.4-0.1,0.8-0.5,0.8-0.9c0.1-0.1,0.1-0.1,0.1-0.3c0-0.1,0-0.2-0.1-0.3c-0.1-0.3-0.1-0.4,0.1-0.5
		c0.1-0.1,0.4-0.1,0.6,0c0.3,0.2,0.7,0.2,1,0c0,0,0,0,0,0c0,0,0,0,0,0c0,0,0,0,0.1,0c0.3-0.1,0.5-0.3,0.6-0.6
		C20.6,32.2,20.8,32,21,32z M18,41.1c0.2,0.3,0.5,0.5,0.8,0.7c0,0,0,0,0,0c0.8,0.3,1.5,0,2.1-0.3c0,0,0,0,0,0h0.2
		c0.4,0.2,0.7,0.5,1.1,0.5c0.2,0,0.5-0.1,0.8-0.2c0,0,0,0,0.1,0s0,0,0.1,0v0c0.3-0.1,0.6-0.3,0.8-0.6V46l-2.4-1.8
		c-0.4-0.3-0.8-0.3-1.2,0L18,46V41.1z"/>
</g>
</svg>
