<?xml version="1.0" encoding="utf-8"?>
<!-- Generator: Adobe Illustrator 21.0.2, SVG Export Plug-In . SVG Version: 6.00 Build 0)  -->
<svg version="1.1" id="Calque_1" xmlns="http://www.w3.org/2000/svg" xmlns:xlink="http://www.w3.org/1999/xlink" x="0px" y="0px"
	 viewBox="0 0 80 80" style="enable-background:new 0 0 80 80;" xml:space="preserve">
<style type="text/css">
	.st0{fill:#103144;}
</style>
<path class="st0" d="M21,10c-3.9,0-7,3.1-7,7s3.1,7,7,7c1.4,0,2.8-0.4,3.9-1.2c0.5-0.3,0.6-0.9,0.3-1.4s-0.9-0.6-1.4-0.3
	c0,0,0,0-0.1,0C23,21.7,22,22,21,22c-2.8,0-5-2.2-5-5s2.2-5,5-5c1.9,0,3.5,1,4.3,2.5c0.3,0.5,0.9,0.7,1.4,0.4s0.7-0.9,0.4-1.4
	c0,0,0,0,0-0.1C25.9,11.4,23.6,10,21,10z M40,10c-3.6,0-6.5,2.7-6.9,6.1c0,0-0.8-0.1-1.7-0.1c-1,0-2.2,0.2-3.2,1.2
	c-0.9,0.9-1.1,2.2-1.2,3.2c0,1,0.1,1.7,0.1,1.7l1-1.2l-0.2,2h0.2l0,0h0.1c0.2,0,0.6,0.1,1.4,0.1c1,0,2.2-0.2,3.2-1.2
	c0.5-0.5,0.8-1.1,1-1.7C35,22.4,37.3,24,40,24c3.9,0,7-3.1,7-7v-1h-0.2C46.3,12.6,43.5,10,40,10z M59,10c-3.9,0-7,3.1-7,7s3.1,7,7,7
	s7-3.1,7-7S62.9,10,59,10z M40,12c2.8,0,5,2.2,5,5s-2.2,5-5,5s-5-2.2-5-5S37.2,12,40,12z M59,12c2.8,0,5,2.2,5,5s-2.2,5-5,5
	s-5-2.2-5-5S56.2,12,59,12z M31.4,18c0.3,0,0.3,0,0.5,0c0,0.2,0,0.2,0,0.5c0,0.7-0.2,1.4-0.6,1.8c-0.3,0.5-1,0.7-1.7,0.7
	c-0.3,0-0.3,0-0.5,0c0-0.2,0-0.2,0-0.5c0-0.7,0.2-1.4,0.6-1.8C30,18.2,30.7,18,31.4,18z M17,26c-4.4,0-8,3.6-8,8v15c0,2.2,1.8,4,4,4
	h1v13c0,2.2,1.8,4,4,4h6c0.6,0,1-0.4,1-1s-0.4-1-1-1l0,0h-6c-1.1,0-2-0.9-2-2V51h-3c-1.1,0-2-0.9-2-2V34c0-3.3,2.7-6,6-6h8
	c0.6,0,1.2,0.1,1.7,0.2c0.5,0.2,1.1-0.1,1.3-0.6c0.2-0.5-0.1-1.1-0.6-1.3c0,0,0,0-0.1,0C26.6,26.1,25.8,26,25,26H17z M42.1,26v2
	l-0.7-1.7L40,27.6l-1.2-1.3c-0.2-0.2-0.5-0.3-0.7-0.3c-2.7,0-5,1-6.8,2.6c-1.7,1.7-2.9,4-3.7,6.8l0,0l-3.5,11.9c0,0,0,0,0,0.1
	c-0.4,1.6,0.6,3.2,2.2,3.6l0,0c0.3,0.1,0.6,0.1,0.9,0.1c1.3-0.1,2.4-1,2.8-2.3v0.1l1.8-5.1L31,58c0,0.6,0.4,1,1,1l0,0h2v7
	c0,2.2,1.8,4,4,4h4c2.2,0,4-1.8,4-4v-7h2c0.6,0,1-0.4,1-1l0,0l-0.3-7.1C50.5,50.5,52,49,52,47V35.9C52,30.4,47.6,26,42.1,26z M55,26
	c-0.8,0-1.6,0.1-2.3,0.3c-0.5,0.1-0.9,0.7-0.7,1.2c0.1,0.5,0.7,0.9,1.2,0.7c0,0,0,0,0.1,0C53.8,28,54.4,28,55,28h8c3.3,0,6,2.7,6,6
	v15c0,1.1-0.9,2-2,2h-3v15c0,1.1-0.9,2-2,2h-6c-1.1,0-2-0.9-2-2V53c0-0.6-0.4-1-1-1s-1,0.4-1,1l0,0v13c0,2.2,1.8,4,4,4h6
	c2.2,0,4-1.8,4-4V53h1c2.2,0,4-1.8,4-4V34c0-4.4-3.6-8-8-8H55z M42.4,28.1c4.3,0.2,7.6,3.5,7.6,7.8V47c0,1.1-0.9,2-2,2h-0.4
	c-0.6,0-1,0.4-1,1l0,0l0.3,7h-2c-0.2,0-0.3,0-0.5,0.1C44.3,57,44.2,57,44,57c-0.6,0-1,0.4-1,1s0.4,1,1,1v7c0,1.1-0.9,2-2,2h-4
	c-1.1,0-2-0.9-2-2v-7c0.6,0,1-0.4,1-1s-0.4-1-1-1c-0.2,0-0.3,0-0.5,0.1C35.3,57,35.2,57,35,57h-2l1-20c0-0.6-0.4-1-1-1
	c-0.4,0-0.8,0.2-1,0.7l-4,11.4v0.1c-0.1,0.5-0.5,0.7-0.9,0.8l0,0c-0.1,0-0.2,0-0.3,0c-0.5-0.1-0.9-0.7-0.7-1.2L29.6,36l0,0
	c0.7-2.5,1.7-4.5,3.1-5.8c1.3-1.3,3-1.9,5-2l1.5,1.6c0.4,0.4,1,0.4,1.4,0L42.4,28.1z M40,31c-0.6,0-1,0.5-1,1v9c0,0.6,0.4,1,1,1
	s1-0.4,1-1l0,0v-9C41,31.4,40.6,31,40,31L40,31z M15,35c-0.6,0-1,0.4-1,1s0.4,1,1,1s1-0.4,1-1S15.6,35,15,35z M65,35
	c-0.6,0-1,0.4-1,1s0.4,1,1,1s1-0.4,1-1S65.6,35,65,35z M46,37c-0.6,0-1,0.4-1,1s0.4,1,1,1s1-0.4,1-1S46.6,37,46,37z M15,39
	c-0.6,0-1,0.4-1,1s0.4,1,1,1s1-0.4,1-1S15.6,39,15,39z M65,39c-0.6,0-1,0.4-1,1s0.4,1,1,1s1-0.4,1-1S65.6,39,65,39z M46,41
	c-0.6,0-1,0.4-1,1s0.4,1,1,1s1-0.4,1-1S46.6,41,46,41z M15,43c-0.6,0-1,0.4-1,1s0.4,1,1,1s1-0.4,1-1S15.6,43,15,43z M65,43
	c-0.6,0-1,0.4-1,1s0.4,1,1,1s1-0.4,1-1S65.6,43,65,43z M46,45c-0.6,0-1,0.4-1,1s0.4,1,1,1s1-0.4,1-1S46.6,45,46,45z M15,47
	c-0.6,0-1,0.4-1,1s0.4,1,1,1s1-0.4,1-1S15.6,47,15,47z M65,47c-0.6,0-1,0.4-1,1s0.4,1,1,1s1-0.4,1-1S65.6,47,65,47z M24,53
	c-0.6,0-1,0.4-1,1v10c0,0.6,0.4,1,1,1h4c0.6,0,1-0.4,1-1V54c0-0.6-0.4-1-1-1H24z M25,55h2v8h-2V55z M40,57c-0.6,0-1,0.4-1,1
	s0.4,1,1,1s1-0.4,1-1S40.6,57,40,57z"/>
</svg>
