

<svg version="1.1"  xmlns="http://www.w3.org/2000/svg" xmlns:xlink="http://www.w3.org/1999/xlink" x="0px" y="0px"
	 viewBox="0 0 64 64" style="enable-background:new 0 0 64 64;" xml:space="preserve">
<style type="text/css">
	.st0{fill:#FFFFFF;}
</style>
<g id="surface1">
	<path class="st0" d="M8.9,6C8.1,6,7.4,6.3,6.8,6.9C6.3,7.4,6,8.2,6,9v29.5c0,0.2,0,0.3-0.1,0.5L0.5,49.7C0.2,50.4,0,51.2,0,51.9V55
		c0,1.7,1.3,3,3,3h58c1.7,0,3-1.3,3-3v-3.1c0-0.8-0.2-1.5-0.5-2.2L58.1,39C58,38.8,58,38.7,58,38.5V9c0-1.7-1.3-3-3-3H8.9z M8.9,8
		H55c0.6,0,1,0.4,1,1v29.5c0,0.5,0.1,0.9,0.3,1.3L61.4,50H2.6l5-10H45c0.6,0,1-0.4,1-1s-0.4-1-1-1H8V9c0-0.3,0-0.5,0.2-0.7
		C8.4,8.1,8.7,8,8.9,8z M14,16c-0.6,0-1,0.4-1,1s0.4,1,1,1h8c0.6,0,1-0.4,1-1s-0.4-1-1-1H14z M26,16c-0.6,0-1,0.4-1,1s0.4,1,1,1h2
		c0.6,0,1-0.4,1-1s-0.4-1-1-1H26z M36,16c-0.6,0-1,0.4-1,1s0.4,1,1,1h10c0.6,0,1-0.4,1-1s-0.4-1-1-1H36z M14,20c-0.6,0-1,0.4-1,1
		s0.4,1,1,1h12c0.6,0,1-0.4,1-1s-0.4-1-1-1H14z M36,20c-0.6,0-1,0.4-1,1s0.4,1,1,1h14c0.6,0,1-0.4,1-1s-0.4-1-1-1H36z M14,24
		c-0.6,0-1,0.4-1,1s0.4,1,1,1h14c0.6,0,1-0.4,1-1s-0.4-1-1-1H14z M36,24c-0.6,0-1,0.4-1,1s0.4,1,1,1h14c0.6,0,1-0.4,1-1s-0.4-1-1-1
		H36z M14,28c-0.6,0-1,0.4-1,1s0.4,1,1,1h9c0.6,0,1-0.4,1-1s-0.4-1-1-1H14z M36,28c-0.6,0-1,0.4-1,1s0.4,1,1,1h6c0.6,0,1-0.4,1-1
		s-0.4-1-1-1H36z M46,28c-0.6,0-1,0.4-1,1s0.4,1,1,1h2c0.6,0,1-0.4,1-1s-0.4-1-1-1H46z M49,38c-0.6,0-1,0.4-1,1s0.4,1,1,1h4
		c0.6,0,1-0.4,1-1s-0.4-1-1-1H49z M10,42c-0.6,0-1,0.4-1,1s0.4,1,1,1h2c0.6,0,1-0.4,1-1s-0.4-1-1-1H10z M16,42c-0.6,0-1,0.4-1,1
		s0.4,1,1,1h2c0.6,0,1-0.4,1-1s-0.4-1-1-1H16z M22,42c-0.6,0-1,0.4-1,1s0.4,1,1,1h2c0.6,0,1-0.4,1-1s-0.4-1-1-1H22z M28,42
		c-0.6,0-1,0.4-1,1s0.4,1,1,1h2c0.6,0,1-0.4,1-1s-0.4-1-1-1H28z M34,42c-0.6,0-1,0.4-1,1s0.4,1,1,1h2c0.6,0,1-0.4,1-1s-0.4-1-1-1H34
		z M40,42c-0.6,0-1,0.4-1,1s0.4,1,1,1h2c0.6,0,1-0.4,1-1s-0.4-1-1-1H40z M46,42c-0.6,0-1,0.4-1,1s0.4,1,1,1h2c0.6,0,1-0.4,1-1
		s-0.4-1-1-1H46z M52,42c-0.6,0-1,0.4-1,1s0.4,1,1,1h2c0.6,0,1-0.4,1-1s-0.4-1-1-1H52z M13,46c-0.6,0-1,0.4-1,1s0.4,1,1,1h2
		c0.6,0,1-0.4,1-1s-0.4-1-1-1H13z M19,46c-0.6,0-1,0.4-1,1s0.4,1,1,1h2c0.6,0,1-0.4,1-1s-0.4-1-1-1H19z M25,46c-0.6,0-1,0.4-1,1
		s0.4,1,1,1h14c0.6,0,1-0.4,1-1s-0.4-1-1-1H25z M43,46c-0.6,0-1,0.4-1,1s0.4,1,1,1h2c0.6,0,1-0.4,1-1s-0.4-1-1-1H43z M49,46
		c-0.6,0-1,0.4-1,1s0.4,1,1,1h2c0.6,0,1-0.4,1-1s-0.4-1-1-1H49z M2,52h60v3c0,0.6-0.4,1-1,1H3c-0.6,0-1-0.4-1-1V52z"/>
</g>
</svg>
