

<svg version="1.1"  xmlns="http://www.w3.org/2000/svg" xmlns:xlink="http://www.w3.org/1999/xlink" x="0px" y="0px"
	 viewBox="0 0 71 94.9" style="enable-background:new 0 0 71 94.9;" xml:space="preserve">
<style type="text/css">
	.st0{fill:#FFFFFF;}
</style>
<g>
	<path class="st0" d="M43.8,16.2c0,0.8,0.1,1.6,0.1,2.4c0,0.2,0,0.4,0,0.6c0,0.1,0.1,0.2,0.1,0.2c0.1,0.1,0.3,0.3,0.4,0.4
		c0.3,0.3,0.3,0.5,0.1,0.9c0,0.1,0,0.2,0,0.2c0.3,0.1,0.1,0.3,0.1,0.5c0,0.5-0.2,0.9-0.1,1.4c0.1,3,0.1,6,0.3,8.9
		c0.2,2.7,0.5,5.3,0.8,7.9c0,0.2,0.2,0.3,0.3,0.5c0,0.1,0,0.3,0,0.5c0,0.1-0.1,0.3-0.1,0.4c0.2,1.6,0.6,3.2,1.2,4.8
		c0.2,0.5,0.2,0.5,0.7,0.5c-0.1,1.2,0.3,2.2,0.8,3.2c0.4,0.8,0.8,1.7,1.3,2.5c0.2,0.5,0.5,1,1,1.2V54H48c0-0.4,0-0.7,0-1.1
		c-0.5-2.2-2.6-3.6-4.9-3.3c-1.7,0.2-3.9,1.9-3.6,4.4h-2.8c0-0.2,0-0.3,0-0.5c0-0.1,0.1-0.3,0.2-0.4c0.3-0.1,0.4-0.3,0.5-0.6
		c0.7-1.5,1.5-3,2.2-4.5c0.1-0.2,0.1-0.4,0.1-0.6c0-0.1,0-0.2,0-0.4c0-0.2,0-0.5,0-0.7c0,0,0.1,0,0.2,0c0.1-0.1,0.3-0.1,0.3-0.2
		c0.6-1.6,1-3.3,1.3-5c0-0.1,0-0.3-0.1-0.4c-0.2-0.3,0-0.5,0.1-0.7c0.1-0.1,0.2-0.3,0.2-0.4c0.5-2.8,0.7-5.7,0.8-8.6
		c0.1-2.8,0.2-5.5,0.3-8.3c0-0.4-0.1-0.8-0.2-1.3c0-0.2-0.2-0.4,0.1-0.5c0,0,0-0.1,0-0.2c0-0.1-0.1-0.2-0.1-0.3
		c-0.1-0.4,0.2-0.6,0.4-0.8c0.3-0.2,0.3-0.5,0.3-0.8C43.7,17.9,43.7,17,43.8,16.2L43.8,16.2z"/>
	<path class="st0" d="M28.1,42.2h-1.7c-0.3,1.4-0.5,2.8-0.8,4.2h3.2C28.6,45,28.3,43.6,28.1,42.2 M20.2,53.4
		c0.1-0.1,0.3-0.2,0.4-0.3c0.1-0.1,0.2-0.1,0.2-0.2c0.8-1.6,1.6-3.2,2.3-4.8c0.1-0.2,0.1-0.4,0.1-0.7c0-0.1,0-0.1,0-0.2
		c0-0.3,0.1-0.5,0.1-0.8c0.5,0.1,0.6-0.2,0.6-0.6c0.4-1.4,0.7-2.9,1.1-4.3c0.1-0.3,0.1-0.6-0.1-0.9c-0.1-0.1,0.1-0.4,0.1-0.6
		c0.1-0.1,0.2-0.3,0.2-0.4c0.2-1.9,0.5-3.9,0.6-5.8c0.2-3.8,0.4-7.5,0.5-11.3c0-0.3-0.1-0.7-0.2-1c0-0.2-0.2-0.5,0.1-0.6
		c0,0,0-0.1,0-0.2c-0.3-0.4-0.2-0.8,0.2-1.1c0.5-0.3,0.4-0.8,0.4-1.2c0-0.8,0.1-1.6,0.1-2.3h0.1c0,0.1,0,0.2,0,0.3
		c0,0.7,0.1,1.4,0.1,2.1c0,0.1,0,0.2,0,0.3c-0.1,0.5,0.3,0.7,0.6,0.9c0.3,0.3,0.2,0.5,0.1,0.8c-0.1,0.1-0.1,0.2,0,0.3
		c0.1,0,0.1,0.2,0.1,0.3c-0.4,1-0.2,2-0.2,3c0,1.9,0.1,3.8,0.2,5.7c0.2,3.2,0.3,6.5,0.9,9.7c0,0.2,0.2,0.4,0.3,0.6
		c0,0.1,0,0.3,0,0.4c0,0.2-0.1,0.4-0.1,0.5c0.3,1.7,0.7,3.3,1.2,4.9c0.1,0.3,0.1,0.3,0.6,0.3c0.1,0.7,0,1.4,0.3,2.1
		c0.7,1.3,1.3,2.7,2,4c0.1,0.3,0.2,0.5,0.6,0.7c0.3,0.1,0.2,0.5,0.2,0.8h-2.8c0-0.4,0.1-0.8,0-1.1c-0.6-2.7-3.7-4.1-6.2-2.8
		c-1.6,0.8-2.4,2.1-2.3,3.9h-2.8V53.4z"/>
	<path class="st0" d="M35.5,62.2c-14.3,0-25.9-11.6-25.9-25.9s11.6-25.9,25.9-25.9s25.9,11.6,25.9,25.9S49.8,62.2,35.5,62.2
		 M35.5,2.1C16.6,2.1,1.2,17.4,1.2,36.4c0,31.8,34.3,56.4,34.3,56.4s34.3-25.4,34.3-56.4C69.8,17.4,54.4,2.1,35.5,2.1"/>
</g>
</svg>
