

<svg version="1.1"  xmlns="http://www.w3.org/2000/svg" xmlns:xlink="http://www.w3.org/1999/xlink" x="0px" y="0px"
	 viewBox="0 0 512 512" style="enable-background:new 0 0 512 512;" xml:space="preserve">
<style type="text/css">
	.st0{fill:none;stroke:#113245;stroke-width:10;stroke-miterlimit:10;}
</style>
<polygon class="st0" points="259.6,31.7 281.7,76.2 330.7,83.4 295.2,118.1 303.6,166.9 259.6,143.8 215.7,166.9 224.1,118.1 
	188.6,83.4 237.7,76.2 "/>
<polygon class="st0" points="415.3,152.7 437.3,197.1 486.4,204.2 450.9,238.9 459.2,287.7 415.3,264.7 371.4,287.7 379.8,238.9 
	344.3,204.2 393.4,197.1 "/>
<polygon class="st0" points="98.3,149.7 120.2,194.1 169.3,201.2 133.8,235.9 142.2,284.7 98.3,261.7 54.4,284.7 62.7,235.9 
	27.2,201.2 76.3,194.1 "/>
<polygon class="st0" points="354.8,333 376.8,377.5 425.9,384.6 390.4,419.2 398.7,468.1 354.8,445 310.9,468.1 319.3,419.2 
	283.8,384.6 332.9,377.5 "/>
<polygon class="st0" points="159.3,333 181.3,377.5 230.3,384.6 194.8,419.2 203.2,468.1 159.3,445 115.4,468.1 123.7,419.2 
	88.2,384.6 137.3,377.5 "/>
</svg>
