

<svg version="1.1"  xmlns="http://www.w3.org/2000/svg" xmlns:xlink="http://www.w3.org/1999/xlink" x="0px" y="0px"
	 viewBox="0 0 71 94.9" style="enable-background:new 0 0 71 94.9;" xml:space="preserve">
<style type="text/css">
	.st0{fill:#FFFFFF;}
</style>
<path class="st0" d="M36.2,62.2c-14.3,0-25.9-11.6-25.9-25.9s11.6-25.9,25.9-25.9S62,22.1,62,36.4S50.5,62.2,36.2,62.2 M36.2,2.1
	C17.3,2.1,1.9,17.4,1.9,36.4c0,31.8,34.3,56.4,34.3,56.4s34.3-25.4,34.3-56.4C70.5,17.4,55.1,2.1,36.2,2.1"/>
<g>
	<path class="st0" d="M26.8,39.3c0,0,4,0.2,8.4-0.8c3.7-0.9,12-5.7,17.1-4.6c2.9,0.6,4.3,4.7,4.3,4.7s-2.1-1.3-4-1.7
		c-4.4-1-12.1,2.7-15,3.2C34.8,40.5,31.1,40.8,26.8,39.3z"/>
	<path class="st0" d="M19,37.7c0,0,7.9,4.6,13.9,4.4s12.8-3.6,15.7-3c0.9,0.2,3.1,0.5,3.1,0.5s-3.9,0.3-5.3,1
		c-3.9,1.8-8.2,5.1-15.7,4.8S19,37.7,19,37.7z"/>
	<path class="st0" d="M46.4,28.2l-7.8,4.6l4.8-4.8l-5.2,4.4l5.3-7.5l-5.9,6.9l2.9-6.1l-3.5,5.8l2.6-8.8l-3.3,8.4l0.8-6.7l-1.5,6.7
		L35.1,22l-0.4,9l-1.4-6.5l0.8,6.8l-3.4-8.6l2.5,8.6l-3.4-5.7l3,6.2l-6-7l5.2,7.4l-5.1-4.3l4.8,4.9l-8-4.7l7.3,5.3L24.8,31l6.2,3.1
		l-9.1-1.9l8.6,2.6l-6.6-0.3l6.8,0.9l-9.2,1.2l9-0.3l-4.3,1.3c0.2,0,0.5,0,0.7,0.1l3.9-0.8l-1.7,0.8c5.2-0.2,8.8-2.3,13.1-4.3
		l-3.1,0.6l6.1-3L39,33.5L46.4,28.2z"/>
	<path class="st0" d="M34.6,46.7c0,0,5.7-0.7,8.2-2.6c0,0-2.4,2.3-3.6,2.5C37.4,47.1,36.9,46.9,34.6,46.7z"/>
</g>
</svg>
