

<svg version="1.1"  xmlns="http://www.w3.org/2000/svg" xmlns:xlink="http://www.w3.org/1999/xlink" x="0px" y="0px"
	 viewBox="0 0 80 80" style="enable-background:new 0 0 80 80;" xml:space="preserve">
<style type="text/css">
	.st0{fill:#103144;}
</style>
<path class="st0" d="M13,10C13,10,13,10,13,10c-0.7,0-1.1,0.5-1,1.1c0,0.1,0,0.3,0.1,0.4l11.7,24.3C20.8,39.3,19,44,19,49
	c0,11.6,9.4,21,21,21s21-9.4,21-21c0-5-1.8-9.7-4.8-13.3l11.7-24.3c0.2-0.5,0-1.1-0.4-1.3C67.3,10,67.2,10,67,10
	c-0.4,0-0.8,0.2-0.9,0.6L54.8,34.1C51,30.3,45.8,28,40,28c-0.7,0-1.4,0-2.1,0.1l8-16.7c0.2-0.5,0-1.1-0.5-1.3C45.3,10,45.2,10,45,10
	c-0.4,0-0.8,0.2-0.9,0.6L40,19.1l-4.1-8.6C35.7,10.2,35.4,10,35,10c0,0-0.1,0-0.1,0c-0.6,0-1,0.5-0.9,1.1c0,0.1,0,0.3,0.1,0.4
	l4.8,10l-1.6,3.3h0L36.4,25l-0.3,0.8l0.1,0.3l0,0.1l0.2,0.2l-1,2c-4,0.9-7.5,2.9-10.3,5.6L13.9,10.6C13.7,10.2,13.4,10,13,10z
	 M62.2,10l-0.9,0.3l-0.2,0.3l0,0.1l0,0.9l0.7,0.5l0.9-0.3l0.2-0.3l0-0.1l0-0.9L62.2,10z M50.2,10l-0.9,0.3l-0.2,0.3l0,0.1l0,0.9
	l0.7,0.5l0.9-0.3l0.2-0.3l0-0.1l0-0.9L50.2,10z M18.2,10l-0.9,0.2L17,11.1l0.1,0.3l0,0.1l0.7,0.5l0.9-0.2L19,11l-0.1-0.3l0-0.1
	L18.2,10z M30.2,10l-0.9,0.2L29,11.1l0.1,0.3l0,0.1l0.7,0.5l0.9-0.2L31,11l-0.1-0.3l0-0.1L30.2,10z M48.4,13.7L47.5,14l-0.2,0.3
	l0,0.1l0,0.9l0.7,0.5l0.9-0.3l0.2-0.3l0-0.1l0-0.9L48.4,13.7z M60.4,13.7L59.5,14l-0.2,0.3l0,0.1l0,0.9l0.7,0.5l0.9-0.3l0.2-0.3
	l0-0.1l0-0.9L60.4,13.7z M32,13.7L31.1,14l-0.3,0.8l0.1,0.3l0,0.1l0.7,0.5l0.9-0.2l0.3-0.8l-0.1-0.3l0-0.1L32,13.7z M20,13.7
	L19.1,14l-0.3,0.8l0.1,0.3l0,0.1l0.7,0.5l0.9-0.2l0.3-0.8l-0.1-0.3l0-0.1L20,13.7z M46.6,17.4l-0.9,0.3L45.6,18l0,0.1l0,0.9l0.7,0.5
	l0.9-0.3l0.2-0.3l0-0.1l0-0.9L46.6,17.4z M58.6,17.4l-0.9,0.3L57.6,18l0,0.1l0,0.9l0.7,0.5l0.9-0.3l0.2-0.3l0-0.1l0-0.9L58.6,17.4z
	 M33.7,17.4l-0.9,0.2l-0.3,0.8l0.1,0.3l0,0.1l0.7,0.5l0.9-0.2l0.3-0.8L34.5,18l0-0.1L33.7,17.4z M21.7,17.4l-0.9,0.2l-0.3,0.8
	l0.1,0.3l0,0.1l0.7,0.5l0.9-0.2l0.3-0.8l-0.1-0.3l0-0.1L21.7,17.4z M44.8,21.1L44,21.4l-0.2,0.3l0,0.1l0,0.9l0.7,0.5l0.9-0.3
	l0.2-0.3l0-0.1l0-0.9L44.8,21.1z M35.5,21.1l-0.9,0.2l-0.3,0.8l0.1,0.3l0,0.1l0.7,0.5l0.9-0.2l0.3-0.8l-0.1-0.3l0-0.1L35.5,21.1z
	 M56.9,21.1L56,21.4l-0.2,0.3l0,0.1l0,0.9l0.7,0.5l0.9-0.3l0.2-0.3l0-0.1l0-0.9L56.9,21.1z M23.5,21.1l-0.9,0.2l-0.3,0.8l0.1,0.3
	l0,0.1l0.7,0.6l0.9-0.2l0.3-0.8l-0.1-0.3l0-0.1L23.5,21.1z M43.1,24.8l-0.9,0.3L42,25.4l0,0.1l0,0.9l0.7,0.5l0.9-0.3l0.2-0.3l0-0.1
	l0-0.9L43.1,24.8z M55.1,24.8l-0.9,0.3L54,25.4l0,0.1l0,0.9l0.7,0.5l0.9-0.3l0.2-0.3l0-0.1l0-0.9L55.1,24.8z M25.3,24.8l-0.9,0.2
	l-0.3,0.8l0.1,0.3l0,0.1l0.7,0.5l0.9-0.2l0.3-0.8L26,25.5l0-0.1L25.3,24.8z M53.3,28.5l-0.9,0.3l-0.2,0.3l0,0.1l0,0.9l0.7,0.5
	l0.9-0.3L54,30l0-0.1l0-0.9L53.3,28.5z M27,28.5l-0.9,0.2l-0.3,0.8l0.1,0.3l0,0.1l0.7,0.5l0.9-0.2l0.3-0.8l-0.1-0.3l0-0.1L27,28.5z
	 M40,30c10.5,0,19,8.5,19,19s-8.5,19-19,19s-19-8.5-19-19S29.5,30,40,30z M40,33c-0.6,0-1,0.4-1,1s0.4,1,1,1s1-0.4,1-1
	S40.6,33,40,33z M36.2,33.5c-0.1,0-0.2,0-0.3,0c-0.5,0.1-0.9,0.7-0.7,1.2c0,0,0,0,0,0c0.1,0.5,0.7,0.9,1.2,0.7c0,0,0,0,0,0
	c0.5-0.1,0.9-0.7,0.7-1.2c0,0,0,0,0,0C37,33.8,36.6,33.5,36.2,33.5z M43.9,33.5c-0.4,0-0.8,0.3-1,0.7c-0.1,0.5,0.2,1.1,0.7,1.2
	c0.5,0.1,1.1-0.2,1.2-0.7c0.1-0.5-0.2-1.1-0.7-1.2C44.1,33.5,44,33.5,43.9,33.5z M32.5,35c-0.2,0-0.3,0-0.5,0.1
	c-0.5,0.3-0.6,0.9-0.4,1.4c0,0,0,0,0,0c0.3,0.5,0.9,0.6,1.4,0.4c0,0,0,0,0,0c0.5-0.3,0.6-0.9,0.4-1.4C33.2,35.2,32.8,35,32.5,35z
	 M47.5,35c-0.3,0-0.6,0.2-0.8,0.5c-0.3,0.5-0.1,1.1,0.4,1.4c0,0,0,0,0,0c0.5,0.3,1.1,0.1,1.4-0.4c0.3-0.5,0.1-1.1-0.4-1.4
	C47.8,35,47.6,35,47.5,35z M29.4,37.4c-0.3,0-0.5,0.1-0.7,0.3c-0.4,0.4-0.4,1,0,1.4c0.4,0.4,1,0.4,1.4,0c0.4-0.4,0.4-1,0-1.4
	C29.9,37.5,29.7,37.4,29.4,37.4z M50.6,37.4c-0.3,0-0.5,0.1-0.7,0.3c-0.4,0.4-0.4,1,0,1.4c0.4,0.4,1,0.4,1.4,0c0.4-0.4,0.4-1,0-1.4
	C51.1,37.5,50.9,37.4,50.6,37.4z M53,40.5c-0.2,0-0.3,0-0.5,0.1c-0.5,0.3-0.6,0.9-0.4,1.4c0,0,0,0,0,0c0.3,0.5,0.9,0.6,1.4,0.4
	c0.5-0.3,0.6-0.9,0.4-1.4C53.7,40.7,53.3,40.5,53,40.5z M27,40.5c-0.3,0-0.6,0.2-0.8,0.5c-0.3,0.5-0.1,1.1,0.4,1.4c0,0,0,0,0,0
	c0.5,0.3,1.1,0.1,1.4-0.4c0.3-0.5,0.1-1.1-0.4-1.4C27.3,40.5,27.2,40.5,27,40.5z M25.5,44.1c-0.4,0-0.8,0.3-1,0.7
	c-0.1,0.5,0.2,1.1,0.7,1.2c0.5,0.1,1.1-0.2,1.2-0.7c0.1-0.5-0.2-1.1-0.7-1.2C25.7,44.1,25.6,44.1,25.5,44.1z M54.5,44.1
	c-0.1,0-0.2,0-0.3,0c-0.5,0.1-0.8,0.7-0.7,1.2c0.1,0.5,0.7,0.9,1.2,0.7c0,0,0,0,0,0c0.5-0.1,0.9-0.7,0.7-1.2c0,0,0,0,0,0
	C55.3,44.4,55,44.1,54.5,44.1z M25,48c-0.6,0-1,0.4-1,1s0.4,1,1,1s1-0.4,1-1S25.6,48,25,48z M55,48c-0.6,0-1,0.4-1,1s0.4,1,1,1
	s1-0.4,1-1S55.6,48,55,48z M25.5,51.9c-0.1,0-0.2,0-0.3,0c-0.5,0.1-0.8,0.7-0.7,1.2c0.1,0.5,0.7,0.8,1.2,0.7
	c0.5-0.1,0.8-0.7,0.7-1.2C26.4,52.2,26,51.9,25.5,51.9z M54.5,51.9c-0.4,0-0.8,0.3-1,0.7c-0.1,0.5,0.2,1.1,0.7,1.2
	c0.5,0.1,1.1-0.2,1.2-0.7c0.1-0.5-0.2-1.1-0.7-1.2C54.7,51.9,54.6,51.9,54.5,51.9z M27,55.5c-0.2,0-0.3,0.1-0.5,0.1
	c-0.5,0.3-0.6,0.9-0.4,1.4c0.3,0.5,0.9,0.6,1.4,0.4c0.5-0.3,0.6-0.9,0.4-1.4c0,0,0,0,0,0C27.7,55.7,27.4,55.5,27,55.5z M52.9,55.5
	c-0.3,0-0.6,0.2-0.8,0.5c-0.3,0.5-0.1,1.1,0.4,1.4c0.5,0.3,1.1,0.1,1.4-0.4c0.3-0.5,0.1-1.1-0.4-1.4c0,0,0,0,0,0
	C53.3,55.5,53.1,55.5,52.9,55.5z M50.6,58.6c-0.3,0-0.5,0.1-0.7,0.3c-0.4,0.4-0.4,1,0,1.4c0.4,0.4,1,0.4,1.4,0c0.4-0.4,0.4-1,0-1.4
	C51.1,58.7,50.9,58.6,50.6,58.6z M29.4,58.6c-0.3,0-0.5,0.1-0.7,0.3c-0.4,0.4-0.4,1,0,1.4c0.4,0.4,1,0.4,1.4,0c0.4-0.4,0.4-1,0-1.4
	C29.9,58.7,29.7,58.6,29.4,58.6z M47.5,61c-0.2,0-0.3,0.1-0.5,0.1c-0.5,0.3-0.6,0.9-0.4,1.4c0.3,0.5,0.9,0.6,1.4,0.4
	c0.5-0.3,0.6-0.9,0.4-1.4C48.2,61.2,47.8,61,47.5,61z M32.5,61c-0.3,0-0.6,0.2-0.8,0.5c-0.3,0.5-0.1,1.1,0.4,1.4c0,0,0,0,0,0
	c0.5,0.3,1.1,0.1,1.4-0.4c0,0,0,0,0,0c0.3-0.5,0.1-1.1-0.4-1.4C32.8,61,32.6,61,32.5,61z M36.1,62.5c-0.4,0-0.8,0.3-1,0.7
	c-0.1,0.5,0.2,1.1,0.7,1.2c0.5,0.1,1.1-0.2,1.2-0.7c0.1-0.5-0.2-1.1-0.7-1.2C36.3,62.5,36.2,62.5,36.1,62.5z M43.9,62.5
	c-0.1,0-0.2,0-0.3,0c-0.5,0.1-0.8,0.7-0.7,1.2c0.1,0.5,0.7,0.9,1.2,0.7c0,0,0,0,0,0c0.5-0.1,0.9-0.7,0.7-1.2c0,0,0,0,0,0
	C44.7,62.8,44.4,62.5,43.9,62.5z M40,63c-0.6,0-1,0.4-1,1s0.4,1,1,1s1-0.4,1-1S40.6,63,40,63z M40,40.5l2.4,4.9l5.4,0.8L43.9,50
	l0.9,5.4L40,52.9l-4.8,2.5l0.9-5.4l-3.9-3.8l5.4-0.8L40,40.5z"/>
</svg>
