<?xml version="1.0" encoding="utf-8"?>
<!-- Generator: Adobe Illustrator 21.0.2, SVG Export Plug-In . SVG Version: 6.00 Build 0)  -->
<svg version="1.1" id="Calque_1" xmlns="http://www.w3.org/2000/svg" xmlns:xlink="http://www.w3.org/1999/xlink" x="0px" y="0px"
	 viewBox="0 0 64 64" style="enable-background:new 0 0 64 64;" xml:space="preserve">
<style type="text/css">
	.st0{fill:#103144;}
</style>
<path class="st0" d="M8.9,6C8.1,6,7.4,6.3,6.8,6.9C6.3,7.4,6,8.2,6,9v29.5c0,0.2,0,0.3-0.1,0.5L0.5,49.7C0.2,50.4,0,51.2,0,51.9V55
	c0,1.7,1.3,3,3,3h58c1.7,0,3-1.3,3-3v-3.1c0-0.8-0.2-1.5-0.5-2.2L58.1,39C58,38.8,58,38.7,58,38.5V9c0-1.7-1.3-3-3-3H8.9z M8.9,8H55
	c0.6,0,1,0.4,1,1v29.5c0,0.5,0.1,0.9,0.3,1.3L61.4,50H2.6l5-10H45c0.6,0,1-0.4,1-1s-0.4-1-1-1H8V9c0-0.3,0-0.5,0.2-0.7S8.7,8,8.9,8z
	 M49,38c-0.6,0-1,0.4-1,1s0.4,1,1,1h4c0.6,0,1-0.4,1-1s-0.4-1-1-1H49z M10,42c-0.6,0-1,0.4-1,1s0.4,1,1,1h2c0.6,0,1-0.4,1-1
	s-0.4-1-1-1H10z M16,42c-0.6,0-1,0.4-1,1s0.4,1,1,1h2c0.6,0,1-0.4,1-1s-0.4-1-1-1H16z M22,42c-0.6,0-1,0.4-1,1s0.4,1,1,1h2
	c0.6,0,1-0.4,1-1s-0.4-1-1-1H22z M28,42c-0.6,0-1,0.4-1,1s0.4,1,1,1h2c0.6,0,1-0.4,1-1s-0.4-1-1-1H28z M34,42c-0.6,0-1,0.4-1,1
	s0.4,1,1,1h2c0.6,0,1-0.4,1-1s-0.4-1-1-1H34z M40,42c-0.6,0-1,0.4-1,1s0.4,1,1,1h2c0.6,0,1-0.4,1-1s-0.4-1-1-1H40z M46,42
	c-0.6,0-1,0.4-1,1s0.4,1,1,1h2c0.6,0,1-0.4,1-1s-0.4-1-1-1H46z M52,42c-0.6,0-1,0.4-1,1s0.4,1,1,1h2c0.6,0,1-0.4,1-1s-0.4-1-1-1H52z
	 M13,46c-0.6,0-1,0.4-1,1s0.4,1,1,1h2c0.6,0,1-0.4,1-1s-0.4-1-1-1H13z M19,46c-0.6,0-1,0.4-1,1s0.4,1,1,1h2c0.6,0,1-0.4,1-1
	s-0.4-1-1-1H19z M25,46c-0.6,0-1,0.4-1,1s0.4,1,1,1h14c0.6,0,1-0.4,1-1s-0.4-1-1-1H25z M43,46c-0.6,0-1,0.4-1,1s0.4,1,1,1h2
	c0.6,0,1-0.4,1-1s-0.4-1-1-1H43z M49,46c-0.6,0-1,0.4-1,1s0.4,1,1,1h2c0.6,0,1-0.4,1-1s-0.4-1-1-1H49z M2,52h60v3c0,0.6-0.4,1-1,1H3
	c-0.6,0-1-0.4-1-1V52z M13.2,21.3l-1.5-3.5h-1l1.9,4.4h1l1.9-4.4h-1L13.2,21.3z M16.3,22.3h0.9v-4.4h-0.9V22.3z M21.1,19.8
	c-0.2-0.1-0.5-0.1-0.9-0.1s-0.8,0-1-0.1c-0.2,0-0.3-0.1-0.4-0.2s-0.1-0.2-0.1-0.3c0-0.1,0-0.3,0.1-0.3c0-0.1,0.1-0.1,0.3-0.1
	c0.2,0,0.4-0.1,0.8-0.1c0.3,0,0.5,0,0.6,0s0.2,0.1,0.3,0.1c0.1,0,0.1,0.1,0.1,0.1c0,0.1,0,0.2,0,0.3v0.2h0.9V19
	c0-0.3-0.1-0.6-0.2-0.8c-0.2-0.2-0.4-0.3-0.7-0.4c-0.3-0.1-0.6-0.1-1-0.1c-0.3,0-0.6,0-0.9,0.1c-0.2,0-0.5,0.1-0.6,0.2
	c-0.2,0.1-0.3,0.2-0.4,0.4c-0.1,0.2-0.1,0.4-0.1,0.6c0,0.3,0,0.5,0.1,0.6c0.1,0.2,0.2,0.3,0.4,0.4c0.2,0.1,0.4,0.2,0.6,0.2
	s0.5,0.1,0.8,0.1c0.4,0,0.6,0,0.8,0.1c0.1,0,0.2,0.1,0.3,0.1c0,0,0.1,0.1,0.1,0.3c0,0.1,0,0.2,0,0.3c0,0.1-0.1,0.1-0.1,0.1
	s-0.1,0.1-0.3,0.1c-0.2,0-0.4,0-0.7,0c-0.3,0-0.6,0-0.7,0c-0.2,0-0.3-0.1-0.3-0.1c-0.1,0-0.1-0.1-0.1-0.2s0-0.2,0-0.4v-0.2h-0.9V21
	c0,0.4,0.1,0.7,0.3,0.9c0.2,0.2,0.4,0.3,0.7,0.4c0.3,0,0.6,0.1,1.1,0.1c0.4,0,0.7,0,0.9-0.1c0.3,0,0.5-0.1,0.6-0.2
	c0.2-0.1,0.3-0.3,0.4-0.4C22,21.5,22,21.3,22,21s-0.1-0.6-0.2-0.8C21.5,20,21.3,19.8,21.1,19.8z M22.6,22.3h0.9v-4.4h-0.9V22.3z
	 M27.5,18c-0.2-0.1-0.5-0.1-0.8-0.1h-2.5v4.4H25v-1.6h1.3c0.4,0,0.8,0,1-0.1c0.3-0.1,0.5-0.3,0.6-0.5s0.2-0.5,0.2-0.9
	c0-0.3-0.1-0.6-0.2-0.8C27.9,18.2,27.7,18.1,27.5,18z M27.2,19.3c0,0.2,0,0.3-0.1,0.4s-0.2,0.1-0.3,0.2c-0.2,0-0.4,0.1-0.7,0.1H25
	v-1.3h1.6c0.3,0,0.4,0,0.5,0.1c0.1,0,0.1,0.1,0.2,0.2C27.2,18.9,27.2,19.1,27.2,19.3z M29.7,17.8h-0.9v4.4h3.4v-0.8h-2.5V17.8z
	 M36.2,20.9c0,0.3,0,0.4-0.1,0.5c0,0.1-0.1,0.1-0.3,0.2c-0.2,0-0.5,0.1-0.9,0.1s-0.7,0-0.9-0.1c-0.1,0-0.2-0.1-0.3-0.2
	c0-0.1-0.1-0.2-0.1-0.5v-3h-0.9V21c0,0.3,0,0.6,0.1,0.8c0.1,0.2,0.3,0.4,0.4,0.5c0.2,0.1,0.4,0.1,0.6,0.2c0.2,0,0.5,0,0.9,0
	c0.5,0,0.9,0,1.2-0.1s0.5-0.2,0.7-0.4c0.2-0.2,0.3-0.5,0.3-1v-3.1H36v3H36.2z M41.6,20.2c-0.1-0.2-0.3-0.3-0.6-0.4
	c-0.2-0.1-0.5-0.1-0.9-0.1s-0.8,0-1-0.1c-0.2,0-0.3-0.1-0.4-0.2c-0.1-0.1-0.1-0.2-0.1-0.3c0-0.1,0-0.3,0.1-0.3
	c0-0.1,0.1-0.1,0.3-0.1s0.4-0.1,0.8-0.1c0.3,0,0.5,0,0.6,0s0.2,0.1,0.3,0.1s0.1,0.1,0.1,0.1c0,0.1,0,0.2,0,0.3v0.2h0.9V19
	c0-0.3-0.1-0.6-0.2-0.8c-0.2-0.2-0.4-0.3-0.7-0.4s-0.6-0.1-1-0.1c-0.3,0-0.6,0-0.9,0.1c-0.2,0-0.5,0.1-0.6,0.2
	c-0.2,0.1-0.3,0.2-0.4,0.4c-0.1,0.2-0.1,0.4-0.1,0.6c0,0.3,0,0.5,0.1,0.6c0.1,0.2,0.2,0.3,0.4,0.4s0.4,0.2,0.6,0.2
	c0.2,0,0.5,0.1,0.8,0.1c0.4,0,0.6,0,0.8,0.1c0.1,0,0.2,0.1,0.3,0.1c0,0,0.1,0.1,0.1,0.3c0,0.1,0,0.2,0,0.3c0,0.1-0.1,0.1-0.1,0.1
	s-0.1,0.1-0.3,0.1s-0.4,0-0.7,0s-0.6,0-0.7,0c-0.2,0-0.3-0.1-0.3-0.1c-0.1,0-0.1-0.1-0.1-0.2s0-0.2,0-0.4v-0.2h-0.9V21
	c0,0.4,0.1,0.7,0.3,0.9c0.2,0.2,0.4,0.3,0.7,0.4c0.3,0,0.6,0.1,1.1,0.1c0.4,0,0.7,0,0.9-0.1c0.3,0,0.5-0.1,0.6-0.2
	c0.2-0.1,0.3-0.3,0.4-0.4c0.1-0.2,0.1-0.4,0.1-0.7C41.8,20.6,41.7,20.3,41.6,20.2z M11.2,26.6c0-0.9,0.6-1.3,1.7-1.3
	c0.4,0,0.7,0,1.1,0.1V25c0-0.5-0.4-0.8-1.1-0.8c-0.4,0-0.9,0.1-1.3,0.2v-0.6c0.4-0.1,0.9-0.2,1.3-0.2c1.2,0,1.8,0.5,1.8,1.4v3h-0.4
	L14,27.5c-0.4,0.3-0.9,0.4-1.3,0.4C11.7,27.9,11.2,27.5,11.2,26.6z M12.9,25.9c-0.6,0-0.9,0.2-0.9,0.7s0.2,0.7,0.7,0.7
	s0.9-0.1,1.3-0.4V26C13.6,25.9,13.2,25.9,12.9,25.9z M18.6,27.8c-0.3,0.1-0.7,0.1-1.1,0.1c-1.5,0-2.2-0.8-2.2-2.3
	c0-1.4,0.7-2.1,2.2-2.1c0.4,0,0.8,0,1.1,0.1v0.6c-0.3-0.1-0.7-0.1-1.1-0.1c-1,0-1.4,0.5-1.4,1.5c0,1.1,0.5,1.6,1.4,1.6
	c0.4,0,0.8,0,1.1-0.1V27.8z M18.9,26.6c0-0.9,0.6-1.3,1.7-1.3c0.4,0,0.7,0,1.1,0.1V25c0-0.5-0.4-0.8-1.1-0.8c-0.4,0-0.9,0.1-1.3,0.2
	v-0.6c0.4-0.1,0.9-0.2,1.3-0.2c1.2,0,1.8,0.5,1.8,1.4v3H22l-0.3-0.4c-0.4,0.3-0.9,0.4-1.3,0.4C19.4,27.9,18.9,27.5,18.9,26.6z
	 M20.6,25.9c-0.6,0-0.9,0.2-0.9,0.7s0.2,0.7,0.7,0.7s0.9-0.1,1.3-0.4V26C21.3,25.9,20.9,25.9,20.6,25.9z M26.6,27.6
	c-0.5,0.2-1.1,0.3-1.9,0.3c-1.2,0-1.8-0.8-1.8-2.3c0-1.4,0.7-2.1,2-2.1c0.4,0,0.7,0.1,1,0.2V22h0.7C26.6,22,26.6,27.6,26.6,27.6z
	 M25.9,24.4c-0.3-0.1-0.6-0.2-1-0.2c-0.8,0-1.2,0.5-1.2,1.4c0,1.1,0.4,1.7,1.2,1.7c0.4,0,0.7-0.1,1-0.2V24.4z M29.1,23.5
	c1.2,0,1.8,0.6,1.8,1.8c0,0.2,0,0.4,0,0.6H28c0,0.9,0.5,1.3,1.5,1.3c0.5,0,0.9-0.1,1.3-0.2v0.6c-0.4,0.1-0.8,0.2-1.3,0.2
	c-1.4,0-2.1-0.7-2.1-2.2C27.2,24.2,27.9,23.5,29.1,23.5z M28,25.3h2.2c0-0.8-0.4-1.1-1.1-1.1C28.4,24.2,28,24.5,28,25.3z M31.5,27.9
	v-4.4H32l0.1,0.5c0.4-0.4,0.8-0.5,1.3-0.5c0.6,0,1,0.2,1.2,0.6c0.4-0.4,0.9-0.6,1.4-0.6c0.9,0,1.4,0.6,1.4,1.7v2.7h-0.7v-2.8
	c0-0.7-0.3-1-0.8-1c-0.4,0-0.8,0.2-1.1,0.6v3.2h-0.7v-2.7c0-0.7-0.3-1-0.8-1c-0.4,0-0.8,0.2-1.1,0.6V28h-0.7
	C31.5,28,31.5,27.9,31.5,27.9z M37.7,23.5h0.8l1.2,3.4l1.2-3.4h0.8L39.9,28c-0.3,0.8-0.8,1.3-1.4,1.5L38.2,29c0.5-0.2,0.8-0.6,1-1
	L37.7,23.5z M53.3,21.5c-0.3-0.4-0.5-0.8-0.9-1.1c-0.4-0.3-0.8-0.7-1.2-1C50,18.9,48.3,18.8,47,19c-0.4,0.1-0.8,0.2-1.1,0.3
	c-0.1,0-0.2,0.1-0.3,0.1c-0.5,0.3-0.9,0.6-1.1,1.1c-0.1,0.2-0.2,0.4-0.2,0.6c0,0.1,0,0.1,0,0.1v0.2c0.2-0.2,0.3-0.3,0.4-0.3
	c0.8-0.9,1.8-1.4,2.9-1.6c0.9-0.1,2-0.1,3,0.2c0.3,0.1,0.5,0.3,0.8,0.4c0.1,0.1,0.3,0.1,0.4,0.3c0.2,0.2-0.1,0.3-0.2,0.2
	c-0.1,0-0.5-0.2-0.9-0.3C49.9,20.1,49.5,20,49,20c-0.7,0-1.3,0-1.9,0.2c-0.8,0.2-1.5,0.7-2.2,1.2c-0.4,0.3-0.8,0.8-0.9,1.3
	c-0.1,0.4-0.1,1,0,1.4c0,0.2,0.1,0.4,0.2,0.6c0,0.1,0.1,0.2,0.1,0.3c0,0.1,0,0.1,0.1,0.2v-0.1c0-0.1,0-0.1,0-0.2s0-0.2,0-0.3
	c0-0.7,0.1-1.2,0.5-1.9c0.2-0.3,0.4-0.6,0.7-0.8c0.9-0.8,2.3-1.3,3.6-1.2c1,0.1,2,0.4,2.9,0.9c1.3,0.8,1.8,2,1.9,3.4
	c0.1-0.1,0.2-0.4,0.3-0.7c0.1-0.6,0.1-1.1-0.1-1.6C53.9,22.3,53.6,21.9,53.3,21.5z M49.1,17.7c-1.3,0-2.5,0.5-3.5,1.3
	c0.4-0.2,0.7-0.3,1.2-0.4c1.4-0.3,2.5-0.3,3.4-0.1c0.7,0.2,1.3,0.5,1.8,0.9c0.3,0.2,0.5,0.4,0.9,0.7c0.2,0.2,0.3,0.5,0.5,0.7
	c0.3,0.4,0.4,0.7,0.6,0.8c0.1,0.1,0.2,0.2,0.2,0.3C53.8,19.6,51.6,17.7,49.1,17.7z M53.1,26.1c0.1-0.3,0.2-0.7,0.2-1
	c0-0.2,0-0.5-0.1-0.8c-0.1-0.2-0.1-0.4-0.2-0.6c-0.2-0.3-0.3-0.6-0.6-0.9c-0.3-0.4-0.9-0.9-1.2-1.1c-1-0.4-2.1-0.7-3.2-0.4
	c-0.7,0.1-1.3,0.4-1.8,0.8s-0.8,0.8-1,1.3c-0.2,0.4-0.2,0.9-0.3,1.3c0,0.3,0,0.4,0,0.6c0,0.1,0,0.4,0.1,0.5c0.1,0.4,0.4,0.7,0.7,1
	l0.1,0.1l0.1,0.1v-0.1c-0.1-0.2-0.1-0.5-0.1-0.8s-0.1-0.5,0-0.8c0-0.3,0-0.7,0.1-1s0.2-0.6,0.3-0.9c0.1-0.2,0.2-0.3,0.3-0.5
	c0.5-0.8,1.4-1.1,2.4-1.1c0.4,0,0.9,0,1.4,0.1c0.3,0.1,0.7,0.2,0.9,0.4c0.3,0.2,0.6,0.5,0.8,0.8c0.3,0.4,0.9,1.7,0.5,3
	c-0.1,0.3-0.2,0.5-0.4,0.8c-0.2,0.2-0.5,0.4-0.7,0.6c-0.2,0.1-0.3,0.2-0.5,0.2c-0.2,0.1-0.5,0.1-0.7,0c-0.7-0.1-1.3-0.9-1.6-1.5
	c-0.3-0.7-0.2-1.7,0.4-2.3c0.1-0.1,0.2-0.2,0.1-0.3c-0.1-0.2-0.4-0.2-0.6-0.1c-0.3,0.2-0.5,0.6-0.6,0.9s-0.2,0.6-0.2,0.9
	s0.1,0.6,0.1,0.9c0.2,0.6,0.5,1.1,0.8,1.5c0.2,0.3,0.4,0.5,0.7,0.6c0.1,0,0.2,0,0.3,0c0.2,0,0.5-0.1,0.7-0.1c0.1,0,0.2-0.1,0.4-0.1
	c0.4-0.1,0.8-0.3,1.2-0.6c0.2-0.1,0.4-0.3,0.6-0.4C52.8,26.7,53,26.5,53.1,26.1L53.1,26.1z M47.1,26c-0.1-0.6-0.1-1.2,0.2-1.7
	c0.2-0.4,0.5-0.8,0.9-1.1c0.3-0.3,0.6-0.3,1-0.3s0.8,0,1.2,0.2c0.3,0.2,0.6,0.4,0.8,0.7c0.2,0.3,0.4,0.8,0.5,1.1
	c0,0.4,0,0.8-0.2,1.1c-0.1,0.4-0.5,0.5-1,0.4c-0.3-0.1-0.6-0.2-0.7-0.5c-0.1-0.4-0.2-1,0-1.3c0.2-0.2,0.5,0,0.5,0.2
	c0,0.1-0.1,0.2-0.1,0.3c-0.1,0.3,0.2,0.3,0.4,0.4c0.2,0,0.4,0.1,0.4-0.1c0.2-0.5,0-1.2-0.5-1.7c-0.2-0.2-0.4-0.3-0.6-0.2
	c-0.3,0-0.5,0.3-0.6,0.4c-0.3,0.5-0.4,1.4-0.2,2c0.2,0.5,0.7,1,1.2,1.1c0.4,0.1,0.9,0,1.3-0.3c0.2-0.2,0.5-0.5,0.6-0.8
	c0.3-1.1-0.4-2.4-0.6-2.7c-0.4-0.6-1-0.8-1.7-0.9c-0.3-0.1-0.7-0.1-0.9-0.1c-0.7,0.1-1.5,0.3-1.9,0.9c-0.2,0.2-0.3,0.5-0.4,0.7
	c-0.4,0.7-0.5,1.6-0.4,2.3c0.1,0.4,0.2,0.5,0.3,0.8c0,0.1,0.2,0.4,0.3,0.5c0.1,0.2,0.2,0.2,0.4,0.3c0.2,0.1,0.4,0.2,0.6,0.2
	c0.2,0,0.4,0.1,0.6,0.1h0.1c0-0.1-0.1-0.1-0.1-0.1c0-0.1-0.1-0.1-0.1-0.2c-0.1-0.1-0.2-0.2-0.3-0.3c-0.1-0.1-0.2-0.2-0.2-0.2
	c-0.1-0.2-0.2-0.3-0.3-0.5c-0.1-0.1-0.1-0.2-0.2-0.4C47.2,26.3,47.1,26.2,47.1,26z"/>
</svg>
