

<svg version="1.1"  xmlns="http://www.w3.org/2000/svg" xmlns:xlink="http://www.w3.org/1999/xlink" x="0px" y="0px"
	 viewBox="0 0 80 80" style="enable-background:new 0 0 80 80;" xml:space="preserve">
<style type="text/css">
	.st0{fill:#103144;}
</style>
<path class="st0" d="M26.5,7.7l-0.9,0.4c0,0-4.5,2-6,6.4c-1.3,3.7-0.1,7.4,0.4,8.5c-0.2,0.4-0.7,1.3-1.4,2.9
	c-1.4-4.3-5.8-6.7-5.8-6.7l-0.9-0.5l-0.5,0.9c0,0-2.3,4.3-0.9,8.6c1.3,4,5,6.2,5.6,6.6C16,35.4,16,35.9,16,36.3c0,0,0,0.1,0,0.1
	c0,0.6,0,1.2,0.1,1.8C13.2,35.5,9.2,35,9.2,35l-1-0.1l-0.1,1c0,0-0.6,4.7,2.1,8.1c2.8,3.5,7.6,4.1,7.6,4.1l1,0.1l0-0.1
	c0.4,0.7,0.8,1.4,1.3,2.1c-1-0.3-2.1-0.3-3-0.3c-3.1,0.1-5.5,1.5-5.5,1.5l-0.9,0.5l0.5,0.9c0,0,2.2,4.2,6.6,5.5
	c4.3,1.2,8.7-1.1,8.7-1.1c0.6,0.5,1.2,1,1.8,1.4c0.2,0.1,0.3,0.3,0.5,0.4c-0.3,0-0.6,0-0.9,0c-4.3,0.1-7.6,3.5-7.6,3.5l-0.7,0.7
	l0.7,0.7c0,0,3.2,3.2,7.5,3.1c4-0.1,7-2.9,7.4-3.3c1.1,0.8,2.2,1.6,3.2,2.4c-1.4,1.4-2.6,2.8-3.3,4.5c-0.2,0.5,0,1.1,0.5,1.3
	s1.1,0,1.3-0.5c0.6-1.4,1.7-2.7,3.1-4c1.4,1.3,2.5,2.6,3.1,4c0.2,0.5,0.8,0.7,1.3,0.5s0.7-0.8,0.5-1.3c-0.7-1.7-1.9-3.1-3.3-4.5
	c1-0.8,2-1.6,3.2-2.4c0.4,0.4,3.4,3.2,7.4,3.3c4.3,0.1,7.5-3.1,7.5-3.1l0.7-0.7l-0.7-0.7c0,0-3.3-3.4-7.6-3.5c-0.3,0-0.6,0-0.9,0
	c0.2-0.1,0.4-0.3,0.5-0.4c0.6-0.5,1.2-0.9,1.8-1.4c0.1,0,4.4,2.3,8.7,1.1c4.4-1.2,6.6-5.5,6.6-5.5l0.5-0.9l-0.9-0.5
	c0,0-2.5-1.3-5.5-1.5c-1,0-2,0-3,0.3c0,0,0,0,0,0c0.4-0.7,0.9-1.3,1.3-2.1l0,0.1l1-0.1c0,0,4.8-0.6,7.6-4.1c2.8-3.5,2.1-8.1,2.1-8.1
	l-0.1-1l-1,0.1c0,0-4,0.5-6.9,3.3c0-0.6,0.1-1.2,0.1-1.8c0-0.4,0-1.1-0.1-1.8c0.6-0.3,4.3-2.5,5.6-6.6c1.4-4.4-0.9-8.6-0.9-8.6
	l-0.5-0.9l-0.9,0.5c0,0-4.4,2.3-5.8,6.7c-0.7-1.6-1.2-2.5-1.4-2.9c0.4-1.1,1.7-4.8,0.4-8.5c-1.5-4.4-6-6.4-6-6.4l-0.9-0.4l-0.4,0.9
	c0,0-2.1,4.6-0.6,9c1.4,3.9,5,5.8,5.7,6.2c0.2,0.3,0.9,1.7,1.7,3.6c-2.7-1.9-5.7-2.3-5.7-2.3l-1-0.1l-0.1,1c0,0-0.6,4.7,2.1,8.1
	c2.1,2.6,5.2,3.6,6.8,3.9c-0.1,2.3-0.5,4.3-1.2,6.2c-0.7-3.3-3.1-5.6-3.1-5.6L57,37.9l-0.7,0.7c0,0-3.3,3.2-3.3,7.4
	c0,3,1.6,5.4,2.6,6.6c-1.2,1.3-2.5,2.4-3.9,3.5c0.9-3.3-0.4-6.5-0.4-6.5l-0.4-1L50,49.1c0,0-4.2,1.6-6,5.4c-1.4,3.1-0.6,6.3-0.3,7.4
	c-1.3,0.9-2.6,1.9-3.7,2.8c-1.2-1-2.4-1.9-3.7-2.8c0.3-1.1,1.2-4.3-0.3-7.4c-1.8-3.8-6-5.4-6-5.4L29,48.7l-0.4,1
	c0,0-1.3,3.2-0.4,6.5c-1.4-1.1-2.7-2.3-3.9-3.5c1-1.2,2.6-3.6,2.6-6.6c0-4.2-3.3-7.4-3.3-7.4L23,37.9l-0.7,0.7c0,0-2.4,2.3-3.1,5.6
	c-0.6-1.9-1-3.9-1.2-6.2c1.5-0.3,4.7-1.3,6.8-3.9c2.8-3.5,2.1-8.1,2.1-8.1l-0.1-1l-1,0.1c0,0-3.1,0.4-5.7,2.3c0.8-2,1.5-3.3,1.6-3.6
	c0.7-0.4,4.3-2.3,5.7-6.2c1.5-4.4-0.6-9-0.6-9L26.5,7.7z M25.4,10.6c0.4,1.3,1.1,3.7,0.2,6.3c-0.9,2.5-2.8,3.9-4,4.5
	c-0.4-1.3-1.1-3.7-0.2-6.3C22.3,12.6,24.3,11.2,25.4,10.6z M54.6,10.6c1.1,0.7,3.1,2,4,4.5c0.9,2.6,0.2,5-0.2,6.3
	c-1.1-0.7-3.1-2-4-4.5C53.5,14.3,54.2,11.8,54.6,10.6z M16,15c-0.6,0-1,0.4-1,1c0,0.6,0.4,1,1,1c0.6,0,1-0.4,1-1
	C17,15.4,16.6,15,16,15z M64,15c-0.6,0-1,0.4-1,1c0,0.6,0.4,1,1,1s1-0.4,1-1C65,15.4,64.6,15,64,15z M30,20c-0.6,0-1,0.4-1,1
	s0.4,1,1,1s1-0.4,1-1S30.6,20,30,20z M50,20c-0.6,0-1,0.4-1,1s0.4,1,1,1s1-0.4,1-1S50.6,20,50,20z M12.7,21.6
	c1.1,0.8,3.1,2.3,3.9,4.8c0.8,2.5,0.1,4.7-0.4,5.9c-1.1-0.8-3.1-2.3-3.9-4.8C11.5,25,12.2,22.8,12.7,21.6z M67.3,21.6
	c0.5,1.2,1.2,3.4,0.4,5.9v0c-0.8,2.6-2.8,4.1-3.9,4.8c-0.5-1.2-1.2-3.4-0.4-5.9C64.2,23.9,66.2,22.4,67.3,21.6z M24.9,27.3
	c0,1.3-0.1,3.5-1.7,5.4c-1.6,2-3.9,2.7-5.2,3c0-1.3,0.1-3.5,1.7-5.4C21.4,28.4,23.7,27.7,24.9,27.3z M55.1,27.3c1.3,0.3,3.6,1,5.2,3
	c1,1.2,1.4,2.6,1.6,3.7c0,0,0,0,0,0c0.1,0.7,0.1,1.3,0.1,1.7c-1.3-0.3-3.6-1-5.2-3C55.2,30.8,55.1,28.6,55.1,27.3z M9,30
	c-0.6,0-1,0.4-1,1s0.4,1,1,1s1-0.4,1-1S9.6,30,9,30z M71,30c-0.6,0-1,0.4-1,1s0.4,1,1,1s1-0.4,1-1S71.6,30,71,30z M27,35
	c-0.6,0-1,0.4-1,1s0.4,1,1,1s1-0.4,1-1S27.6,35,27,35z M53,35c-0.6,0-1,0.4-1,1s0.4,1,1,1s1-0.4,1-1S53.6,35,53,35z M10.1,37.3
	c1.3,0.3,3.6,1,5.2,3c1.6,2,1.7,4.2,1.7,5.4c-1.3-0.3-3.6-1-5.2-3C10.2,40.8,10.1,38.6,10.1,37.3z M69.9,37.3c0,1.3-0.1,3.5-1.7,5.4
	c-1.6,2-3.9,2.7-5.2,3c0-1.3,0.1-3.5,1.7-5.4C66.4,38.4,68.7,37.7,69.9,37.3z M23,40.9c0.8,1,2,2.7,2,5.1c0,2.3-1.2,4-2,5
	c-0.3-0.4-0.6-0.7-0.8-1.1c-0.6-1-1.2-2.3-1.2-3.9C21,43.7,22.2,41.9,23,40.9z M57,40.9c0.8,1,2,2.7,2,5.1c0,1.6-0.6,2.9-1.2,3.9
	c-0.3,0.4-0.5,0.7-0.8,1.1c-0.8-1-2-2.7-2-5C55,43.7,56.2,41.9,57,40.9z M31,44c-0.6,0-1,0.4-1,1s0.4,1,1,1s1-0.4,1-1S31.6,44,31,44
	z M49,44c-0.6,0-1,0.4-1,1s0.4,1,1,1s1-0.4,1-1S49.6,44,49,44z M10,47c-0.6,0-1,0.4-1,1s0.4,1,1,1s1-0.4,1-1S10.6,47,10,47z M70,47
	c-0.6,0-1,0.4-1,1s0.4,1,1,1s1-0.4,1-1S70.6,47,70,47z M30.3,51.5c1.1,0.6,2.9,1.7,3.9,3.8c0.9,2,0.6,4,0.3,5.1
	c-1.1-0.6-2.9-1.7-3.9-3.8C29.7,54.6,30,52.7,30.3,51.5z M49.7,51.5c0.3,1.2,0.6,3.1-0.3,5.1c-1,2.1-2.8,3.2-3.9,3.8
	c-0.3-1.2-0.6-3.1,0.3-5.1C46.8,53.3,48.6,52.1,49.7,51.5z M17.2,52c0.8,0,1.7,0,2.6,0.2c2.5,0.7,3.9,2.5,4.7,3.5
	c-1.2,0.5-3.6,1.3-6.1,0.6c-2.5-0.7-3.9-2.5-4.7-3.5C14.4,52.5,15.5,52.1,17.2,52z M62.8,52c1.7,0.1,2.7,0.5,3.6,0.8
	c-0.7,1.1-2.2,2.8-4.7,3.5c-2.5,0.7-4.9-0.1-6.1-0.6c0.7-1.1,2.2-2.8,4.7-3.5C61.1,52,62,52,62.8,52z M40,59c-0.6,0-1,0.4-1,1
	s0.4,1,1,1s1-0.4,1-1S40.6,59,40,59z M17,60c-0.6,0-1,0.4-1,1s0.4,1,1,1s1-0.4,1-1S17.6,60,17,60z M63,60c-0.6,0-1,0.4-1,1
	s0.4,1,1,1s1-0.4,1-1S63.6,60,63,60z M27.9,61c2.4-0.1,4.1,1.1,5.1,1.8c-1,0.8-2.8,2.1-5.3,2.2c-2.4,0.1-4.1-1.1-5.1-1.8
	C23.7,62.4,25.5,61.1,27.9,61z M52.1,61c2.4,0.1,4.3,1.4,5.3,2.2c-1,0.7-2.7,1.9-5.1,1.8c-2.4-0.1-4.3-1.4-5.3-2.2
	C48,62.1,49.7,60.9,52.1,61z M34,73c-0.6,0-1,0.4-1,1s0.4,1,1,1s1-0.4,1-1S34.6,73,34,73z M46,73c-0.6,0-1,0.4-1,1s0.4,1,1,1
	s1-0.4,1-1S46.6,73,46,73z"/>
</svg>
