<?xml version="1.0" encoding="utf-8"?>
<!-- Generator: Adobe Illustrator 21.0.2, SVG Export Plug-In . SVG Version: 6.00 Build 0)  -->
<svg version="1.1" id="Calque_1" xmlns="http://www.w3.org/2000/svg" xmlns:xlink="http://www.w3.org/1999/xlink" x="0px" y="0px"
	 viewBox="0 0 64 64" style="enable-background:new 0 0 64 64;" xml:space="preserve">
<style type="text/css">
	.st0{fill:#103144;}
</style>
<path class="st0" d="M21,4.1c-0.3,0-0.6,0-0.9,0.1L1.4,9.8c-0.9,0.3-1.4,1-1.4,1.9v43.9c0,0.6,0.3,1.2,0.8,1.6
	c0.5,0.4,1.2,0.5,1.8,0.3l18.1-5.4c0.2-0.1,0.4-0.1,0.6,0L42,59.7c0.3,0.1,0.7,0.2,1,0.2s0.7-0.1,1-0.2l18.7-6.5
	c0.8-0.3,1.3-1,1.3-1.9V7.4c0-0.6-0.3-1.3-0.8-1.6S62,5.3,61.4,5.5l-18,6.3c-0.2,0.1-0.5,0.1-0.7,0L22,4.3C21.7,4.2,21.3,4.1,21,4.1
	z M21,6.1c0.1,0,0.2,0,0.3,0.1L42,13.7c0.7,0.2,1.4,0.2,2,0l18-6.3v43.9l-18.7,6.5c-0.2,0.1-0.5,0.1-0.7,0L22,50.3
	c-0.3-0.1-0.7-0.2-1-0.2s-0.6,0-0.9,0.1L2,55.7v-44l18.7-5.6C20.8,6.1,20.9,6.1,21,6.1z M21,9.1c-0.2,0-0.4,0-0.6,0.1l-15,4.4
	c-0.8,0.2-1.4,1-1.4,1.9v33.9C4,50,4.3,50.6,4.8,51c0.5,0.4,1.1,0.5,1.8,0.3L21.3,47c0.5-0.2,0.8-0.7,0.7-1.2
	c-0.2-0.5-0.7-0.8-1.2-0.7L6,49.3V15.4L21,11l21.4,7.8c0.4,0.2,0.9,0.2,1.3,0L58,14v33.9l-15.3,5.2c-0.5,0.2-0.8,0.8-0.6,1.3
	c0.1,0.4,0.5,0.7,0.9,0.7c0.1,0,0.2,0,0.3-0.1l15.3-5.2c0.8-0.3,1.4-1,1.4-1.9V14c0-0.6-0.3-1.2-0.8-1.6s-1.2-0.5-1.8-0.3L43,16.9
	L21.6,9.2C21.4,9.1,21.2,9.1,21,9.1z M23,16.7c-0.3,0-0.6,0.1-0.9,0.2c-1,0.5-1.6,0.8-2,1.1c-0.6,0-2.1,0-3.4-0.1
	c-0.4,0-0.8,0.2-0.9,0.6c-0.1,0.2-0.2,0.5-0.3,0.8l0,0c-0.1,0-0.3,0-0.4,0c-0.9,0-1.6,0-1.9,0.7c-0.1,0.2-0.1,0.6,0.1,0.9
	c-0.3-0.1-0.6-0.2-0.9-0.2h-2.3c-0.5,0-1,0.2-1.3,0.5l-1.1,1c-0.7,0.6-0.9,1.7-0.3,2.6c0.3,0.5,0.7,0.8,1.2,0.9s1.1,0,1.5-0.2
	l0.2-0.1l0.7,0.4l0.4,0.4v1.9c0,0.8,0.5,1.6,1.3,1.9l0.7,0.3l0.9,1c0.2,0.2,0.5,0.4,0.8,0.6l2.1,0.8l-0.9,1.4
	c-0.3,0.4-0.4,1-0.2,1.5l0.2,0.9c0.1,0.4,0.3,0.8,0.7,1.1l0.7,0.6l0.6,1.7l-0.4,3.5c0,0.3,0.1,0.6,0.3,0.8c0.2,0.2,0.4,0.3,0.7,0.3
	c0.1,0,0.1,0,0.2,0c0.6-0.1,1.5-0.2,1.9-0.8c0.1,0,0.1-0.1,0.2-0.1c0.5-0.2,0.9-0.7,1-1.2c0.4-1.1,0.5-1.5,0.5-1.7
	c0.1-0.2,0.4-0.7,0.5-0.8l1-1c0.2-0.2,0.4-0.4,0.8-2.3c0-0.1,0.1-0.3,0.1-0.4v-1.4c0-0.5-0.2-1-0.6-1.4l-0.2-0.2
	c-0.4-0.4-0.9-0.6-1.4-0.6h-0.8l-0.7-0.5c0.2-0.2,0.3-0.5,0.2-0.8c-0.1-0.4-0.4-0.7-0.8-0.8l-0.5-0.1l0.4-0.9c0.1-0.2,0.1-0.5,0-0.7
	l1.1-0.5c0.2-0.1,0.4-0.2,0.6-0.4l0.5-0.5c0.6-0.6,0.7-1.4,0.5-2.1c0.1,0,0.2,0,0.2,0l0.8-0.1c0.5-0.1,0.9-0.5,0.9-1v-1
	c0.1-0.1,0.2-0.4,0.5-0.8l0.3-0.2c0.5-0.3,0.9-0.9,0.9-1.5c0.1-0.6-0.1-1.2-0.6-1.6l-0.8-0.8c-0.2-0.2-0.4-0.3-0.6-0.4l-1.2-0.5
	C23.6,16.7,23.3,16.7,23,16.7z M23.1,18.7l1.2,0.5L25,20l-0.3,0.2c-0.2,0.2-0.5,0.4-0.6,0.6c-0.8,1.2-0.8,1.4-0.8,1.7v0.2L22.9,22
	c-0.1-0.3-0.4-0.6-0.7-0.8c-0.4-0.3-0.9-0.2-1.3,0.1l-0.6,0.6c-0.1,0.1-0.1,0.1-0.2,0.2l-0.6,1c0,0.1-0.1,0.1-0.1,0.2
	c-0.3,0.8-0.5,1.5,0,2c0.3,0.3,0.8,0.3,1.1,0.1c0.1-0.1,0.3-0.1,0.4-0.2c0.1,0.1,0.2,0.2,0.3,0.4L20.9,26l-2,0.9
	c-0.2,0.1-0.4,0.3-0.5,0.6c-0.1,0.3-0.1,0.5,0,0.8l0.2,0.4v0.1l-0.3-0.1c-0.2-0.1-0.3-0.1-0.5,0l-2,0.3c-0.2,0-0.3,0.1-0.4,0.2
	L15,28.7c-0.2-0.3-0.5-0.5-0.8-0.6l-0.7-0.2V26c0-0.5-0.2-1-0.6-1.4l-0.4-0.4c-0.1-0.1-0.3-0.2-0.4-0.3l-0.7-0.4
	c-0.3-0.2-0.6-0.3-1-0.3s-0.7,0.1-1.1,0.3L9,23.7l1.1-1h2.3l1.2,0.6c0.9,0.4,2-0.7,2.3-1.1c0.2-0.2,0.3-0.6,0.2-0.9
	c0.3,0,0.6-0.1,0.9-0.4c0.2-0.2,0.3-0.5,0.3-0.8c0,0,0-0.1,0-0.2c3.5,0.2,3.7,0,4-0.3l0.1-0.1C21.7,19.5,22.1,19.2,23.1,18.7z
	 M30.8,19c-0.5-0.1-1,0.2-1.1,0.7c-0.3,1.2-0.5,2.1,0.2,2.5c0.1,0.1,0.3,0.1,0.5,0.1c0.1,0,0.3,0,0.4-0.1c0.3,0,1,0,1.6,0.1
	c0.5,0,0.9-0.2,1-0.6l0.4-1c0.1-0.3,0.1-0.6-0.1-0.9c-0.1-0.3-0.4-0.4-0.7-0.5L30.8,19z M38.8,20.4c-0.1,0-0.2,0-0.2,0L37,20.8
	c-0.2,0.1-0.4,0.2-0.6,0.4c-0.2,0.2-0.4,0.5-0.5,0.6c-0.3,0.3-0.4,0.7-0.5,1.3h-0.8L33,22.6c-0.7-0.2-1.4,0-1.9,0.5l-1,1
	c-0.1,0.1-0.2,0.3-0.3,0.5v0.2L29,25h-0.5c-0.3,0-0.6,0.2-0.8,0.4L27.3,26c-0.1,0.1-0.1,0.2-0.1,0.3c-0.2,0.9-0.1,1.5,0.3,1.9
	l0.4,0.4c-0.4,0.4-0.6,1-0.6,1.6l0.1,0.4l-0.5,0.5c-0.5,0.5-0.7,1.1-0.5,1.8l0.2,0.8c0.1,0.7,0.7,1.3,1.4,1.5l0.6,0.2
	c0.2,0.1,0.4,0.1,0.5,0.1h0.5l0.1,0.1v1.2c0,0.2,0,0.5,0.1,0.7l0.4,1.1c0.1,0.3,0.3,0.6,0.6,0.8l1.2,1c0.2,0.2,0.4,0.2,0.6,0.2h1
	c0.2,0,0.4-0.1,0.6-0.2c0.3-0.2,1-0.8,1.2-1s0.5-0.5,0.3-2.1v-0.7l0.3-0.9l0.3-0.6l0.6-0.8l1-0.7l0,0v0.1l0.9,1.4
	c0.2,0.2,0.4,0.4,0.7,0.5s0.6,0,0.8-0.2l1-0.8c0.1-0.1,0.1-0.1,0.2-0.2c0.1-0.1,0.1-0.2,0.2-0.3l0.4,0.9c0.2,0.4,0.5,0.6,0.9,0.6h1
	c0.3,0,0.7-0.2,0.9-0.5c0.3-0.5,0.1-1.4,0-1.9c0,0,0-0.1,0.1-0.1c0.1-0.1,0.3-0.3,0.4-0.4c0.1-0.1,0.3-0.2,0.3-0.3
	c0.1-0.1,0.2-0.2,0.8-1.2c0.1-0.2,0.2-0.5,0.3-0.7c0-0.2,0.1-0.4,0.1-0.5c0.4,0,0.7-0.2,0.9-0.5l0.9-1.4c0.1-0.2,0.2-0.4,0.2-0.6
	l0.1-0.6h0.3c0.1,0.2,0.3,0.4,0.5,0.5c0.3,0.1,1.1,0.4,1.8,0c0.3-0.2,0.5-0.5,0.5-0.8h0.1c0.6-0.2,1-0.6,1.2-1.2l0.2-0.6
	c0.2-0.5,0.1-1.1-0.1-1.6c-0.3-0.5-0.8-0.9-1.3-1l-1.7-0.3c-0.1,0-0.3,0-0.4,0h-3.3l-2-1.2c-0.4-0.3-0.9-0.3-1.4-0.3l-1.6,0.3
	c-0.2,0-0.3,0.1-0.4,0.1l-1.6,0.7v-0.2c0-0.3-0.1-0.6-0.4-0.8C39.2,20.4,39,20.4,38.8,20.4z M43.8,22.4l2,1.2c0.3,0.2,0.7,0.3,1,0.3
	h3.3l1.7,0.3l-0.2,0.6c-0.5,0.2-0.8,0.4-1,0.6c-0.3-0.2-0.6-0.4-1-0.4h-0.3c-1-0.1-1.9,0.5-2.1,1.5L47,27l-0.6,1
	c-0.6,0-1.4,0.2-1.4,1.1c0,0.2-0.1,0.8-0.1,1c-0.3,0.5-0.5,0.8-0.5,0.8s-0.1,0.1-0.2,0.2c-0.4,0.3-0.7,0.6-0.9,0.9
	c-0.1-0.4-0.4-0.7-0.8-0.8C41.8,31,41.2,31.3,40,33l-0.3-0.4l-0.2-1.2c0-0.3-0.2-0.5-0.4-0.7s-0.5-0.2-0.8-0.1l-0.8,0.2
	c-0.3,0.1-0.6,0.3-0.7,0.6l-0.3,0.7l-0.8,0.5c-0.2,0.1-0.3,0.3-0.4,0.4l-0.7,0.8c0,0.1-0.1,0.1-0.1,0.2l-0.4,0.8c0,0,0,0.1-0.1,0.1
	l-0.4,1.2c0,0.1-0.1,0.2-0.1,0.3v1c0,0.1,0,0.1,0,0.2c0,0.2,0.1,0.5,0.1,0.7c-0.2,0.1-0.4,0.3-0.6,0.5l0,0L32.1,38l-0.4-1.1v-1.6
	c0-0.2-0.1-0.4-0.2-0.6l-0.6-0.8c-0.2-0.3-0.5-0.4-0.8-0.4h-1l-0.6-0.2l-0.2-0.8l0.5-0.5c0.4-0.4,0.6-1,0.6-1.6L29.2,30l0.6-0.2
	c0.3-0.1,0.6-0.4,0.7-0.7c0.1-0.3,0-0.7-0.3-1L29.1,27c0,0,0,0,0-0.1l0,0c0.1,0,0.2,0,0.2,0l1.5-0.4c0.4-0.1,0.6-0.4,0.7-0.7
	l0.1-0.5l0.8-0.8l1.7,0.4c0.2,0,0.3,0.1,0.5,0.1h1.6c1,0,1.1-1,1.2-1.6c0-0.1,0-0.3,0.1-0.4s0.2-0.2,0.3-0.4v0.8c0,0.6,0.4,1,1,1
	c0.4,0,0.8-0.3,0.9-0.7c0.2-0.1,0.5-0.3,0.8-0.4l1.6-0.7L43.8,22.4z M50.2,27.9c-0.4,0-0.7,0.1-0.9,0.4l-0.8,1.2
	c-0.1,0.2-0.2,0.4-0.4,0.5c-0.4,0.1-1.1,0.3-1.3,0.9c-0.2,0.4-0.1,0.9,0.2,1.2c0.1,0.1,0.3,0.4,0.4,0.7c0.2,0.3,0.5,0.6,0.9,0.6
	c0.1,0,0.2,0,0.4-0.1l0.7-0.3c0.3-0.1,0.6-0.3,0.8-0.6l0.8-1.1c0.4-0.6,0.5-1.3,0.3-2L51,28.5C50.8,28.2,50.5,28,50.2,27.9z
	 M19.4,32.7l1.4,1c0.3,0.2,0.7,0.4,1.2,0.4h0.8l0.2,0.2v1.4c-0.2,0.7-0.3,1.3-0.4,1.5l-0.9,0.9c-0.1,0.1-1,1.3-1.1,2
	c0,0.1-0.1,0.5-0.4,1.4c-0.1,0-0.1,0.1-0.2,0.1l0.2-1.8c0-0.3,0-0.6-0.1-0.9l-0.6-1.7c-0.1-0.3-0.3-0.6-0.6-0.9l-0.7-0.6L18,34.9
	l0.9-1.6L19.4,32.7z M46.9,33.7c-0.4,0-0.8,0.2-0.9,0.6c-0.2,0.4-0.1,0.8,0.2,1.1c1,1,1.3,1.1,1.7,1.1h1.9c0.4,0,0.8-0.3,0.9-0.7
	c0.1-0.4,0-0.8-0.3-1.1l-0.7-0.6c-0.4-0.3-0.8-0.4-1.2-0.4C48.5,33.7,46.9,33.7,46.9,33.7z M37.1,36.5c-0.3,0-0.6,0.1-0.8,0.3
	c-0.3,0.3-0.4,0.5-0.2,2.5c0,0.4,0.3,0.7,0.7,0.9c0.1,0,0.2,0.1,0.3,0.1c0.3,0,0.5-0.1,0.7-0.3l0.5-0.5c0.1-0.1,0.2-0.3,0.3-0.5
	l0.5-1.1c0.2-0.3,0.1-0.7,0-1c-0.2-0.3-0.5-0.5-0.8-0.5L37.1,36.5L37.1,36.5z M48.1,37.6c-0.3,0-0.7,0.1-1,0.2
	c-0.4,0.2-1.2,0.6-1.8,0.9c-0.9,0.4-1.5,1.5-1.2,2.5l0.4,1.7c0.2,0.7,0.7,1.2,1.3,1.4l0.5,0.2c0.2,0.1,0.5,0.1,0.7,0.1
	c0.5,0,1.1-0.2,1.5-0.6l0.2-0.2h0.1l0.8,0.4c1,0.5,2.2,0.2,2.8-0.7l0.6-0.9c0.4-0.7,0.4-1.6,0-2.2l-1-1.8c-0.4-0.6-1.1-1-1.8-1H48.1
	z M48.1,39.6h2.2l1.1,1.7v0.1l-0.6,0.9c0,0-0.1,0.1-0.1,0L49.9,42c-0.8-0.4-1.8-0.3-2.5,0.4l-0.2,0.2h-0.1l-0.6-0.3L46,40.7
	c0,0,0-0.1,0.1-0.1C46.7,40.3,47.6,39.9,48.1,39.6z M55,41.1c-0.3,0-0.6,0.1-0.8,0.4l-0.3,0.4l-1,1c-0.1,0.1-0.2,0.2-0.2,0.4
	c-0.2,0.6-0.1,1.1,0.2,1.5c0.2,0.2,0.5,0.3,0.9,0.3c0.2,0,0.4,0,0.6-0.1c0.1,0,0.2-0.1,0.3-0.2l0.6-0.5c0.1-0.1,0.1-0.1,0.2-0.2
	l0.4-0.5c0.1-0.2,0.2-0.4,0.2-0.6v-1.1c0-0.4-0.3-0.8-0.7-0.9C55.2,41.1,55.1,41.1,55,41.1z M25,44.5c-0.6,0-1,0.4-1,1v2
	c0,0.6,0.4,1,1,1s1-0.4,1-1v-2C26,44.9,25.6,44.5,25,44.5z M30,46.5c-0.6,0-1,0.4-1,1v2c0,0.6,0.4,1,1,1s1-0.4,1-1v-2
	C31,46.9,30.6,46.5,30,46.5z M35,48.2c-0.6,0-1,0.4-1,1v2c0,0.6,0.4,1,1,1s1-0.4,1-1v-2C36,48.7,35.6,48.2,35,48.2z M40,50
	c-0.6,0-1,0.4-1,1v2c0,0.6,0.4,1,1,1s1-0.4,1-1v-2C41,50.4,40.6,50,40,50z"/>
</svg>
