<svg id="Calque_1" data-name="Calque 1" xmlns="http://www.w3.org/2000/svg" viewBox="0 0 50 50"><defs><style>.cls-1{fill:#103144;}.cls-2{fill:none;}</style></defs><path class="cls-1" d="M21.17,2.31a1.29,1.29,0,0,0-1.28,1.28V5.51a1.29,1.29,0,0,0,1.28,1.28h1.27V8.23a19.82,19.82,0,1,0,17.31,6.43l.91-.9a1.3,1.3,0,0,0,1.5-.22l.71-.71h0a1.27,1.27,0,0,0,0-1.8L40.58,8.73a1.26,1.26,0,0,0-.9-.37,1.28,1.28,0,0,0-.91.37l-.71.71a1.26,1.26,0,0,0-.22,1.5l-1,1a19.79,19.79,0,0,0-9.24-3.75V6.79h1.27a1.29,1.29,0,0,0,1.28-1.28V3.59a1.29,1.29,0,0,0-1.28-1.28Zm0,1.28h7.66V5.51H21.17Zm2.55,3.2h2.56V8.06H23.72ZM25,9.34A18.54,18.54,0,1,1,6.47,27.88,18.52,18.52,0,0,1,25,9.34Zm14.68.29L42,11.92l-.72.72L39,10.35ZM25,11.26a.64.64,0,1,0,.64.64A.64.64,0,0,0,25,11.26Zm-4.13.54h0a.27.27,0,0,0-.13,0,.6.6,0,1,0,.17,0Zm8.26,0a.62.62,0,0,0-.61.47.64.64,0,1,0,.78-.45A.33.33,0,0,0,29.13,11.81Zm9.57.08,1,1-.84.84c-.34-.33-.7-.66-1.06-1ZM17,13.4a.56.56,0,0,0-.31.09.63.63,0,0,0-.3.38.65.65,0,0,0,.07.49.66.66,0,0,0,.39.3.64.64,0,0,0,.71-.94A.62.62,0,0,0,17,13.4Zm16,0a.64.64,0,0,0-.29,1.19A.64.64,0,1,0,33,13.4ZM13.71,15.94A.64.64,0,0,0,13.25,17a.64.64,0,0,0,.45.19.68.68,0,0,0,.46-.19.64.64,0,0,0-.45-1.09Zm22.6,0a.72.72,0,0,0-.47.18.67.67,0,0,0,0,.91.64.64,0,1,0,.91-.91A.67.67,0,0,0,36.31,15.94Zm-20.06,2.6-.89.92,7.43,7.17a2.42,2.42,0,0,0-.35,1.25A2.56,2.56,0,0,0,25,30.43a2.48,2.48,0,0,0,1.29-.36l1.29,1.29.9-.91-1.29-1.29a2.45,2.45,0,0,0,.37-1.28A2.56,2.56,0,0,0,25,25.32a2.44,2.44,0,0,0-1.33.39Zm22.57.71a.61.61,0,0,0-.3.08.64.64,0,1,0,.64,1.11.65.65,0,0,0,.23-.87A.63.63,0,0,0,38.82,19.25Zm-27.69,0a.64.64,0,0,0-.52.32.65.65,0,0,0,.23.87.65.65,0,0,0,.88-.23.64.64,0,0,0-.24-.87A.54.54,0,0,0,11.13,19.25ZM9.56,23.1a.64.64,0,0,0-.16,1.26.64.64,0,0,0,.33-1.24Zm30.9,0a.58.58,0,0,0-.19,0,.63.63,0,0,0-.45.78.64.64,0,1,0,1.23-.33A.63.63,0,0,0,40.46,23.1ZM25,26.6a1.28,1.28,0,1,1-1.28,1.28A1.27,1.27,0,0,1,25,26.6ZM9,27.24a.64.64,0,0,0-.64.64.64.64,0,0,0,1.28,0A.64.64,0,0,0,9,27.24Zm32,0a.64.64,0,0,0-.64.64.64.64,0,1,0,1.28,0A.64.64,0,0,0,41,27.24ZM9.59,31.37l-.19,0a.65.65,0,0,0-.45.79.64.64,0,0,0,.78.45.63.63,0,0,0,.45-.78A.64.64,0,0,0,9.59,31.37Zm30.84,0a.64.64,0,0,0-.61.48.63.63,0,0,0,.45.78.64.64,0,0,0,.33-1.23A.51.51,0,0,0,40.43,31.37ZM11.15,35.23a.68.68,0,0,0-.31.08.64.64,0,0,0-.23.87.59.59,0,0,0,.39.3.62.62,0,0,0,.48-.06.65.65,0,0,0,.3-.39.66.66,0,0,0-.06-.48A.63.63,0,0,0,11.15,35.23Zm27.66,0a.64.64,0,0,0-.29,1.19.64.64,0,0,0,.93-.72.67.67,0,0,0-.29-.39A.62.62,0,0,0,38.81,35.23Zm-25.1,3.3a.66.66,0,0,0-.46.19.65.65,0,0,0,0,.91.64.64,0,0,0,.91-.91A.68.68,0,0,0,13.71,38.53Zm22.6,0a.68.68,0,0,0-.47.19.64.64,0,0,0,.91.91.65.65,0,0,0,0-.91A.68.68,0,0,0,36.31,38.53ZM33,41.07a.55.55,0,0,0-.3.09.64.64,0,0,0-.24.87.65.65,0,0,0,.88.24.73.73,0,0,0,.3-.39.65.65,0,0,0-.64-.81Zm-16,0a.62.62,0,0,0-.52.32.65.65,0,0,0,.23.88.64.64,0,0,0,.87-.24.62.62,0,0,0,.07-.48.59.59,0,0,0-.3-.39A.73.73,0,0,0,17,41.07Zm12.16,1.6h-.05l-.12,0a.63.63,0,0,0-.45.78.61.61,0,0,0,.29.39.65.65,0,0,0,.49.07.64.64,0,0,0,.45-.79A.63.63,0,0,0,29.14,42.67Zm-8.28,0a.63.63,0,1,0,.17,0Zm4.14.54a.64.64,0,0,0-.64.64.64.64,0,0,0,1.28,0A.64.64,0,0,0,25,43.21Z"/><rect class="cls-2" width="50" height="50"/></svg>