<?xml version="1.0" encoding="UTF-8" standalone="no"?>
<svg
   xmlns:dc="http://purl.org/dc/elements/1.1/"
   xmlns:cc="http://creativecommons.org/ns#"
   xmlns:rdf="http://www.w3.org/1999/02/22-rdf-syntax-ns#"
   xmlns:svg="http://www.w3.org/2000/svg"
   xmlns="http://www.w3.org/2000/svg"
   xmlns:sodipodi="http://sodipodi.sourceforge.net/DTD/sodipodi-0.dtd"
   xmlns:inkscape="http://www.inkscape.org/namespaces/inkscape"
   version="1.1"
   x="0"
   y="0"
   width="700"
   height="100"
   viewBox="0 0 700 100"
   id="svg2"
   inkscape:version="0.91 r13725"
   sodipodi:docname="Logo Air Corsica.svg">
  <metadata
     id="metadata40">
    <rdf:RDF>
      <cc:Work
         rdf:about="">
        <dc:format>image/svg+xml</dc:format>
        <dc:type
           rdf:resource="http://purl.org/dc/dcmitype/StillImage" />
        <dc:title></dc:title>
      </cc:Work>
    </rdf:RDF>
  </metadata>
  <sodipodi:namedview
     pagecolor="#ffffff"
     bordercolor="#666666"
     borderopacity="1"
     objecttolerance="10"
     gridtolerance="10"
     guidetolerance="10"
     inkscape:pageopacity="0"
     inkscape:pageshadow="2"
     inkscape:window-width="1440"
     inkscape:window-height="788"
     id="namedview38"
     showgrid="false"
     inkscape:zoom="1.383138"
     inkscape:cx="-12.847387"
     inkscape:cy="27.5"
     inkscape:window-x="0"
     inkscape:window-y="1"
     inkscape:window-maximized="1"
     inkscape:current-layer="svg2" />
  <defs
     id="defs4" />
  <g
     id="g4195">
    <path
       style="fill:#0079b3"
       inkscape:connector-curvature="0"
       id="path12"
       d="m 3.3010914,41.191173 c -1.5828878,2.4975 -5.1297639,5.863295 -2.1413321,7.672085 2.4696068,0.05924 4.210972,0.618358 4.1581462,2.408635 -0.062259,2.086496 -2.4111211,2.18647 -2.7337359,3.504647 -0.4471328,1.80879 2.3356557,2.042063 3.0280512,3.34728 -0.1547042,1.203392 -2.2960363,1.582922 -1.945122,3.536121 0.7074886,0.759061 1.5036491,0.557262 2.0451137,1.064538 1.8262638,1.705113 -0.928225,3.939719 -1.1583947,5.517088 -0.4244931,2.904803 4.54868,5.874403 8.2295072,5.854038 8.414397,-0.04443 18.5645,-5.011664 27.280759,0.155516 -3.222374,0.694264 -11.040595,-0.394343 -11.34057,4.504387 -0.0849,1.429259 1.728159,3.156589 2.531866,4.435887 C 34.360783,88.075314 36.84171,94.021921 37.456753,100 42.605383,81.410375 47.218209,60.532455 52.10837,40.991225 42.471432,36.86822 35.458805,30.571704 24.061636,27.350317 19.224301,25.976599 13.68891,25.541527 9.5345374,26.106195 c 0.039619,1.99763 -1.2885725,2.525272 -1.3546048,3.911949 -0.081125,1.684748 2.7601484,2.615988 4.1751254,3.58981 1.820604,1.249676 2.814862,2.610434 3.099744,4.287777 -1.379131,-0.523938 -1.081043,-1.758803 -3.214829,-1.827304 -0.57731,-0.02407 -1.575341,0.548006 -2.6658162,0.63502 -0.7716342,0.0685 -2.1809515,-1.29596 -2.5903515,-1.203391 -1.3489449,0.301774 -2.8959866,4.463657 -3.6827139,5.691117" />
    <path
       d="m 16.860346,7.712816 c -0.784841,1.083052 -1.409318,2.393824 -2.09228,3.634243 2.237551,0.283259 5.090145,0.514681 7.63899,1.023809 C 36.845483,15.253453 42.456339,25.96549 54.653442,30.129226 56.44386,24.349243 58.102213,16.147665 59.660575,10.09368 60.086955,8.432999 60.424662,7.364757 59.558696,6.148406 57.768279,4.66916 54.459119,5.30233 52.993202,3.774948 52.13667,2.882586 52.868684,1.919873 51.857447,1.584775 48.419996,0.45914 44.956132,2.430852 42.726128,0 c -1.356491,1.086756 -4.295871,0.501722 -6.527761,0.642426 -1.48667,0.09257 -2.867687,2.071685 -3.992122,-0.02036 -2.907307,0.399897 -4.295871,3.623135 -7.289963,3.623135 -0.596177,0 -1.230087,-0.529493 -1.888523,-0.510978 -2.331882,0.05369 -2.931832,3.858259 -4.967513,4.611766 -0.799934,0.06851 -0.564104,-0.940496 -1.1999,-0.633168"
       id="path14"
       inkscape:connector-curvature="0"
       style="fill:#0079b3" />
    <path
       d="m 24.272939,72.507128 c 0,0 0.943318,-0.603547 5.969317,-0.683157 6.676806,-0.111082 9.821828,2.417892 9.821828,2.417892 -0.320728,0.168475 -1.573454,0.286963 -4.11098,0.455438 -2.609218,0.181434 -4.635465,0.842374 -4.635465,0.842374 -3.32048,1.342245 -2.373388,4.271115 -2.373388,4.271115 -2.807315,-3.828637 -4.671312,-7.303662 -4.671312,-7.303662"
       id="path16"
       inkscape:connector-curvature="0"
       style="fill:#004b86" />
  </g>
  <g
     id="g4183">
    <path
       d="M 137.17868,69.818936 121.08379,35.603732 c -3.12993,-6.476098 -6.55606,-6.913022 -10.99532,-6.916724 l -5.48256,0 c -0.60184,0.01296 -4.22607,-0.01296 -4.22607,-0.01296 l 1.03765,2.188321 L 58.013541,69.5005 c -0.607497,0.55356 -0.990484,1.275595 -1.054629,2.099455 -0.0057,0.03703 -0.0057,0.08331 -0.0057,0.138853 0,0.385085 0.09622,0.796091 0.379214,1.147852 0.264129,0.353611 0.745221,0.590587 1.198014,0.590587 0.01132,0 0.02075,0 0.03396,0 l 12.523491,-0.0722 c 0.581084,-0.0092 1.03765,-0.261044 1.411204,-0.586886 l 10.184063,-8.993964 34.159432,0 4.06947,8.668123 c 0.21697,0.510979 0.83012,0.934942 1.44139,0.912727 l 12.55745,0.0722 0.0113,0 c 0.97351,-0.04999 1.56403,-0.635021 2.00361,-1.318177 0.27356,-0.466546 0.42638,-0.964565 0.43015,-1.481097 0,-0.283261 -0.049,-0.570223 -0.18111,-0.859037 l 0.004,0 z m -0.92445,0.416559 0,0 z m -24.62815,-17.582479 -16.428825,0 11.595265,-10.39175 4.83356,10.39175"
       id="path18"
       inkscape:connector-curvature="0"
       style="fill:#004b86" />
    <path
       d="m 140.56331,69.94483 c -0.0925,0.290665 -0.1,0.58133 -0.0547,0.862738 0.0792,0.520236 0.30753,1.025661 0.65278,1.486652 0.53769,0.690562 1.21877,1.281149 2.20736,1.325583 l 0.009,0 12.61405,-0.07035 c 0.61504,0.02592 1.16971,-0.401748 1.31498,-0.914578 l 2.86203,-8.710704 10.3482,-31.077128 1.44139,-4.252601 c 0,0 -3.69592,0.02407 -4.3053,0.01111 l -5.58822,0 c -4.52604,0.0056 -7.95595,0.448032 -10.21614,6.953752 l -11.28963,34.385531 0.004,0 z m 0.98671,0.420261 0.004,0 -0.004,0"
       id="path20"
       inkscape:connector-curvature="0"
       style="fill:#004b86" />
    <path
       d="m 229.20125,38.85289 c -0.18678,-1.244122 -0.61882,-2.401229 -1.25273,-3.480579 -1.41497,-2.384566 -3.80157,-4.106342 -6.91641,-5.189395 -3.11106,-1.086756 -6.92584,-1.577369 -11.37453,-1.577369 l -19.18709,0 c -0.0207,0 -0.0396,-0.01111 -0.0623,-0.01111 l -0.009,0 -2.1319,0.01111 -9.72749,0 c -0.15471,0 -0.30375,0.02222 -0.44336,0.05924 l -0.30941,0.0037 c -0.61693,-0.03147 -1.16972,0.398045 -1.3131,0.914578 l -2.86769,8.70515 -10.34631,31.075277 -1.4395,4.256304 c 0,0 3.69214,-0.02407 4.30341,-0.01296 l 5.59199,0 c 4.52416,-0.0074 7.95217,-0.442478 10.21425,-6.953753 l 3.26954,-9.96038 14.15355,0 c 1.60175,0 2.89787,0.112933 3.84496,0.299923 0.83767,0.159217 1.04897,0.227718 1.23952,0.423963 0.21885,0.192544 0.56599,0.794239 1.0169,2.103159 l -0.0113,0.02222 0.11131,0.307327 c 0,0.0037 1.11123,3.108454 2.23566,6.242826 0.56034,1.564409 1.12633,3.139927 1.55837,4.339616 0.44524,1.240419 0.69805,1.947643 0.79427,2.162402 0.22828,0.55356 0.84899,0.966416 1.47346,0.966416 0.017,0 0.0283,0 0.0434,0 l 12.19333,0 c 0.62824,-0.01481 1.11688,-0.290666 1.52251,-0.653534 0.39997,-0.375829 0.68862,-0.838672 0.85276,-1.355204 l 0.0943,-0.329544 -4.3902,-11.195247 -2.92429,-6.948198 c 1.85457,-0.749805 3.92043,-2.014292 5.02223,-2.88814 1.15085,-0.921983 2.15076,-1.96986 2.97145,-3.134373 0.67542,-0.951605 1.21122,-1.980967 1.60176,-3.036249 l 0.0321,0 0.15093,-0.503573 0.0528,0 0.17169,-0.805347 c 0.1981,-0.825712 0.29431,-1.642167 0.29431,-2.445662 0,-0.479506 -0.0358,-0.947903 -0.10376,-1.412597 z m -16.30808,3.517607 c -0.21885,0.399896 -0.46412,0.720183 -0.76409,1.021957 -0.30752,0.298071 -0.63769,0.560966 -1.07161,0.801644 -0.42261,0.240678 -0.932,0.464694 -1.55459,0.655386 -1.20745,0.375828 -2.89787,0.618358 -5.09392,0.618358 l -15.52513,0 1.85079,-5.64113 16.04962,0.0037 0.0396,0 0.0207,-0.0037 c 1.4263,0.0037 2.57337,0.112933 3.43368,0.292517 1.34706,0.283259 1.95644,0.668345 2.28471,1.058984 0.15093,0.179583 0.23961,0.355464 0.29243,0.597993 0.0283,0.12034 0.0453,0.25549 0.0453,0.422113 0,0.04999 -0.008,0.105528 -0.008,0.172178"
       id="path22"
       inkscape:connector-curvature="0"
       style="fill:#004b86" />
    <path
       d="m 522.41848,59.130967 0,-0.05554 c 0,-2.121672 -0.47166,-4.098937 -1.41875,-5.794794 -0.93766,-1.688451 -2.32811,-3.095494 -4.10721,-4.232236 -1.94324,-1.25523 -4.27323,-2.14574 -6.94848,-2.728922 -2.69223,-0.588736 -5.73349,-0.860888 -9.06906,-0.860888 l -12.30842,0 c -1.45648,0 -2.65072,-0.112934 -3.58461,-0.290665 -1.41309,-0.288814 -2.15642,-0.696116 -2.64883,-1.177473 -0.21508,-0.218462 -0.36978,-0.45914 -0.47544,-0.727589 -0.0792,-0.190691 -0.11885,-0.383234 -0.15281,-0.622061 0.15281,-0.355463 0.3245,-0.62021 0.53014,-0.883104 0.23206,-0.262895 0.47732,-0.479506 0.8471,-0.71463 0.35092,-0.211056 0.79805,-0.429518 1.37536,-0.614655 1.10557,-0.353612 2.69412,-0.601696 4.8279,-0.610953 l 33.06707,0 c 0.63014,0 1.21311,-0.335098 1.63194,-0.773873 0.38676,-0.449884 0.64146,-0.979376 0.71504,-1.529234 l 2.02247,-6.631614 c 0.0717,-0.540601 0,-1.066389 -0.27545,-1.519976 -0.27922,-0.448032 -0.76974,-0.775725 -1.41497,-0.775725 l -33.89342,0 c -3.34124,0 -6.4523,0.275855 -9.31244,0.855334 -2.84693,0.586885 -5.4486,1.492206 -7.7503,2.734476 l -0.0472,0.03702 c -2.06586,1.108972 -3.8676,2.516014 -5.31276,4.204465 -1.43573,1.690303 -2.50923,3.663865 -3.12616,5.785537 l -0.0132,0.05739 c -0.0434,0.129596 -0.0755,0.25549 -0.0887,0.372126 -0.0189,0.129596 -0.0321,0.249935 -0.0321,0.372126 l 0,0.07405 c -0.0453,2.232754 0.41317,4.302588 1.39234,6.068797 1.45837,2.65857 4.01664,4.569186 7.44655,5.781834 3.41104,1.216352 7.63899,1.755101 12.58009,1.762507 l 12.34426,0 c 1.47535,0 2.68091,0.105528 3.60159,0.285111 1.42252,0.288814 2.1885,0.696116 2.68091,1.175621 0.21508,0.225867 0.36601,0.460991 0.47166,0.736846 0.0792,0.185137 0.11697,0.37768 0.15093,0.614655 -0.15093,0.362869 -0.30564,0.622061 -0.51883,0.883105 -0.22828,0.266597 -0.49429,0.490613 -0.83766,0.712777 -0.3528,0.216611 -0.81692,0.427667 -1.38291,0.614657 -1.13198,0.362868 -2.78656,0.618357 -5.00713,0.614655 l -36.94977,0 c -0.63957,0.0037 -1.24518,0.325841 -1.63949,0.777576 -0.4094,0.448032 -0.65655,0.975672 -0.73767,1.519976 L 456.63328,71.263 c -0.0736,0.544304 0,1.073796 0.27356,1.523679 0.27922,0.446181 0.76786,0.773873 1.39422,0.773873 l 38.41946,0 c 3.31294,0 6.36929,-0.246232 9.17849,-0.762765 4.19777,-0.775724 7.80501,-2.193876 10.63685,-4.363683 1.41309,-1.086756 2.61866,-2.358648 3.5865,-3.791609 0.96596,-1.432963 1.69986,-3.019588 2.17529,-4.706188 l 0.0113,-0.0648 c 0.0302,-0.124042 0.0736,-0.24253 0.0811,-0.366572 0.0151,-0.127745 0.0151,-0.248083 0.0283,-0.373976"
       id="path24"
       inkscape:connector-curvature="0"
       style="fill:#004b86" />
    <path
       d="m 523.841,69.846707 c -0.0962,0.283259 -0.10565,0.572074 -0.066,0.855333 0.0962,0.520236 0.30563,1.016403 0.66409,1.481098 0.53015,0.683156 1.215,1.273744 2.19227,1.318177 l 0.017,0 12.57632,-0.07221 c 0.60561,0.02777 1.1584,-0.399896 1.31121,-0.909023 l 2.85448,-8.686637 10.31613,-30.986411 1.43573,-4.235938 c 0,0 -3.67894,0.02222 -4.29021,0.01111 l -5.57312,0 c -4.51284,0.0092 -7.93519,0.440627 -10.18784,6.933388 l -11.25001,34.29111 z m 0.97539,0.412856 0,0"
       id="path26"
       inkscape:connector-curvature="0"
       style="fill:#004b86" />
    <path
       d="m 454.85237,38.836228 c -0.183,-1.240419 -0.61315,-2.397527 -1.24895,-3.467619 -1.4112,-2.380864 -3.78837,-4.098938 -6.88811,-5.174585 -3.11484,-1.086755 -6.91452,-1.571815 -11.34623,-1.571815 l -19.13238,0 c -0.0113,-0.0074 -0.0377,-0.01111 -0.0528,-0.01111 l -0.0132,0 -2.12812,0.01111 -9.70486,0 c -0.15848,0 -0.29054,0.01666 -0.4377,0.04999 l -0.31318,0.0019 c -0.61127,-0.01481 -1.15651,0.409154 -1.3131,0.921984 l -2.85448,8.681082 -10.31613,30.982708 -1.43384,4.241493 c 0,0 3.67705,-0.02407 4.29587,-0.01481 l 5.57501,0 c 4.50717,-0.0056 7.92576,-0.44433 10.18029,-6.929686 l 3.26576,-9.93261 14.10261,0 c 1.60553,0 2.90165,0.114786 3.83931,0.298072 0.83577,0.168474 1.04519,0.224016 1.24895,0.423963 0.20941,0.196246 0.55656,0.792388 1.0018,2.097605 l -0.0151,0.02036 0.11508,0.309179 c 0,0.0037 1.10935,3.093642 2.22812,6.224312 0.55279,1.560707 1.12066,3.136224 1.55836,4.328508 0.42827,1.22931 0.69051,1.938386 0.78673,2.153145 0.22828,0.549858 0.85087,0.960862 1.46592,0.960862 0.0207,0 0.034,0 0.0434,0 l 12.16126,0 c 0.6207,-0.01296 1.115,-0.285111 1.51496,-0.646129 0.41129,-0.379531 0.68485,-0.838671 0.85088,-1.358906 l 0.1,-0.325842 -4.37888,-11.160069 -2.91108,-6.927834 c 1.84701,-0.747954 3.90722,-2.012441 4.99204,-2.880735 1.16028,-0.923834 2.14888,-1.964305 2.979,-3.125116 0.66786,-0.947902 1.20367,-1.969859 1.5942,-3.025141 l 0.0226,0 0.15282,-0.503573 0.0604,0 0.1698,-0.807198 c 0.19621,-0.82201 0.28488,-1.636613 0.28488,-2.432703 0,-0.481357 -0.0283,-0.953457 -0.10188,-1.410745 z m -16.25337,3.50835 c -0.21696,0.40545 -0.45845,0.714629 -0.76597,1.018254 -0.30186,0.299922 -0.64523,0.559114 -1.06406,0.792387 -0.4245,0.24253 -0.93578,0.470249 -1.54516,0.653535 -1.22254,0.379531 -2.90353,0.627615 -5.09014,0.627615 l -15.48363,0 1.85457,-5.630022 16.0647,0 c 1.41309,0 2.56394,0.114785 3.41859,0.292516 1.33762,0.281409 1.95267,0.672048 2.29037,1.058985 0.13773,0.177732 0.2264,0.353612 0.28111,0.592439 0.0189,0.124042 0.0396,0.253638 0.0396,0.416559 0,0.05739 0,0.114785 0,0.177732"
       id="path28"
       inkscape:connector-curvature="0"
       style="fill:#004b86" />
    <path
       d="M 699.82077,69.772651 683.6655,35.429704 c -3.14314,-6.500167 -6.58247,-6.938942 -11.03871,-6.944496 l -5.5052,0 c -0.59807,0.01481 -4.24116,-0.01111 -4.24116,-0.01111 l 1.04331,2.192025 -43.5662,38.780687 c -0.61127,0.560965 -0.99804,1.286703 -1.06029,2.108712 -0.004,0.03702 -0.004,0.08516 -0.004,0.137001 0,0.386937 0.0924,0.805347 0.37922,1.16081 0.26224,0.355464 0.75276,0.586885 1.20556,0.586885 0.0151,0 0.0189,0 0.0283,0 l 12.58009,-0.0722 c 0.58108,-0.0092 1.03576,-0.261044 1.41309,-0.590588 l 10.22179,-9.023586 34.28396,0 4.08456,8.699596 c 0.22074,0.51283 0.84144,0.938645 1.44894,0.914578 l 12.6065,0.0722 0.009,0 c 0.97161,-0.04813 1.56779,-0.63502 2.0036,-1.318176 0.283,-0.468397 0.4377,-0.97012 0.44148,-1.490355 0,-0.279557 -0.0528,-0.570222 -0.18678,-0.859037 l 0.008,0 z m -0.93578,0.41656 0,0 z m -24.71682,-17.645426 -16.48542,0 11.633,-10.434332 4.85242,10.434332"
       id="path30"
       inkscape:connector-curvature="0"
       style="fill:#004b86" />
    <path
       d="m 319.89562,29.379421 c -0.27167,-0.449884 -0.76786,-0.777577 -1.40177,-0.777577 l -27.73732,0 c -7.69559,0.0019 -14.54408,0.83682 -20.50208,2.61784 -5.96554,1.773614 -10.9972,4.493279 -14.95159,8.183064 -3.38085,3.139926 -5.76179,7.003739 -6.98999,11.337801 l -0.017,0.04628 c -0.0321,0.120339 -0.0585,0.238827 -0.0717,0.346207 -0.0226,0.111082 -0.0302,0.227718 -0.0358,0.336949 l 0,0.0722 c -0.15282,4.321103 1.00369,8.192321 3.4016,11.324842 2.796,3.689784 6.99565,6.405747 12.43293,8.188617 5.44861,1.771763 12.08202,2.606732 19.83044,2.612286 l 27.24491,0 c 0.63768,0 1.23009,-0.325841 1.63949,-0.777576 0.40562,-0.451734 0.63957,-0.977524 0.72258,-1.521827 l 0.9886,-6.648277 c 0.0736,-0.548006 0,-1.070092 -0.27357,-1.529233 -0.27733,-0.448032 -0.77352,-0.777576 -1.40931,-0.777576 l -27.177,0 c -5.21089,0 -9.36526,-0.56652 -12.54802,-1.608842 -3.18841,-1.042323 -5.43351,-2.543785 -6.92206,-4.498834 -1.10369,-1.466286 -1.62817,-3.093642 -1.64326,-5.172733 0.66409,-2.073536 1.70552,-3.706446 3.26388,-5.180138 2.09416,-1.945792 4.79583,-3.443552 8.30308,-4.491429 3.49217,-1.036768 7.81256,-1.608842 13.00081,-1.608842 l 27.78638,0 c 0.6358,0 1.22443,-0.335098 1.63005,-0.777576 0.4094,-0.449883 0.64146,-0.975673 0.72447,-1.523679 l 0.98105,-6.651979 c 0.0792,-0.546155 0,-1.071945 -0.26979,-1.519976"
       id="path32"
       inkscape:connector-curvature="0"
       style="fill:#004b86" />
    <path
       d="m 391.43498,51.13304 0.008,-0.0685 c 0.36035,-2.319769 0.28677,-4.602511 -0.24526,-6.690858 -0.5226,-2.095753 -1.50365,-3.993409 -2.88844,-5.65409 -2.76015,-3.325063 -7.07866,-5.765172 -12.75555,-7.507313 l -0.0302,-0.01481 -0.0358,-0.0092 C 370.65228,29.721981 364.91879,28.875904 358.325,28.603753 l -0.13395,-0.0019 -0.0962,0 -0.15471,0.0019 c -6.74849,0.272151 -12.78196,1.118228 -18.09661,2.588217 -6.24099,1.749547 -11.32925,4.197061 -15.1346,7.531381 -1.89795,1.668086 -3.47141,3.56204 -4.6581,5.659644 -1.18858,2.086496 -1.97531,4.365535 -2.36773,6.729737 0,0 0,0.01111 -0.002,0.02036 l -0.009,0.02407 c -0.38487,2.367905 -0.33959,4.639538 0.15848,6.731589 0.50562,2.097603 1.46025,3.986003 2.82429,5.65594 2.72997,3.332469 7.05225,5.783686 12.75366,7.527678 4.87696,1.481098 10.68591,2.319769 17.38724,2.590069 l 0.12263,0.0092 0.10188,0 0.16603,-0.0092 c 6.73151,-0.2703 12.78007,-1.114525 18.10793,-2.590069 6.28439,-1.743992 11.4066,-4.187803 15.20818,-7.522124 1.89984,-1.671788 3.46763,-3.556485 4.63546,-5.65594 1.16217,-2.093902 1.93003,-4.365536 2.29415,-6.737143 l 0,0.01851 0.004,-0.04258 z m -16.22129,0 c -0.18112,1.168215 -0.5226,2.140186 -1.02067,3.051061 -0.4943,0.901618 -1.16217,1.738438 -2.06021,2.543785 -1.78287,1.597734 -4.48454,3.015884 -8.27667,4.082275 l -0.0208,0.0056 c -3.00164,0.855334 -6.68812,1.405192 -11.06512,1.595883 -3.54876,-0.153664 -6.58247,-0.557263 -9.10679,-1.164512 -2.57337,-0.625764 -4.61094,-1.464436 -6.19006,-2.486393 -1.57345,-1.018255 -2.56959,-2.162402 -3.12804,-3.386159 -0.55278,-1.245973 -0.70371,-2.549339 -0.44336,-4.241493 0.18678,-1.157107 0.53392,-2.130929 1.03011,-3.034398 0.49995,-0.896064 1.16971,-1.72733 2.05832,-2.527123 1.75079,-1.564409 4.38454,-2.964046 8.06914,-4.034139 l 0.1547,-0.04258 c 3.07711,-0.886807 6.78812,-1.453327 11.1538,-1.642167 4.15626,0.192543 7.63899,0.75536 10.51045,1.647721 3.44688,1.086755 5.7033,2.51046 6.98998,4.106343 0.64335,0.803495 1.05463,1.629207 1.26971,2.521568 0.2113,0.907172 0.24526,1.864332 0.0755,3.004777"
       id="path34"
       inkscape:connector-curvature="0"
       style="fill:#004b86" />
    <path
       d="m 623.89875,29.360907 c -0.26601,-0.453587 -0.76786,-0.779428 -1.39988,-0.779428 l -27.73167,0 c -7.70125,0 -14.54785,0.842375 -20.50585,2.619692 -5.96931,1.777316 -10.99909,4.496982 -14.9497,8.181212 -3.38274,3.141778 -5.76368,7.007442 -6.98999,11.341504 l -0.017,0.04258 c -0.0302,0.129596 -0.0604,0.238827 -0.0755,0.353612 -0.0245,0.101825 -0.0302,0.218462 -0.0302,0.336949 l -0.006,0.0648 c -0.15093,4.321102 1.0018,8.190469 3.39594,11.332247 2.80543,3.682378 7.0032,6.405746 12.44048,8.188618 5.44484,1.769911 12.08202,2.603028 19.82855,2.608582 l 23.97915,0 c 0.63957,0 1.18858,-0.364719 1.64514,-0.772021 0.47355,-0.436924 9.21811,-7.768356 9.33697,-8.175658 0.11885,-0.407302 0,-1.075647 -0.27545,-1.525531 -0.27168,-0.448032 -0.77164,-0.775724 -1.40555,-0.78313 l -31.54267,0 c -5.20145,0 -9.36903,-0.562817 -12.5499,-1.605139 -3.18653,-1.046026 -5.43163,-2.543786 -6.92018,-4.500685 -1.10557,-1.464435 -1.63572,-3.093643 -1.63949,-5.16903 0.6641,-2.071686 1.69986,-3.71015 3.25822,-5.183842 2.09228,-1.945791 4.80526,-3.445403 8.30875,-4.493279 3.49405,-1.03862 7.81256,-1.608842 13.00269,-1.60514 l 27.78072,-0.0037 c 0.6358,0 1.22443,-0.329544 1.63571,-0.777576 0.40186,-0.453586 0.63391,-0.97197 0.71504,-1.519976 l 0.14527,-0.916429 0.84521,-5.737401 c 0.0736,-0.549858 0,-1.073796 -0.27922,-1.521828"
       id="path36"
       inkscape:connector-curvature="0"
       style="fill:#004b86" />
  </g>
</svg>
