<?xml version="1.0" encoding="utf-8"?>
<!-- Generator: Adobe Illustrator 25.4.1, SVG Export Plug-In . SVG Version: 6.00 Build 0)  -->
<svg version="1.1" id="Calque_1" xmlns="http://www.w3.org/2000/svg" xmlns:xlink="http://www.w3.org/1999/xlink" x="0px" y="0px"
	 viewBox="0 0 108.7 50" style="enable-background:new 0 0 108.7 50;" xml:space="preserve">
<style type="text/css">
	.st0{fill:#293173;}
	.st1{fill:none;}
	.st2{fill:#332879;}
	.st3{fill:#E10814;}
	.st4{fill:#808080;}
	.st5{fill:none;stroke:#000000;stroke-width:0.25;stroke-miterlimit:10;}
</style>
<path class="st0" d="M13.8,41.7C13.8,41.7,13.8,41.7,13.8,41.7C13.8,41.7,13.8,41.7,13.8,41.7C13.8,41.7,13.8,41.7,13.8,41.7
	C13.8,41.7,13.8,41.7,13.8,41.7"/>
<path class="st0" d="M15.4,41.2C15.4,41.2,15.4,41.2,15.4,41.2C15.4,41.2,15.4,41.2,15.4,41.2"/>
<rect x="9.9" y="6.6" class="st1" width="87.8" height="22.7"/>
<path class="st0" d="M15.4,41.2C15.4,41.2,15.4,41.2,15.4,41.2C15.4,41.2,15.4,41.2,15.4,41.2"/>
<g>
	<path class="st2" d="M10.8,25h0.6v0.4c0.3-0.4,0.8-0.5,1.3-0.5c1.1,0,1.9,0.9,1.9,1.9c0,1.1-0.7,1.9-1.9,1.9c-0.5,0-1-0.2-1.3-0.5
		v2.2h-0.6V25z M12.6,28.2c0.8,0,1.3-0.6,1.3-1.4c0-0.8-0.5-1.4-1.3-1.4c-0.5,0-0.9,0.2-1.2,0.7v1.4C11.7,28,12.1,28.2,12.6,28.2z"
		/>
	<path class="st2" d="M15.6,25h0.6v0.5c0.3-0.3,0.6-0.5,1.1-0.5c0.1,0,0.2,0,0.3,0v0.6c-0.1,0-0.2-0.1-0.4-0.1c-0.5,0-0.8,0.2-1,0.6
		v2.4h-0.6V25z"/>
	<path class="st2" d="M21.9,26.8c0,1.1-0.8,1.9-2,1.9c-1.2,0-2-0.9-2-1.9c0-1.1,0.8-1.9,2-1.9C21.1,24.9,21.9,25.8,21.9,26.8z
		 M21.3,26.8c0-0.8-0.6-1.4-1.3-1.4c-0.8,0-1.3,0.6-1.3,1.4c0,0.8,0.6,1.4,1.3,1.4C20.7,28.2,21.3,27.6,21.3,26.8z"/>
	<path class="st2" d="M25.7,27.7l0.5,0.4c-0.3,0.5-0.9,0.7-1.5,0.7c-1.2,0-2-0.9-2-1.9c0-1.1,0.8-1.9,2-1.9c0.7,0,1.2,0.3,1.5,0.7
		L25.7,26c-0.2-0.3-0.6-0.5-1-0.5c-0.8,0-1.3,0.6-1.3,1.4c0,0.8,0.6,1.4,1.3,1.4C25.1,28.2,25.5,28,25.7,27.7z"/>
	<path class="st2" d="M28.7,28.8c-1.2,0-2-0.9-2-1.9c0-1.1,0.7-1.9,1.8-1.9c1,0,1.6,0.7,1.6,1.6c0,0.1,0,0.3,0,0.4h-2.8v0
		c0,0.8,0.5,1.4,1.4,1.4c0.5,0,0.8-0.2,1.1-0.5l0.5,0.4C29.9,28.5,29.3,28.8,28.7,28.8z M27.4,26.4h2.1c0-0.5-0.4-1-1-1
		C27.9,25.4,27.5,25.7,27.4,26.4z"/>
	<path class="st2" d="M31.3,27.8c0.3,0.3,0.6,0.5,0.9,0.5c0.4,0,0.6-0.2,0.6-0.6c0-0.8-1.8-0.5-1.8-1.8c0-0.6,0.5-1,1.2-1
		c0.5,0,1,0.2,1.2,0.6L33,25.9c-0.2-0.3-0.5-0.5-0.8-0.5c-0.4,0-0.6,0.2-0.6,0.5c0,0.8,1.8,0.5,1.8,1.8c0,0.7-0.5,1.1-1.2,1.1
		c-0.6,0-1-0.2-1.4-0.6L31.3,27.8z"/>
	<path class="st2" d="M34.5,27.8c0.3,0.3,0.6,0.5,0.9,0.5c0.4,0,0.6-0.2,0.6-0.6c0-0.8-1.8-0.5-1.8-1.8c0-0.6,0.5-1,1.2-1
		c0.5,0,1,0.2,1.2,0.6l-0.4,0.4c-0.2-0.3-0.5-0.5-0.8-0.5c-0.4,0-0.6,0.2-0.6,0.5c0,0.8,1.8,0.5,1.8,1.8c0,0.7-0.5,1.1-1.2,1.1
		c-0.6,0-1-0.2-1.4-0.6L34.5,27.8z"/>
	<path class="st2" d="M40.2,25h0.6v2c0,1.1-0.6,1.7-1.6,1.7c-1,0-1.6-0.6-1.6-1.7v-2h0.6v2.1c0,0.7,0.4,1.1,1,1.1c0.6,0,1-0.4,1-1.1
		V25z"/>
	<path class="st2" d="M42.1,27.8c0.3,0.3,0.6,0.5,0.9,0.5c0.4,0,0.6-0.2,0.6-0.6c0-0.8-1.8-0.5-1.8-1.8c0-0.6,0.5-1,1.2-1
		c0.5,0,1,0.2,1.2,0.6l-0.4,0.4c-0.2-0.3-0.5-0.5-0.8-0.5c-0.4,0-0.6,0.2-0.6,0.5c0,0.8,1.8,0.5,1.8,1.8c0,0.7-0.5,1.1-1.2,1.1
		c-0.6,0-1-0.2-1.4-0.6L42.1,27.8z"/>
	<path class="st2" d="M50,27.7l0.5,0.4c-0.3,0.5-0.9,0.7-1.5,0.7c-1.2,0-2-0.9-2-1.9c0-1.1,0.8-1.9,2-1.9c0.7,0,1.2,0.3,1.5,0.7
		L50,26c-0.2-0.3-0.6-0.5-1-0.5c-0.8,0-1.3,0.6-1.3,1.4c0,0.8,0.6,1.4,1.3,1.4C49.5,28.2,49.8,28,50,27.7z"/>
	<path class="st2" d="M53,28.8c-1.2,0-2-0.9-2-1.9c0-1.1,0.7-1.9,1.8-1.9c1,0,1.6,0.7,1.6,1.6c0,0.1,0,0.3,0,0.4h-2.8v0
		c0,0.8,0.5,1.4,1.4,1.4c0.5,0,0.8-0.2,1.1-0.5l0.5,0.4C54.2,28.5,53.6,28.8,53,28.8z M51.7,26.4h2.1c0-0.5-0.4-1-1-1
		C52.2,25.4,51.8,25.7,51.7,26.4z"/>
	<path class="st2" d="M55.6,25h0.6v0.5c0.3-0.3,0.6-0.5,1.1-0.5c0.1,0,0.2,0,0.3,0v0.6c-0.1,0-0.2-0.1-0.4-0.1c-0.5,0-0.8,0.2-1,0.6
		v2.4h-0.6V25z"/>
	<path class="st2" d="M58.9,25.6h-0.7V25h0.7v-0.9h0.6V25h1.3v0.6h-1.3v1.8c0,0.6,0.3,0.7,0.7,0.7c0.2,0,0.4,0,0.5-0.1v0.5
		c-0.2,0.1-0.4,0.1-0.6,0.1c-0.8,0-1.3-0.4-1.3-1.3V25.6z"/>
	<path class="st2" d="M61.6,23.7c0-0.2,0.2-0.4,0.4-0.4s0.4,0.2,0.4,0.4c0,0.2-0.2,0.4-0.4,0.4S61.6,23.9,61.6,23.7z M61.7,25h0.6
		v3.6h-0.6V25z"/>
	<path class="st2" d="M63.9,25v-0.4c0-0.8,0.5-1.3,1.3-1.3c0.4,0,0.7,0.1,0.9,0.4l-0.4,0.4c-0.1-0.1-0.3-0.2-0.5-0.2
		c-0.4,0-0.7,0.3-0.7,0.8V25h1.3v0.6h-1.3v3h-0.6v-3h-0.7V25H63.9z"/>
	<path class="st2" d="M66.5,23.7c0-0.2,0.2-0.4,0.4-0.4s0.4,0.2,0.4,0.4c0,0.2-0.2,0.4-0.4,0.4S66.5,23.9,66.5,23.7z M66.6,25h0.6
		v3.6h-0.6V25z"/>
	<path class="st2" d="M70.3,28.8c-1.2,0-2-0.9-2-1.9c0-1.1,0.7-1.9,1.8-1.9c1,0,1.6,0.7,1.6,1.6c0,0.1,0,0.3,0,0.4h-2.8v0
		c0,0.8,0.5,1.4,1.4,1.4c0.5,0,0.8-0.2,1.1-0.5l0.5,0.4C71.5,28.5,70.9,28.8,70.3,28.8z M69,26.4h2.1c0-0.5-0.4-1-1-1
		C69.5,25.4,69.1,25.7,69,26.4z M69.9,24.5l0.7-1.2h0.7l-0.8,1.2H69.9z"/>
</g>
<g>
	<polygon class="st3" points="75.5,17.9 86.7,17.9 75.5,29.2 	"/>
</g>
<g>
	<polygon class="st2" points="75.5,17.9 86.7,17.9 75.5,6.6 	"/>
</g>
<g>
	<polygon class="st2" points="86.6,17.9 97.8,17.9 86.6,29.2 	"/>
</g>
<g>
	<polygon class="st3" points="86.6,17.9 97.8,17.9 86.6,6.6 	"/>
</g>
<path class="st2" d="M14.9,41.8c0,0,0.1-0.1,0.1-0.1h0c0.1-0.1,0.2-0.2,0.3-0.3c0,0,0.1-0.1,0.1-0.1c0,0,0,0,0,0c0,0-0.1,0-0.1,0.1
	c0,0,0,0,0,0c0,0,0.1,0,0.1-0.1h0c0,0,0,0,0,0c-0.1,0-0.2,0.1-0.3,0.1c0,0,0,0,0,0c-0.1,0-0.2,0.1-0.3,0.2v0c0,0-0.1,0-0.1,0.1
	c-0.1,0-0.1,0-0.2,0c-0.1,0-0.2,0-0.3,0.1l0,0c-0.1,0-0.1,0-0.2,0.1c0,0,0,0,0,0c0,0,0,0,0,0c0,0,0,0-0.1,0c0,0-0.1,0.1-0.1,0.1
	c0,0,0,0,0,0c0,0-0.1,0.1-0.1,0.1c0,0,0,0,0,0l0,0c0,0,0,0,0,0c0,0,0,0,0,0c0,0,0,0,0,0c0,0,0,0,0,0c0,0,0,0,0,0c0,0,0,0,0,0
	c0,0,0.1-0.1,0.1-0.1v0c0,0,0,0,0,0c0,0,0,0,0,0c0,0,0,0,0,0l0,0c0,0,0,0,0,0c0,0,0,0.1-0.1,0.1c0,0,0,0,0,0c0,0,0,0,0,0l0,0
	c0,0,0,0,0,0c0,0,0,0,0,0c0,0,0,0,0,0c0,0,0,0,0,0c0,0,0,0,0,0c0,0,0,0,0,0c0,0,0,0,0,0c0,0,0,0,0,0c0,0,0,0,0,0c0,0,0,0,0,0
	c0,0,0,0,0,0c0,0,0,0,0.1,0h0c0,0,0.1,0,0.1-0.1c0,0,0,0,0,0c0,0-0.1,0-0.1,0.1c0,0,0,0,0,0c0,0,0,0,0,0c0,0,0,0,0,0c0,0,0,0,0,0
	c0,0,0,0,0,0c0.3-0.2,0.6-0.2,0.9-0.3c0,0,0,0,0.1,0c0,0,0.1-0.1,0.1-0.1c0.1,0,0.1-0.1,0.1-0.2c0,0,0,0,0,0
	c-0.1,0.1-0.2,0.2-0.4,0.3c-0.2,0.1-0.4,0.1-0.5,0.1c0,0,0,0,0,0c0,0,0,0,0,0h0c0,0,0,0,0,0c0,0,0,0,0,0c0,0-0.1,0-0.1,0
	c0,0,0,0,0,0h0c0,0,0,0,0,0c0.1-0.1,0.2-0.1,0.3-0.2c0,0,0,0-0.1,0c0,0,0,0,0,0c0.1,0,0.2-0.1,0.3-0.1c0,0-0.1,0-0.1,0c0,0,0,0,0,0
	v0c0,0,0,0,0,0c0,0,0,0,0,0c0,0,0,0,0,0c0,0,0,0,0,0c0,0,0.1,0,0.1,0c0,0,0,0,0,0c0,0,0,0,0,0h0c0,0,0,0,0,0c0-0.1,0-0.1,0.1-0.2
	c0,0,0,0,0,0c-0.1,0.1-0.2,0.1-0.3,0.2h0c0,0-0.1,0-0.1,0c0,0,0,0-0.1-0.1c-0.1,0-0.1-0.1-0.2-0.1c-0.2-0.1-0.4-0.1-0.6-0.1
	c0.1,0,0.2-0.1,0.3-0.1c0.1,0,0.3-0.1,0.4-0.1c0,0-0.1,0-0.1,0c-0.1,0-0.2,0-0.3,0c-0.1,0-0.2,0-0.2,0.1c0,0-0.1,0.1-0.1,0.1v0
	c0.1-0.1,0.2-0.2,0.3-0.2c0.1,0,0.3,0,0.4,0c0.1,0,0.2,0,0.3,0.1c0,0,0,0.1,0.1,0.1c0,0,0.1,0,0.1,0c0,0,0,0,0,0c0,0,0.1,0,0.1,0
	c0.1,0-0.1-0.1-0.1-0.2c0,0,0,0,0,0c0.1,0.1,0.1,0.1,0.2,0.2c0,0,0.1,0,0.1,0c0-0.1-0.1-0.2-0.2-0.2v0c0,0,0,0,0,0v0c0,0,0,0,0-0.1
	c0,0,0-0.1,0-0.1c0,0,0-0.1,0-0.1c0-0.1-0.1-0.3-0.1-0.4c0-0.2,0.1-0.3,0.2-0.4c0.1-0.1,0.1-0.2,0.2-0.3c0-0.1,0.1-0.2,0.2-0.3
	c0.1-0.1,0.2-0.1,0.3-0.2c0.1-0.1,0.2-0.1,0.2-0.1H10v4.3h4c0.2-0.1,0.3-0.2,0.5-0.3C14.6,42,14.8,41.9,14.9,41.8 M13.6,41.2
	C13.6,41.2,13.6,41.2,13.6,41.2C13.6,41.2,13.7,41.2,13.6,41.2c0.1-0.1,0.1-0.1,0.1-0.1c0,0,0,0,0.1,0
	C13.8,41.2,13.7,41.2,13.6,41.2 M12.4,41C12.4,41,12.4,41,12.4,41c0.1-0.2,0.2-0.3,0.3-0.4c0.1-0.1,0.2-0.1,0.3-0.2
	c0.1-0.1,0.3-0.3,0.5-0.4c0.1,0,0.1,0,0.2,0c0,0-0.1,0-0.1,0c0,0,0,0,0,0c0,0,0,0,0,0c-0.1,0.1-0.2,0.1-0.3,0.2
	c0,0.1-0.1,0.2-0.2,0.2c0,0,0,0,0,0C12.8,40.6,12.6,40.8,12.4,41 M13.1,40.5C13.1,40.5,13.1,40.5,13.1,40.5
	C13,40.5,13,40.5,13.1,40.5C13,40.6,13,40.6,13.1,40.5C13,40.5,13,40.5,13.1,40.5C13.1,40.5,13.1,40.5,13.1,40.5 M13.4,41.7
	C13.4,41.7,13.4,41.7,13.4,41.7C13.4,41.7,13.4,41.7,13.4,41.7C13.4,41.8,13.4,41.8,13.4,41.7C13.4,41.8,13.4,41.8,13.4,41.7
	c-0.1,0.1-0.1,0.1-0.1,0.1c0,0-0.1,0,0,0C13.3,41.8,13.3,41.8,13.4,41.7C13.4,41.7,13.4,41.7,13.4,41.7
	C13.4,41.7,13.4,41.7,13.4,41.7C13.4,41.7,13.5,41.7,13.4,41.7 M13.3,41.6C13.3,41.6,13.3,41.6,13.3,41.6
	C13.3,41.7,13.2,41.7,13.3,41.6c-0.1,0.1-0.2,0.1-0.2,0.1c0,0,0,0,0,0c0,0,0,0,0,0c0,0-0.1,0-0.1,0.1c0,0,0,0,0,0l0,0c0,0,0,0,0,0
	c0,0,0,0,0,0l0,0c0,0,0,0,0,0c0,0,0,0,0,0c0,0,0,0,0,0c0,0,0,0,0,0v0c0,0,0,0,0,0c0,0,0,0,0,0c0,0,0,0,0,0c0,0,0,0,0,0c0,0,0,0,0,0
	c0,0,0,0,0,0c0,0,0,0,0,0s0,0,0,0l0,0c0,0,0,0,0,0v0c0,0,0,0,0,0v0c0,0,0,0,0,0c0,0,0,0,0,0l0,0c0,0,0,0,0,0v0c0,0,0,0,0,0
	c0,0,0,0,0,0l0,0c0,0,0,0,0,0l0,0c0,0,0,0,0,0c0,0,0,0,0,0c0,0,0,0,0,0c0,0,0,0,0,0c0,0,0,0,0,0c0,0,0,0,0,0c0,0,0,0,0,0
	c0,0,0,0,0,0c0,0,0,0,0,0c0,0,0,0,0,0c0,0,0,0,0,0c0,0,0,0,0,0c0,0,0,0,0,0v0c0,0,0,0,0,0c0,0,0,0,0,0c0,0,0,0,0,0c0,0,0,0,0,0
	c0,0,0,0,0,0c0,0,0,0,0,0c0,0,0,0,0,0c0,0,0,0,0,0c0,0,0,0,0,0c0,0,0,0,0,0l0,0c0,0,0,0,0,0c0,0,0,0,0,0c0.1-0.1,0.2-0.1,0.3-0.1
	c0,0,0.1,0,0.1,0c0,0,0,0,0.1,0C13.4,41.6,13.4,41.6,13.3,41.6 M13.5,41.1C13.5,41.1,13.5,41.1,13.5,41.1L13.5,41.1
	C13.4,41.1,13.4,41.1,13.5,41.1c-0.1,0-0.1,0-0.2,0c-0.1,0-0.1,0.1-0.2,0.1c-0.1,0-0.2,0.1-0.3,0.1c0,0,0,0,0,0c0,0,0,0,0.1-0.1
	c0,0,0,0,0,0c0.1-0.1,0.2-0.1,0.2-0.2v0c0,0,0.1,0,0.1-0.1c0,0,0-0.1,0.1-0.1c0,0,0,0,0,0c0,0-0.1,0-0.1,0c0,0,0,0,0.1,0
	c0,0,0,0,0,0c0,0,0,0,0,0c0,0,0.1,0,0.1,0c-0.1,0-0.1,0-0.2,0c0-0.1,0.1-0.2,0.2-0.2c0,0,0,0,0,0c0,0,0,0.1-0.1,0.1
	c0.1,0,0.1,0,0.2,0c0,0,0,0,0,0c0,0,0.1,0,0.1,0c0,0,0,0-0.1,0c0.3,0.1,0.5,0.1,0.7,0.3C14.1,41,13.9,41,13.7,41c0,0,0,0-0.1,0
	c0,0,0,0,0,0c0,0-0.1,0-0.1,0C13.5,41.1,13.5,41.1,13.5,41.1"/>
<path class="st3" d="M21.8,38h-4.6c0,0,0,0,0,0c0,0,0.1,0,0.1,0.1c0.1,0,0.1,0.1,0.2,0.1c0,0,0,0.1,0,0.1c0,0,0,0.1-0.1,0.1
	c0,0-0.1,0-0.2,0c0,0-0.1,0-0.1,0c0.1,0,0.2,0.1,0.3,0.2c0,0,0,0,0.1,0c0,0,0,0,0,0c0,0,0,0,0,0h0c0,0,0-0.1,0.1-0.1
	c0,0,0.1,0.1,0,0.1c0,0-0.1,0.1-0.1,0.1c0,0,0,0,0,0.1c0,0,0,0.1,0,0.1c0,0.1,0,0.1,0.1,0.2c0,0.1,0.1,0.2,0.1,0.4
	c0,0.1,0,0.1,0,0.2c0,0.1,0.1,0.1,0.1,0.2c0,0,0.1,0.1,0.1,0.1c0,0.1,0.1,0.2,0.1,0.3c0,0.1-0.1,0-0.2,0.1c0,0,0,0.1,0,0.1
	c0,0.1,0,0.1-0.1,0.1c0,0,0,0,0.1,0c0,0,0,0.1,0,0.1c0,0-0.1,0.1-0.1,0.1c0,0.1,0,0.1,0,0.2c0,0.1-0.1,0.1-0.1,0.1c0,0-0.1,0-0.2,0
	c0,0,0,0,0,0c-0.1,0-0.3-0.1-0.4-0.1c0,0-0.1,0-0.1,0c0,0-0.1,0.1-0.1,0.1l0,0c0,0,0,0,0,0c0,0,0,0,0,0c0,0,0,0,0,0
	c0,0,0,0.1-0.1,0.1c0,0,0,0,0,0c0,0,0,0,0,0c0,0,0,0.1-0.1,0.1c-0.1,0.2,0,0.3,0,0.4c0,0,0.3,0.1,0.4,0.2c0.1,0,0.1,0.1,0.2,0.1h4.5
	V38z"/>
<path class="st4" d="M17.5,39.6C17.5,39.6,17.5,39.6,17.5,39.6c0.1,0.1,0,0.1-0.1,0.2h0c0,0,0,0.1,0,0.1c0,0,0,0-0.1,0
	c0,0,0.1,0.1,0.1,0c0,0,0,0,0,0c0,0,0,0,0,0c0,0,0,0,0,0v0c0,0-0.1,0-0.1,0c0.1,0,0.1,0,0.2,0c0,0,0-0.1,0-0.1c0,0,0,0,0,0
	c0,0,0,0,0,0c0,0,0,0,0,0c0,0,0,0,0,0c0,0,0.1-0.1,0.1-0.1C17.7,39.5,17.6,39.5,17.5,39.6C17.5,39.5,17.5,39.5,17.5,39.6
	c-0.1-0.1-0.1,0-0.2,0c-0.1,0-0.1,0-0.2,0.1c0.1,0,0.1,0,0.2,0C17.4,39.6,17.4,39.6,17.5,39.6"/>
<g>
	<path d="M24,38h1.3c0.9,0,1.5,0.5,1.5,1.3c0,0.5-0.2,0.9-0.7,1.1l1.3,1.9h-1l-1.1-1.7h-0.4v1.7H24V38z M24.8,38.8v1.1h0.5
		c0.4,0,0.6-0.2,0.6-0.5c0-0.3-0.2-0.5-0.6-0.5H24.8z"/>
	<path d="M28,38h2.5v0.7h-1.6v1h1.4v0.7h-1.4v1.1h1.6v0.7H28V38z M28.9,37.7l0.7-0.8h0.9l-0.8,0.8H28.9z"/>
	<path d="M31.6,38H33c0.9,0,1.5,0.5,1.5,1.3c0,0.8-0.6,1.3-1.5,1.3h-0.5v1.7h-0.9V38z M32.4,38.8v1.1H33c0.4,0,0.6-0.2,0.6-0.5
		c0-0.3-0.2-0.5-0.6-0.5H32.4z"/>
	<path d="M37.8,38h0.9v2.6c0,1.1-0.7,1.8-1.7,1.8c-1.1,0-1.7-0.7-1.7-1.8V38H36v2.7c0,0.6,0.3,0.9,0.9,0.9c0.5,0,0.9-0.3,0.9-0.9V38
		z"/>
	<path d="M39.7,38H41c0.9,0,1.4,0.4,1.4,1.2c0,0.3-0.2,0.6-0.4,0.8c0.4,0.2,0.7,0.6,0.7,1c0,0.8-0.6,1.3-1.6,1.3h-1.3V38z
		 M40.6,38.8v0.9H41c0.3,0,0.5-0.2,0.5-0.5c0-0.3-0.2-0.5-0.5-0.5H40.6z M40.6,40.4v1.1h0.5c0.4,0,0.6-0.2,0.6-0.6
		c0-0.4-0.2-0.5-0.6-0.5H40.6z"/>
	<path d="M43.6,38h0.9v3.5H46v0.8h-2.5V38z"/>
	<path d="M46.9,38h0.9v4.2h-0.9V38z"/>
	<path d="M53.4,42.6c0.1,0,0.2,0,0.3,0v0.7c-0.1,0.1-0.3,0.1-0.4,0.1c-0.5,0-0.9-0.2-1.3-0.6l-0.5-0.4c-0.2,0-0.4,0.1-0.6,0.1
		c-1.3,0-2.3-1-2.3-2.2s0.9-2.2,2.3-2.2c1.3,0,2.3,1,2.3,2.2c0,0.7-0.3,1.4-0.8,1.8l0.3,0.2C52.9,42.5,53.2,42.6,53.4,42.6z
		 M52.2,40.2c0-0.8-0.6-1.4-1.4-1.4c-0.8,0-1.4,0.6-1.4,1.4c0,0.8,0.6,1.4,1.4,1.4C51.7,41.6,52.2,41,52.2,40.2z"/>
	<path d="M56.5,38h0.9v2.6c0,1.1-0.7,1.8-1.7,1.8c-1.1,0-1.7-0.7-1.7-1.8V38h0.9v2.7c0,0.6,0.3,0.9,0.9,0.9c0.5,0,0.9-0.3,0.9-0.9
		V38z"/>
	<path d="M58.5,38H61v0.7h-1.6v1h1.4v0.7h-1.4v1.1H61v0.7h-2.5V38z"/>
	<path d="M63.7,38h2.5v0.7h-1.6v1h1.4v0.7h-1.4v1.8h-0.9V38z"/>
	<path d="M67,38h1.3c0.9,0,1.5,0.5,1.5,1.3c0,0.5-0.2,0.9-0.7,1.1l1.3,1.9h-1l-1.1-1.7h-0.4v1.7H67V38z M67.8,38.8v1.1h0.5
		c0.4,0,0.6-0.2,0.6-0.5c0-0.3-0.2-0.5-0.6-0.5H67.8z"/>
	<path d="M72.3,38h1.1l1.6,4.2h-0.9l-0.4-1.1H72l-0.4,1.1h-0.9L72.3,38z M73.4,40.5l-0.6-1.6l-0.6,1.6H73.4z"/>
	<path d="M75.7,38h1.1l1.9,3v-3h0.9v4.2h-1.1l-1.9-3.1v3.1h-0.9V38z"/>
	<path d="M83.8,41l0.7,0.5c-0.3,0.4-0.8,0.8-1.5,0.8l-0.5,0.9h-0.8l0.5-0.9c-1.1-0.2-1.8-1.1-1.8-2.2c0-1.2,0.9-2.2,2.3-2.2
		c0.8,0,1.4,0.3,1.8,0.9l-0.7,0.5c-0.2-0.3-0.6-0.6-1.1-0.6c-0.8,0-1.4,0.6-1.4,1.4c0,0.8,0.6,1.4,1.4,1.4
		C83.2,41.6,83.6,41.4,83.8,41z"/>
	<path d="M86.4,38h1.1l1.6,4.2h-0.9l-0.4-1.1h-1.7l-0.4,1.1h-0.9L86.4,38z M87.5,40.5L87,38.9l-0.6,1.6H87.5z"/>
	<path d="M89.8,38h0.9v4.2h-0.9V38z"/>
	<path d="M92.2,41.1c0.3,0.3,0.6,0.5,0.9,0.5c0.3,0,0.5-0.2,0.5-0.5c0-0.8-1.9-0.6-1.9-2c0-0.7,0.6-1.2,1.4-1.2
		c0.6,0,1.1,0.3,1.5,0.7L94,39.2c-0.2-0.3-0.5-0.5-0.8-0.5c-0.3,0-0.5,0.2-0.5,0.4c0,0.8,1.9,0.6,1.9,2c0,0.8-0.6,1.3-1.4,1.3
		c-0.7,0-1.2-0.3-1.6-0.7L92.2,41.1z"/>
	<path d="M95.5,38H98v0.7h-1.6v1h1.4v0.7h-1.4v1.1H98v0.7h-2.5V38z"/>
</g>
<g>
	<path class="st2" d="M15.8,6.4c0.8,0,1.6,0.2,2.3,0.5c0.7,0.3,1.3,0.7,1.9,1.2c0.5,0.5,0.9,1.1,1.3,1.8c0.3,0.7,0.5,1.5,0.5,2.3
		c0,0.6-0.1,1.3-0.3,1.8c-0.2,0.6-0.5,1.1-0.8,1.6c0.3,0.3,0.6,0.7,0.8,1.1c0.2,0.4,0.3,0.9,0.3,1.4h-2.5c0-0.2,0-0.4-0.1-0.5
		c-0.1-0.2-0.2-0.3-0.4-0.4c-0.4,0.2-0.9,0.4-1.4,0.5c-0.5,0.1-1,0.2-1.5,0.2c-0.8,0-1.5-0.2-2.2-0.5c-0.7-0.3-1.3-0.7-1.8-1.3
		c-0.5-0.5-0.9-1.1-1.2-1.9C10.1,13.7,10,13,10,12.2c0-0.8,0.2-1.6,0.5-2.3c0.3-0.7,0.7-1.3,1.2-1.8c0.5-0.5,1.1-0.9,1.8-1.2
		C14.2,6.5,15,6.4,15.8,6.4z M12.5,12.2c0,0.5,0.1,0.9,0.3,1.3c0.2,0.4,0.4,0.7,0.7,1c0.3,0.3,0.7,0.5,1.1,0.7
		c0.4,0.2,0.8,0.3,1.3,0.3c0.5,0,0.9-0.1,1.3-0.3c0.4-0.2,0.8-0.4,1.1-0.7c0.3-0.3,0.5-0.6,0.7-1c0.2-0.4,0.3-0.8,0.3-1.3
		c0-0.5-0.1-0.9-0.3-1.3c-0.2-0.4-0.4-0.8-0.7-1.1c-0.3-0.3-0.7-0.5-1.1-0.7c-0.4-0.2-0.8-0.3-1.3-0.3c-0.5,0-0.9,0.1-1.3,0.3
		c-0.4,0.2-0.8,0.4-1.1,0.7c-0.3,0.3-0.5,0.7-0.7,1.1C12.6,11.3,12.5,11.7,12.5,12.2z"/>
	<path class="st2" d="M26.9,18.2c-0.6,0-1.1-0.1-1.6-0.3c-0.5-0.2-0.9-0.5-1.3-0.9c-0.4-0.4-0.6-0.9-0.9-1.4
		c-0.2-0.5-0.3-1.1-0.3-1.8V9.3h2.3v4.5c0,0.3,0,0.5,0.1,0.8c0.1,0.3,0.2,0.5,0.3,0.7c0.1,0.2,0.3,0.4,0.6,0.5
		c0.2,0.1,0.5,0.2,0.8,0.2c0.3,0,0.6-0.1,0.8-0.2c0.3-0.1,0.5-0.3,0.7-0.4c0.2-0.2,0.3-0.4,0.4-0.7c0.1-0.3,0.2-0.5,0.2-0.8V9.3h2.3
		v8.9H29v-0.5c-0.3,0.2-0.6,0.3-1,0.4C27.6,18.1,27.3,18.2,26.9,18.2z"/>
	<path class="st2" d="M38.7,9.5H41v8.6h-2.3v-0.4c-0.7,0.4-1.4,0.5-2.1,0.5c-0.6,0-1.2-0.1-1.7-0.3c-0.5-0.2-1-0.5-1.4-1
		c-0.4-0.4-0.7-0.9-1-1.4c-0.2-0.5-0.3-1.1-0.3-1.7c0-0.6,0.1-1.2,0.3-1.7c0.2-0.5,0.5-1,1-1.4c0.4-0.4,0.9-0.7,1.4-0.9
		c0.5-0.2,1.1-0.3,1.7-0.3c0.4,0,0.7,0,1.1,0.1c0.4,0.1,0.7,0.2,1,0.4V9.5z M36.6,15.9c0.3,0,0.6-0.1,0.8-0.2
		c0.3-0.1,0.5-0.3,0.7-0.4c0.2-0.2,0.3-0.4,0.4-0.7c0.1-0.3,0.2-0.5,0.2-0.8c0-0.3-0.1-0.6-0.2-0.8c-0.1-0.3-0.3-0.5-0.4-0.7
		c-0.2-0.2-0.4-0.3-0.7-0.4c-0.3-0.1-0.5-0.2-0.8-0.2c-0.3,0-0.6,0.1-0.8,0.2s-0.5,0.3-0.7,0.4c-0.2,0.2-0.3,0.4-0.4,0.7
		c-0.1,0.3-0.2,0.5-0.2,0.8c0,0.3,0.1,0.6,0.2,0.8c0.1,0.3,0.3,0.5,0.4,0.7c0.2,0.2,0.4,0.3,0.7,0.4C36,15.8,36.3,15.9,36.6,15.9z"
		/>
	<path class="st2" d="M44.5,6.7v0.5v10.4V18h-2.4v-0.3V7.2V6.7H44.5z"/>
	<path class="st2" d="M47.1,6.6c0.4,0,0.7,0.1,0.9,0.4c0.3,0.3,0.4,0.6,0.4,0.9c0,0.4-0.1,0.7-0.4,0.9c-0.3,0.3-0.6,0.4-0.9,0.4
		c-0.4,0-0.7-0.1-0.9-0.4c-0.3-0.3-0.4-0.6-0.4-0.9c0-0.4,0.1-0.7,0.4-0.9C46.4,6.7,46.8,6.6,47.1,6.6z M48,9.5h0.3v0.3v7.8V18H48
		h-1.7h-0.3v-0.3V9.8V9.5h0.3H48z"/>
	<path class="st2" d="M53.9,9.1c0.6,0,1.2,0.1,1.8,0.4c0.6,0.2,1,0.6,1.4,1c0.4,0.4,0.7,0.9,1,1.4c0.2,0.6,0.4,1.1,0.4,1.8
		c0,0.6-0.1,1.2-0.4,1.8c-0.2,0.6-0.6,1-1,1.4c-0.4,0.4-0.9,0.7-1.4,1c-0.6,0.2-1.1,0.4-1.8,0.4c-0.6,0-1.2-0.1-1.8-0.4
		c-0.6-0.2-1-0.6-1.4-1c-0.4-0.4-0.7-0.9-1-1.4c-0.2-0.6-0.4-1.1-0.4-1.8c0-0.6,0.1-1.2,0.4-1.8c0.2-0.6,0.6-1,1-1.4
		c0.4-0.4,0.9-0.7,1.4-1C52.7,9.2,53.3,9.1,53.9,9.1z M53.9,15.9c0.3,0,0.6-0.1,0.9-0.2c0.3-0.1,0.5-0.3,0.7-0.5
		c0.2-0.2,0.4-0.4,0.5-0.7c0.1-0.3,0.2-0.6,0.2-0.9c0-0.3-0.1-0.6-0.2-0.9c-0.1-0.3-0.3-0.5-0.5-0.7c-0.2-0.2-0.4-0.4-0.7-0.5
		c-0.3-0.1-0.6-0.2-0.9-0.2c-0.3,0-0.6,0.1-0.9,0.2c-0.3,0.1-0.5,0.3-0.7,0.5c-0.2,0.2-0.4,0.4-0.5,0.7c-0.1,0.3-0.2,0.6-0.2,0.9
		c0,0.3,0.1,0.6,0.2,0.9c0.1,0.3,0.3,0.5,0.5,0.7c0.2,0.2,0.4,0.4,0.7,0.5C53.3,15.8,53.6,15.9,53.9,15.9z"/>
	<path class="st2" d="M64.2,18.2c-0.4,0-0.7,0-1.1-0.1c-0.4-0.1-0.7-0.2-1-0.4v3.1h-2.3V9.5h2.3v0.4c0.6-0.4,1.3-0.5,2.1-0.5
		c0.6,0,1.2,0.1,1.7,0.3s1,0.5,1.4,1c0.4,0.4,0.7,0.9,0.9,1.4c0.2,0.5,0.3,1.1,0.3,1.7c0,0.6-0.1,1.2-0.3,1.7
		c-0.2,0.5-0.5,1-0.9,1.4c-0.4,0.4-0.9,0.7-1.4,0.9C65.4,18.1,64.8,18.2,64.2,18.2z M64.2,11.7c-0.3,0-0.6,0.1-0.8,0.2
		c-0.3,0.1-0.5,0.3-0.7,0.4c-0.2,0.2-0.3,0.4-0.4,0.7c-0.1,0.3-0.2,0.5-0.2,0.8c0,0.3,0.1,0.6,0.2,0.8c0.1,0.3,0.3,0.5,0.4,0.7
		c0.2,0.2,0.4,0.3,0.7,0.4c0.3,0.1,0.5,0.2,0.8,0.2c0.3,0,0.6-0.1,0.8-0.2c0.3-0.1,0.5-0.3,0.7-0.4c0.2-0.2,0.3-0.4,0.4-0.7
		c0.1-0.3,0.2-0.5,0.2-0.8c0-0.3-0.1-0.6-0.2-0.8c-0.1-0.3-0.3-0.5-0.4-0.7c-0.2-0.2-0.4-0.3-0.7-0.4C64.8,11.7,64.5,11.7,64.2,11.7
		z"/>
	<path class="st2" d="M70.8,6.6c0.4,0,0.7,0.1,0.9,0.4c0.3,0.3,0.4,0.6,0.4,0.9c0,0.4-0.1,0.7-0.4,0.9c-0.3,0.3-0.6,0.4-0.9,0.4
		c-0.4,0-0.7-0.1-0.9-0.4c-0.3-0.3-0.4-0.6-0.4-0.9c0-0.4,0.1-0.7,0.4-0.9C70.2,6.7,70.5,6.6,70.8,6.6z M71.7,9.5H72v0.3v7.8V18
		h-0.3H70h-0.3v-0.3V9.8V9.5H70H71.7z"/>
</g>
<line class="st5" x1="87.7" y1="40" x2="87.7" y2="40.9"/>
</svg>
