

<svg version="1.1"  xmlns="http://www.w3.org/2000/svg" xmlns:xlink="http://www.w3.org/1999/xlink" x="0px" y="0px"
	 viewBox="0 0 180 80" style="enable-background:new 0 0 180 80;" xml:space="preserve">
<style type="text/css">
	.st0{fill:url(#SVGID_1_);}
	.st1{fill:url(#SVGID_2_);}
	.st2{fill:url(#SVGID_3_);}
	.st3{fill:url(#SVGID_4_);}
	.st4{fill:url(#SVGID_5_);}
	.st5{fill:url(#SVGID_6_);}
	.st6{fill:url(#SVGID_7_);}
	.st7{fill:url(#SVGID_8_);}
	.st8{fill:url(#SVGID_9_);}
	.st9{fill:#494949;}
</style>
<g>
	<g>
		<linearGradient id="SVGID_1_" gradientUnits="userSpaceOnUse" x1="86.8705" y1="24.767" x2="114.1891" y2="8.2103">
			<stop  offset="4.104537e-03" style="stop-color:#2B8BC6"/>
			<stop  offset="1" style="stop-color:#ABDAE7"/>
		</linearGradient>
		<path class="st0" d="M82.3,21.9c-4.4-1.4-9,0.6-10.2,4.4c-1.2,3.8,1.4,8.1,5.8,9.5c4.4,1.4,9-0.6,10.2-4.4
			C89.3,27.6,86.7,23.4,82.3,21.9z"/>
		<linearGradient id="SVGID_2_" gradientUnits="userSpaceOnUse" x1="95.7367" y1="39.3962" x2="123.0553" y2="22.8395">
			<stop  offset="4.104537e-03" style="stop-color:#2B8BC6"/>
			<stop  offset="1" style="stop-color:#ABDAE7"/>
		</linearGradient>
		<path class="st1" d="M93.1,31.3c-3.2,1.5-4.3,6.1-2.3,10.3s6.2,6.4,9.4,4.9c3.2-1.5,4.3-6.1,2.3-10.3
			C100.5,31.9,96.3,29.8,93.1,31.3z"/>
		<linearGradient id="SVGID_3_" gradientUnits="userSpaceOnUse" x1="97.257" y1="41.9047" x2="124.5755" y2="25.348">
			<stop  offset="4.104537e-03" style="stop-color:#2B8BC6"/>
			<stop  offset="1" style="stop-color:#ABDAE7"/>
		</linearGradient>
		<path class="st2" d="M104.9,29.5c-1.9,1.1-1.9,4.5-0.1,7.7c1.8,3.2,4.8,4.8,6.7,3.8c1.9-1.1,1.9-4.5,0.1-7.7
			C109.8,30.2,106.8,28.5,104.9,29.5z"/>
		<linearGradient id="SVGID_4_" gradientUnits="userSpaceOnUse" x1="93.7236" y1="36.0745" x2="121.0421" y2="19.5178">
			<stop  offset="4.104537e-03" style="stop-color:#2B8BC6"/>
			<stop  offset="1" style="stop-color:#ABDAE7"/>
		</linearGradient>
		<path class="st3" d="M112,24.5c-1.9-2.1-4.2-3.2-5.1-2.3c-1,0.9-0.2,3.3,1.6,5.4c1.9,2.1,4.2,3.2,5.1,2.3
			C114.6,29.1,113.9,26.6,112,24.5z"/>
		<linearGradient id="SVGID_5_" gradientUnits="userSpaceOnUse" x1="88.6571" y1="27.7148" x2="115.9756" y2="11.1581">
			<stop  offset="4.104537e-03" style="stop-color:#2B8BC6"/>
			<stop  offset="1" style="stop-color:#ABDAE7"/>
		</linearGradient>
		<path class="st4" d="M109.2,20c0.8-0.8,0.1-2.7-1.5-4.3c-1.6-1.6-3.6-2.3-4.3-1.5c-0.8,0.8-0.1,2.7,1.5,4.3
			C106.5,20.1,108.4,20.8,109.2,20z"/>
		<linearGradient id="SVGID_6_" gradientUnits="userSpaceOnUse" x1="83.4672" y1="19.1515" x2="110.7858" y2="2.5948">
			<stop  offset="4.104537e-03" style="stop-color:#2B8BC6"/>
			<stop  offset="1" style="stop-color:#ABDAE7"/>
		</linearGradient>
		<path class="st5" d="M97.8,11.2c1.7,1.3,3.5,1.8,4.2,1s-0.2-2.5-1.8-3.9c-1.7-1.3-3.5-1.8-4.2-1C95.3,8.1,96.2,9.9,97.8,11.2z"/>
		<linearGradient id="SVGID_7_" gradientUnits="userSpaceOnUse" x1="79.127" y1="11.9901" x2="106.4455" y2="-4.5666">
			<stop  offset="4.104537e-03" style="stop-color:#2B8BC6"/>
			<stop  offset="1" style="stop-color:#ABDAE7"/>
		</linearGradient>
		<path class="st6" d="M93.6,8c0.7-1-0.4-2.9-2.5-4.3c-2-1.4-4.2-1.7-4.9-0.8c-0.7,1,0.4,2.9,2.5,4.3C90.7,8.6,92.9,9,93.6,8z"/>
		<linearGradient id="SVGID_8_" gradientUnits="userSpaceOnUse" x1="76.5969" y1="7.8052" x2="103.9155" y2="-8.7515">
			<stop  offset="4.104537e-03" style="stop-color:#2B8BC6"/>
			<stop  offset="1" style="stop-color:#ABDAE7"/>
		</linearGradient>
		<path class="st7" d="M78.9,8.4c2.9,1.3,5.9,1.2,6.6-0.3S84.3,4.3,81.3,3c-2.9-1.3-5.9-1.2-6.6,0.3S75.9,7,78.9,8.4z"/>
		<linearGradient id="SVGID_9_" gradientUnits="userSpaceOnUse" x1="78.5553" y1="11.0468" x2="105.8738" y2="-5.5099">
			<stop  offset="4.104537e-03" style="stop-color:#2B8BC6"/>
			<stop  offset="1" style="stop-color:#ABDAE7"/>
		</linearGradient>
		<path class="st8" d="M81.5,16.6c1-2.5-1.3-5.9-5.3-7.5c-4-1.7-8.1-1-9.1,1.5c-1,2.5,1.3,5.9,5.3,7.5
			C76.4,19.8,80.5,19.2,81.5,16.6z"/>
	</g>
	<g>
		<path class="st9" d="M47.5,60h-7.8v18h7.9l0.1,0c0.1,0,7.2-1.3,7.2-9C54.9,61.5,49.1,60,47.5,60z M47.4,76.1h-5.8V61.9h6
			c0.1,0,5.4,0.4,5.4,7.1C53,74.8,48.1,76,47.4,76.1z"/>
		<polygon class="st9" points="78.2,70 81.8,70 86.8,77.9 89.1,77.9 83.3,68.8 88.6,59.7 86.4,59.7 81.6,68.1 78.2,68.1 78.2,60 
			76.4,60 76.4,77.8 78.2,77.8 		"/>
		<polygon class="st9" points="91.6,77.8 102.9,77.8 102.9,76 93.5,76 93.5,69.8 101.3,69.8 101.3,67.9 93.5,67.9 93.5,61.7 
			102.9,61.7 102.9,59.8 91.6,59.8 		"/>
		<polygon class="st9" points="107.7,60 105.8,60 106,77.8 116.1,77.8 116.1,76 107.9,76 		"/>
		<rect x="118" y="60" class="st9" width="1.9" height="17.9"/>
		<path class="st9" d="M58.5,62.6c-2.1,2.6-2,6.3-2,6.8c0,0.5,0.1,4.3,2.9,6.8c2,1.8,4.8,1.8,5.1,1.8c0,0,0,0,0,0h0.2v-1.9h-0.2
			c0,0,0,0,0,0c-0.1,0-2.3,0-3.8-1.3c-2.3-2-2.2-5.4-2.2-5.4l0,0l0,0c0,0-0.2-3.3,1.5-5.5c1.7-2.1,3.9-2.2,4.3-2.2c0,0,0.1,0,0.1,0
			l0.3,0v-1.9h-0.3C64,59.7,60.9,59.7,58.5,62.6z"/>
		<path class="st9" d="M72.7,62.6c-2.4-2.9-5.5-2.9-5.9-2.9h-0.1v1.9h0.1l0.1,0c0,0,2.5-0.1,4.4,2.2c1.8,2.1,1.5,5.4,1.5,5.5l0,0.1
			l0,0.1c0,0,0.1,3.1-2.1,5.2c-1.5,1.4-3.8,1.5-4,1.5V78c0.2,0,3.2,0,5.3-2c2.7-2.6,2.7-6.1,2.7-6.6C74.7,68.8,74.8,65.1,72.7,62.6z
			"/>
		<path class="st9" d="M125.1,62.6c-2.1,2.6-2,6.3-2,6.8c0,0.5,0.1,4.3,2.9,6.8c2,1.8,4.8,1.8,5.1,1.8c0,0,0,0,0,0h0.2v-1.9h-0.2
			c0,0,0,0,0,0c-0.1,0-2.3,0-3.8-1.3c-2.3-2-2.2-5.4-2.2-5.4l0,0l0,0c0,0-0.2-3.3,1.5-5.5c1.7-2.1,3.9-2.2,4.3-2.2c0,0,0.1,0,0.1,0
			l0.3,0v-1.9H131C130.6,59.7,127.5,59.7,125.1,62.6z"/>
		<path class="st9" d="M139.3,62.6c-2.4-2.9-5.5-2.9-5.9-2.9h-0.1v1.9h0.1l0.1,0c0,0,2.5-0.1,4.4,2.2c1.8,2.1,1.5,5.4,1.5,5.5l0,0.1
			l0,0.1c0,0,0.1,3.1-2.1,5.2c-1.5,1.4-3.8,1.5-4,1.5V78c0.2,0,3.2,0,5.3-2c2.7-2.6,2.7-6.1,2.7-6.6
			C141.3,68.8,141.4,65.1,139.3,62.6z"/>
	</g>
</g>
</svg>
