

<svg version="1.1"  xmlns="http://www.w3.org/2000/svg" xmlns:xlink="http://www.w3.org/1999/xlink" x="0px" y="0px"
	 viewBox="0 0 176 38.5" style="enable-background:new 0 0 176 38.5;" xml:space="preserve">
<style type="text/css">
	.st0{fill:#024F9E;}
	.st1{fill:#EC71A9;}
	.st2{fill:#93C352;}
	.st3{fill:#FCC00A;}
</style>
<g>
	<g>
		<path class="st0" d="M80.3,1.3c0,1.1,0,2.2,0,3.4c-1.4,0-2.7,0-4.1,0c0-1.1,0-2.2,0-3.4C77.6,1.3,79,1.3,80.3,1.3z"/>
		<path class="st0" d="M124.5,1.3c0,1.1,0,2.2,0,3.4c-1.4,0-2.6,0-4,0c0-1.1,0-2.3,0-3.4C121.8,1.3,123.1,1.3,124.5,1.3z"/>
		<path class="st0" d="M143.3,25.6c-1.4,0-2.7,0-4,0c0-0.3,0-0.5,0-0.7c0-3.4,0-6.8,0-10.2c0-0.5-0.1-1-0.2-1.6
			c-0.1-0.7-0.6-1.2-1.3-1.3c-0.9-0.2-1.8-0.2-2.7,0c-1.4,0.3-2.4,1.5-2.5,3.1c-0.1,0.8-0.1,1.6-0.1,2.4c0,2.6,0,5.2,0,7.8
			c0,0.2,0,0.3,0,0.5c-1.3,0-2.6,0-4,0c0-5.6,0-11.3,0-16.9c1.3,0,2.6,0,3.9,0c0,0.9,0,1.7,0,2.6c0.1-0.1,0.1-0.1,0.2-0.2
			c0.7-1.5,2-2.2,3.5-2.5c1.4-0.2,2.7-0.2,4.1,0.2c1.4,0.4,2.4,1.3,2.6,2.8c0.1-0.1,0.2-0.2,0.2-0.2c0.7-1.6,1.9-2.5,3.6-2.8
			c1.3-0.2,2.6-0.2,3.9,0.2c2,0.6,3,1.9,3.4,3.9c0.1,0.7,0.2,1.4,0.2,2.1c0,3.4,0,6.8,0,10.2c0,0.2,0,0.3,0,0.5c-1.4,0-2.7,0-4.1,0
			c0-0.2,0-0.4,0-0.5c0-3.3,0-6.6,0-9.9c0-0.6-0.1-1.2-0.3-1.8c-0.3-1-1.1-1.6-2.2-1.7c-0.6,0-1.3,0-1.9,0.1
			c-1.4,0.3-2.3,1.5-2.3,3.1c-0.1,1.6,0,3.1,0,4.7c0,1.9,0,3.8,0,5.6C143.4,25.3,143.3,25.4,143.3,25.6z"/>
		<path class="st0" d="M116.6,13.3c-1.1,0-2,0-3,0c-0.9,0-0.9,0-1.1-0.9c-0.2-0.8-0.5-1.1-1.3-1.2c-1.2-0.1-2.4-0.1-3.5,0
			c-2,0.3-2.1,1.9-1.6,3.2c0.1,0.2,0.4,0.4,0.6,0.5c1.1,0.2,2.2,0.2,3.3,0.4c1.3,0.1,2.6,0.2,3.9,0.4c2.3,0.4,2.9,1.1,3.2,3.4
			c0.2,1.2,0.1,2.5-0.3,3.7c-0.5,1.6-1.8,2.3-3.3,2.6c-2,0.4-4,0.5-6,0.3c-1-0.1-2-0.2-3-0.4c-1.7-0.4-2.6-1.5-2.8-3.2
			c-0.1-0.6-0.1-1.2-0.1-1.8c1.5,0,2.8,0,4.1,0c0,0.4,0,0.8,0,1.1c0.2,0.9,0.9,1.3,1.7,1.5c1.4,0.3,2.7,0.3,4.1-0.1
			c1.3-0.4,1.9-1.5,1.4-2.8c-0.3-0.8-1-1.3-2.1-1.3s-2.3,0-3.4-0.1s-2.1-0.3-3.2-0.6s-1.9-1.1-2.2-2.2c-0.4-1.5-0.5-3-0.1-4.5
			s1.5-2.2,2.9-2.5c2-0.4,4-0.5,6-0.3c1.1,0.1,2.1,0.2,3.1,0.4c1.6,0.3,2.3,1.5,2.5,3C116.6,12.3,116.6,12.8,116.6,13.3z"/>
		<path class="st0" d="M98.6,13.3c-0.7,0-1.2,0-1.8,0c-0.6,0-1.2,0-1.8,0c-0.3,0-0.4-0.1-0.4-0.4c-0.2-1.3-0.4-1.6-1.7-1.8
			c-1.1-0.1-2.1-0.1-3.2,0.1c-1.8,0.3-2.1,1.7-1.6,3.2c0.1,0.2,0.4,0.5,0.6,0.5c1,0.2,2.1,0.2,3.1,0.4c1.4,0.1,2.8,0.2,4.2,0.5
			c2.2,0.4,2.8,1.1,3.1,3.3c0.2,1.1,0.1,2.3-0.2,3.4c-0.5,1.7-1.8,2.6-3.4,2.9c-2,0.4-4,0.5-6,0.3c-1-0.1-2.1-0.2-3.1-0.5
			c-1.7-0.4-2.6-1.6-2.8-3.3c-0.1-0.6-0.1-1.1-0.1-1.7c1.4,0,2.8,0,4.2,0c0,0.1,0,0.2,0,0.4c-0.2,1,0.2,1.8,1.2,2.1
			c1.6,0.5,3.2,0.5,4.7,0c1.1-0.4,1.5-1.2,1.4-2.3c-0.2-1.1-0.9-1.7-2.2-1.8c-1.1,0-2.2,0-3.3-0.1c-1.1-0.1-2.2-0.3-3.2-0.5
			c-1.1-0.3-1.9-1-2.3-2.2c-0.5-1.5-0.5-3.1-0.1-4.6c0.4-1.5,1.5-2.2,2.9-2.5c2-0.4,3.9-0.5,5.9-0.3c1.1,0.1,2.1,0.2,3.1,0.4
			c1.6,0.3,2.3,1.5,2.5,3C98.5,12.3,98.5,12.8,98.6,13.3z"/>
		<path class="st0" d="M59.2,14.5c-1.4,0-2.7,0-4,0c0-0.1-0.1-0.3-0.1-0.4c-0.3-1.5-0.9-2.2-2.4-2.4c-1.1-0.2-2.1-0.1-3.2,0.2
			c-0.7,0.2-1.1,0.6-1.2,1.3c-0.1,1.1-0.3,2.1-0.3,3.2c0,1.3,0,2.5,0.2,3.8c0.2,1.6,0.6,2,2.1,2.3c1.2,0.2,2.3,0.2,3.5,0
			c0.7-0.2,1.2-0.6,1.3-1.3s0.2-1.3,0.3-2c1.3,0,2.6,0,4,0c0,0.4,0,0.7-0.1,1.1c-0.1,0.7-0.1,1.3-0.2,2c-0.2,1.3-1,2.1-2.2,2.7
			c-1,0.5-2.1,0.7-3.2,0.8c-1.9,0.1-3.9,0.1-5.8-0.3c-1.9-0.4-3.2-1.6-3.6-3.5c-0.5-2-0.6-4-0.4-6.1c0.1-1.2,0.2-2.3,0.5-3.5
			c0.4-1.9,1.7-3.1,3.6-3.5c2.6-0.6,5.1-0.5,7.7,0c2,0.4,3,1.7,3.3,3.6C59,13.1,59.1,13.8,59.2,14.5z"/>
		<path class="st0" d="M74.1,19.1c-0.1,1.2-0.1,2.4-0.3,3.6s-1,2.1-2.2,2.5c-1.9,0.7-3.8,0.8-5.8,0.3s-3-2.1-3-4.1
			c-0.1-3,0-6.1,0-9.2c0-0.6,0-0.6-0.6-0.6c-0.4,0-0.9,0-1.3,0c-0.1,0-0.3-0.1-0.3-0.2c0-0.9,0-1.9,0-2.8c0.7,0,1.4,0,2.2,0
			c0-1.3,0-2.5,0-3.8c1.4,0,2.7,0,4,0c0,1.3,0,2.5,0,3.8c2.2,0,4.4,0,6.5,0c0,1,0,2,0,3.1c-0.2,0-0.4,0-0.6,0c-1.8,0-3.7,0-5.5,0
			c-0.3,0-0.5,0.1-0.5,0.4c0,2.8,0,5.5,0,8.3c0,0.3,0,0.6,0.1,0.9c0.2,1,0.8,1.4,1.8,1.4c0.9,0,1.6-0.6,1.7-1.6
			c0.1-0.3,0.1-0.6,0.1-1c0-0.3,0-0.6,0-0.9C71.7,19.1,72.8,19.1,74.1,19.1z"/>
		<path class="st0" d="M80.3,25.6c-1.3,0-2.7,0-4,0c0-5.6,0-11.3,0-16.9c1.3,0,2.7,0,4,0C80.3,14.3,80.3,19.9,80.3,25.6z"/>
		<path class="st0" d="M124.4,25.6c-1.3,0-2.6,0-4,0c0-5.6,0-11.3,0-16.9c1.3,0,2.6,0,4,0C124.4,14.3,124.4,19.9,124.4,25.6z"/>
		<path class="st0" d="M22.1,7.7c-0.2-1.3-0.6-2.6-1.4-3.8c-1-1.3-2.3-1.9-3.8-2.2c-0.8-0.2-1.7-0.3-2.6-0.4c-4.3,0-8.6,0-13,0
			c0,0.2,0,0.4,0,0.6c0,7.7,0,15.3,0,23c0,0.2,0,0.5,0,0.7c0.2,0,0.3,0,0.4,0c4.1,0,8.1,0,12.2,0c1.1,0,2.2-0.2,3.2-0.4
			c2.2-0.4,3.8-1.7,4.3-4c0.5-2,0.7-4,0.8-6C22.4,12.7,22.5,10.2,22.1,7.7z M17.4,18.3c-0.3,2.1-1.3,3.1-3.4,3.3
			c-0.7,0.1-1.3,0.1-2,0.1c-1.9,0-3.8,0-5.7,0c-0.1,0-0.3,0-0.5,0c0-5.5,0-11,0-16.6c0.2,0,0.4,0,0.5,0c2.2,0,4.3,0,6.5,0
			c0.8,0,1.7,0.2,2.4,0.4c1,0.3,1.7,1,1.9,2c0.2,1.3,0.4,2.5,0.5,3.8C17.8,13.7,17.7,16,17.4,18.3z"/>
		<path class="st0" d="M173.4,12.4c-0.4-1.9-1.4-3.2-3.4-3.6c-0.8-0.2-1.6-0.3-2.5-0.4c-2.2-0.1-4.3-0.1-6.4,0.5
			c-1.3,0.4-2.3,1-2.7,2.3c-0.3,0.8-0.5,1.6-0.6,2.5c-0.3,1.9-0.3,3.8-0.1,5.7c0.1,1.1,0.3,2.2,0.6,3.2c0.3,1.3,1.2,2.1,2.4,2.5
			c1.6,0.6,3.3,0.6,5.1,0.7c1.1-0.1,2.2-0.1,3.3-0.3c2.9-0.5,3.7-1.6,4.2-3.8C174,18.6,174,15.5,173.4,12.4z M169.6,18.3
			c0,0.7-0.1,1.3-0.2,2c-0.2,1.5-0.8,2.1-2.3,2.3c-1.1,0.2-2.1,0.2-3.2-0.1c-1.3-0.3-1.8-0.8-1.9-2.1c-0.1-1.6-0.2-3.2-0.2-4.8
			c0-0.8,0.2-1.6,0.3-2.4c0.1-0.7,0.6-1.1,1.3-1.3c0.8-0.2,1.5-0.3,2.2-0.4c0.8,0.1,1.4,0.1,2,0.3c1.1,0.2,1.6,0.9,1.8,1.9
			C169.7,15.2,169.7,16.7,169.6,18.3z"/>
		<path class="st0" d="M40.7,12.3c-0.4-1.9-1.4-3.1-3.3-3.5c-2.9-0.6-5.9-0.6-8.8,0.1c-1.6,0.4-2.6,1.3-3,3c-0.2,1-0.4,2-0.5,3.1
			c-0.2,2.3-0.1,4.7,0.4,7c0.4,1.8,1.4,3,3.3,3.4c1.5,0.3,2.9,0.4,4.4,0.5V26c1.3-0.2,2.7-0.3,4-0.5c1.8-0.3,3-1.4,3.4-3.2
			c0.2-1.2,0.4-2.4,0.5-3.7C41.1,16.4,41.1,14.4,40.7,12.3z M36.7,20.4c-0.1,1.3-0.9,2-2.1,2.1c-1.1,0.1-2.1,0.1-3.2,0
			c-1.7-0.3-1.9-1-2.1-2.4c-0.3-2-0.3-3.9,0-5.9c0-0.3,0.1-0.7,0.2-1c0.2-0.6,0.6-1.1,1.2-1.2c1.5-0.4,3-0.4,4.4-0.1
			c0.8,0.2,1.3,0.7,1.5,1.6c0.2,1.1,0.3,2.3,0.4,3.3C36.9,18.1,36.8,19.2,36.7,20.4z"/>
	</g>
	<rect x="1.2" y="34.4" class="st1" width="57.6" height="2.2"/>
	<rect x="58.8" y="34.4" class="st2" width="57.6" height="2.2"/>
	<rect x="116.3" y="34.4" class="st3" width="57.6" height="2.2"/>
</g>
</svg>
