

<svg version="1.1"  xmlns="http://www.w3.org/2000/svg" xmlns:xlink="http://www.w3.org/1999/xlink" x="0px" y="0px"
	 viewBox="0 0 180 80" style="enable-background:new 0 0 180 80;" xml:space="preserve">
<style type="text/css">
	.st0{fill:#6BBB5A;}
	.st1{fill:#609BBD;}
</style>
<g>
	<path class="st0" d="M20.1,61.6c0,0-4.6,1.1-7.6,0S6.3,57,5.9,55.7c-0.4-1.4-1.7-3.7-4.7-4.5c0,0,2.2-2.4,4.8-2.7
		c2.6-0.4,5.6-0.1,7.5,0.9c2,0.9,5.9,5.6,6.6,7.5c0.7,1.9,0.9,4,0.9,4s-1.2-4.6-7.6-7.8C13.4,53.1,19.4,58.3,20.1,61.6z"/>
	<path class="st0" d="M16,47.7c0,0-6.3-1.3-9.6-6.5S4.1,29.4,4,28.4c-0.1-1,0.2-3.2-3-4.9c0,0,5.7-0.7,9.1,0.9
		c3.4,1.6,8.6,5.9,8.5,12.3c-0.1,6.3-1.1,10-1.1,10.4c0,0.4,0,0.8,0,0.8s0.1-4.1-0.9-8.2s-3.3-5.6-3.3-5.6S16.8,39.2,16,47.7z"/>
	<path class="st0" d="M22.6,59.3c0,0-4.6-8.5-3.5-15.2c1.4-8.8,7.2-12.5,8.9-14.9s1-7.6,1-7.6s8.9,5.2,9.2,12.6s0.4,18.2-13.9,26
		c0,0,9.1-7.6,8.4-17.4C32.8,42.7,30.1,53.7,22.6,59.3z"/>
	<path class="st1" d="M30,19.3c0,0,9.8,6.4,10.7,15s-1,15.5-5.7,20s-12.1,9.3-18.6,10.4c0,0,12,3.6,23.3-3.1s17.7-20.9,18.9-22.9
		s7.6-10.4,8.9-11v-2.4c0,0-10.1,0.2-17.5,11.6C50,36.8,44.4,22.8,30,19.3z"/>
	<circle class="st1" cx="51.2" cy="22.8" r="5.4"/>
	<path class="st1" d="M70.2,19.3h1.5c0,0,1.2,0.2,1.2,1s0,12,0,12s0.4,0.3,0.5,0.1C73.6,32.3,82,20,82,20s0.7-0.8,2.9-0.7
		c2.2,0.1,2.9,0.6,2.7,1c-0.1,0.4-8.7,12.8-8.7,12.8L88,47.6c0,0,0.9,1.1-0.6,1.5c-1.5,0.4-4.5,0.1-4.5,0.1s-0.7-0.5-1.2-1.2
		s-7.6-12.4-7.6-12.4s-0.8-1.2-1.1-0.7c-0.3,0.5-0.2,13.3-0.2,13.3s-0.1,0.9-1.2,1.1c-1.2,0.2-2.8,0-2.8,0s-1.4,0.2-1.5-1.1
		s0-28.1,0-28.1s0.1-0.8,1-0.8C69.4,19.3,70.2,19.3,70.2,19.3z"/>
	<path class="st1" d="M116.1,27.2h1.2c0,0,1.5-0.1,1.6,0.5c0.1,0.6,0.2,20.4,0.2,20.4s0,1.3-1.2,1.4c-1.2,0.1-3.3,0-3.3,0
		s-0.6-0.3-0.7-1.4c-0.1-1,0-19.8,0-19.8s0.3-1.1,1.1-1.1C115.9,27.1,116.1,27.2,116.1,27.2z"/>
	<path class="st1" d="M127.5,27.1c0,0-1.5-0.1-1.9,0.3s-0.4,20.3-0.4,20.3s0.1,1.6,1,1.6s3.2,0,3.2,0s1.1-0.7,1-2
		s-0.1-12.1-0.1-12.1s2.7-3.9,4.1-3.7c1.5,0.3,2,0.9,2.3,0.8s0.9-0.4,0.9-2.2c-0.1-1.8,0.2-3.3-1.6-3.3s-3-0.1-4.4,1.6
		c-1.5,1.6-1.8,2.3-2,1.9c-0.1-0.4-0.1-2.5-0.1-2.5s-0.4-0.7-1.1-0.8C127.7,27.1,127.5,27.1,127.5,27.1z"/>
	<path class="st1" d="M177.6,30v-1.5c0,0-1-1.8-5.5-1.6c-4.5,0.1-6.8,1.7-7.4,3.8c-0.6,2.1-1.4,6.3,2.7,8.2c4.1,1.9,7,3,6.6,5
		c-0.4,2-3.7,2.4-5.2,1.9c-1.5-0.5-3.2-1.4-3.5-1.5s-1.1-0.3-1.2,0.2c0,0.5-0.1,3,0.2,3.4c0.4,0.4,3.3,1.9,4.8,1.9
		c1.5,0.1,5.8,0.2,8.4-2.9c2.5-3.1,1.2-7.2-0.9-8.8s-6.2-3.4-6.8-3.7s-1.4-3,0.4-3.4c1.7-0.4,3.7-0.7,5-0.1s2.2,1.1,2.2,0.4
		S177.6,30,177.6,30z"/>
	<path class="st1" d="M155.3,27.6c-1.7-0.9-5-0.7-5-0.7s-4.9,0-6.8,1.7c-3.4,3-4.5,6.9-3.7,13.1c0.8,5.5,6,8,7.1,8
		c1.2,0,3.5,0.6,7.8-1c4.3-1.6,5.5-5.2,5.5-11.6C160.3,31.6,157.1,28.5,155.3,27.6z M155,39.6c-0.1,1.4-1.1,5.7-4.4,5.8
		c-3.3,0.1-5.6-1.6-5.7-6.3s1.4-7.6,4.9-8.1c0,0,3.4-0.2,4.3,2C154.9,35.4,155.1,37.8,155,39.6z"/>
	<path class="st1" d="M104.7,27.4c-1.2-0.9-5.9-0.9-8.1-0.6c-2.2,0.3-4.5,2-4.9,2.3c-0.4,0.4-0.3,1.8-0.3,2.7c0,0.9,1.2,1,1.2,1
		c0.9-0.3,2.3-1.3,5.5-2c3.2-0.7,4.4,1.7,4.6,2.1c0.2,0.5,0.2,2.6-0.2,3.2c-0.4,0.6-4.1-0.1-7.4,0.7c-3.2,0.7-5.2,3.4-4.9,6.5
		c0.2,3.1,1.6,5.6,4.7,6.4c3.1,0.8,5.1-0.4,5.7-0.7s2.5-1.8,2.8-1.8c0.3,0,0.1,0.6,0.3,1.3c0.1,0.7,0.9,0.9,0.9,0.9s1,0,2.2-0.1
		c1.2-0.2,1.1-0.8,1.1-0.8s0-10.9,0.1-14.5C108.1,30.3,105.9,28.3,104.7,27.4z M99.1,45.8c-0.7,0.1-3.4,0.3-3.7-1.7
		c-0.3-2,0.3-3.9,2.4-4.4c2.1-0.5,5,0,5,0l0.2,3.5C103,43.2,99.8,45.8,99.1,45.8z"/>
	<path class="st1" d="M116.6,18.2c0,0,2.1-0.4,2.5,0.9s0.4,2.4,0.4,2.4s0,2.5-2.5,2.6s-3.4-0.9-3.5-2.5S113.2,18.1,116.6,18.2z"/>
</g>
</svg>
