<?xml version="1.0" encoding="utf-8"?>
<!-- Generator: Adobe Illustrator 25.2.0, SVG Export Plug-In . SVG Version: 6.00 Build 0)  -->
<svg version="1.1" id="Calque_1" xmlns="http://www.w3.org/2000/svg" xmlns:xlink="http://www.w3.org/1999/xlink" x="0px" y="0px"
	 viewBox="0 0 108.7 50" style="enable-background:new 0 0 108.7 50;" xml:space="preserve">
<style type="text/css">
	.st0{fill:#0D2A3C;}
	.st1{fill:#FB4D41;}
	.st2{fill:#FFFFFF;}
</style>
<g>
	<path class="st0" d="M18.6,4c-1.1,0-1.9,0.9-1.9,1.9V31c0,0.4,0.1,0.7,0.3,1c-0.1,0.1-0.1,0.2-0.2,0.4c0,0,0,0,0,0l-2.8,9
		c-0.2,0.2-0.2,0.4-0.2,0.6v3c0,1.1,0.9,2,1.9,2h44.1c1.1,0,1.9-0.9,1.9-2v-3c0-0.2-0.1-0.5-0.2-0.6l-2.8-9c0-0.1-0.1-0.3-0.2-0.4
		c0.2-0.3,0.3-0.6,0.3-1V5.9c0-1.1-0.9-1.9-1.9-1.9H18.6z M18.6,6h38v25c0-0.1-0.1,0,0,0h-4.9c0,0-0.1,0-0.1,0h-28c0,0-0.1,0-0.1,0
		h-4.9c0.1,0,0-0.1,0,0V6z M18.4,33C18.4,33,18.4,33,18.4,33C18.4,33,18.4,33,18.4,33c0.1,0,0.2,0,0.2,0h3.7l-0.7,2.8
		c-0.1,0.5,0.2,1.1,0.7,1.2c0.1,0,0.2,0,0.2,0h30c0.6,0,1-0.4,1-1c0-0.1,0-0.2,0-0.2L52.9,33h3.7c0.1,0,0.1,0,0.2,0c0,0,0,0,0,0
		c0,0,0,0,0,0l2.5,8H15.8L18.4,33z M24.4,33h26.4l0.5,2H23.9L24.4,33z M33.6,38l-1,2h10l-1-2H33.6z M15.6,43h44v2c0,0,0,0,0,0H15.6
		c0,0,0,0,0,0V43z"/>
	<g>
		<circle class="st1" cx="80.8" cy="22.1" r="18.2"/>
		<polygon class="st1" points="49.2,20.8 68.4,15.6 66.7,26.4 		"/>
		<path class="st2" d="M80.5,14.3c-0.2,0-0.4,0-0.6,0.1l-12.1,4.7c-0.4,0.2-0.7,0.6-0.7,1v0.6h0.2c0.1,0.2,0.3,0.3,0.5,0.4l5.4,2.1
			v3.2h0c0,0,0,0,0,0c0,0.3,0.2,0.6,0.3,0.7c0.2,0.1,0.3,0.2,0.6,0.3c0.4,0.2,0.9,0.3,1.6,0.4c1.3,0.2,3,0.4,4.8,0.4
			c1.9,0,3.6-0.1,4.8-0.4c0.6-0.1,1.1-0.2,1.6-0.4c0.2-0.1,0.4-0.2,0.6-0.3c0.2-0.1,0.3-0.4,0.3-0.7c0,0,0,0,0,0h0v-3.2l2.4-0.9v6.1
			c-0.4,0.2-0.6,0.6-0.6,1c0,0.7,1.2,2.8,1.2,2.8s1.2-2.2,1.2-2.8c0-0.4-0.2-0.8-0.6-1v-6.6l1.7-0.7c0.2-0.1,0.4-0.2,0.5-0.4h0.2
			v-0.6c0-0.4-0.3-0.8-0.7-1l-12.1-4.7C80.9,14.4,80.7,14.3,80.5,14.3z M80.5,15.5c0.1,0,0.1,0,0.2,0l11.7,4.6L87.7,22
			c0-0.5-0.3-0.9-0.8-1c-0.9-0.4-3.2-1.1-6.5-1.1s-5.6,0.8-6.5,1.1v0c-0.4,0.2-0.7,0.6-0.8,1l-4.6-1.8l11.7-4.6
			C80.4,15.6,80.4,15.5,80.5,15.5z M80.5,21c3.1,0,5.2,0.7,6,1.1h0v0c0,0,0,0,0,0v3.2c-0.4-0.1-0.8-0.2-1.2-0.3
			c-1.3-0.2-3-0.4-4.8-0.4c-1.9,0-3.6,0.1-4.8,0.4c-0.5,0.1-0.9,0.2-1.2,0.3v-3.2c0,0,0,0,0,0C75.3,21.7,77.4,21,80.5,21z
			 M80.5,25.9c1.8,0,3.5,0.1,4.6,0.3c0.4,0.1,0.7,0.2,1,0.3c-0.3,0.1-0.5,0.2-1,0.3c-1.2,0.2-2.8,0.3-4.6,0.3s-3.5-0.1-4.6-0.3
			c-0.4-0.1-0.7-0.2-1-0.3c0.3-0.1,0.5-0.2,1-0.3C77,26,78.7,25.9,80.5,25.9z"/>
	</g>
	<path class="st0" d="M38,8.6c-2.3,0.1-3.8,1-4.4,2.4c-0.6,1.4-0.5,3.1,0,4.9c-0.2,0.3-0.4,0.6-0.4,1.2v0l0,0c0.1,0.6,0.2,1,0.5,1.3
		c0.1,0.1,0.3,0.2,0.4,0.2c0.1,0.5,0.2,1.1,0.5,1.5c0.1,0.2,0.3,0.5,0.4,0.6c0.1,0.1,0.1,0.1,0.2,0.2c0,0.6,0,1.1,0,1.7
		c-0.1,0.4-0.5,0.7-1.1,1c-0.6,0.3-1.4,0.6-2.2,0.9c-0.8,0.4-1.6,0.8-2.3,1.5c-0.7,0.7-1.1,1.6-1.2,2.8l0,0.5h19.6l0-0.5
		c-0.1-1.2-0.5-2.2-1.2-2.8c-0.7-0.7-1.5-1.1-2.3-1.5c-0.8-0.4-1.6-0.6-2.2-0.9c-0.6-0.3-1-0.6-1.1-1c0-0.6,0-1.1,0-1.7
		c0.1-0.1,0.1-0.1,0.2-0.2c0.1-0.2,0.3-0.4,0.4-0.6c0.2-0.4,0.4-1,0.5-1.5c0.2-0.1,0.3-0.1,0.5-0.2c0.2-0.3,0.4-0.7,0.4-1.3v0
		c0-0.5-0.1-0.9-0.3-1.2c0.3-0.8,0.6-2,0.5-3.3c-0.1-0.7-0.2-1.4-0.6-2c-0.4-0.5-1-0.9-1.8-1.1C40,8.9,39.1,8.6,38,8.6L38,8.6z
		 M38,9.6c1,0,1.6,0.3,1.8,0.6l0.1,0.2l0.2,0c0.7,0.1,1.1,0.4,1.3,0.7s0.4,0.9,0.5,1.5c0.1,1.2-0.3,2.6-0.5,3.2l-0.1,0.4l0.4,0.2
		c-0.1,0,0.2,0.1,0.1,0.5c0,0.5-0.2,0.7-0.2,0.8C41.6,18,41.5,18,41.6,18h-0.4l-0.1,0.4c-0.1,0.4-0.2,1-0.4,1.4
		c-0.1,0.2-0.2,0.4-0.3,0.5c-0.1,0.1-0.2,0.2-0.1,0.2l-0.2,0.1v0.3c0,0.5,0,0.9,0,1.4l-1.9,1l-1.9-1.1c0-0.5,0-0.9,0-1.4v-0.3
		l-0.2-0.1c0,0-0.1-0.1-0.2-0.2c-0.1-0.1-0.2-0.3-0.3-0.5c-0.2-0.4-0.4-0.9-0.4-1.3l0-0.4h-0.4c0.1,0,0,0-0.1-0.1
		c-0.1-0.1-0.2-0.4-0.3-0.8c0-0.4,0.2-0.6,0.2-0.6l0.3-0.2l-0.1-0.3c-0.5-1.8-0.5-3.4-0.1-4.5S36,9.6,38,9.6z M36,23.2l1.2,0.7
		l-1.1,1.4l-0.9-1.1C35.6,23.9,35.8,23.6,36,23.2z M40.1,23.3c0.2,0.4,0.5,0.7,0.8,0.9L40,25.3l-1.1-1.4L40.1,23.3z M34.3,24.7
		l1.4,1.7c0.1,0.1,0.2,0.2,0.4,0.2c0.1,0,0.3-0.1,0.4-0.2l1-1.2l0.4,0.3c0,0-0.9,1.5-1.1,3h-7.3c0.1-0.7,0.4-1.3,0.8-1.7
		c0.5-0.5,1.2-0.9,2-1.3C32.9,25.3,33.7,25,34.3,24.7z M41.8,24.7c0.7,0.3,1.4,0.6,2.2,0.9c0.8,0.3,1.5,0.7,2,1.2
		c0.4,0.4,0.7,1,0.8,1.7h-7.3c-0.2-1.6-1.1-3-1.1-3l0.4-0.3l1,1.2c0.1,0.1,0.2,0.2,0.4,0.2c0.1,0,0.3-0.1,0.4-0.2L41.8,24.7z"/>
</g>
</svg>
