<?xml version="1.0" encoding="utf-8"?>
<!-- Generator: Adobe Illustrator 21.1.0, SVG Export Plug-In . SVG Version: 6.00 Build 0)  -->
<svg version="1.1" id="Calque_1" xmlns="http://www.w3.org/2000/svg" xmlns:xlink="http://www.w3.org/1999/xlink" x="0px" y="0px"
	 viewBox="0 0 180 80" style="enable-background:new 0 0 180 80;" xml:space="preserve">
<style type="text/css">
	.st0{fill:#003A5D;}
	.st1{fill:#0083C2;}
	.st2{fill:#00B5E5;}
</style>
<g>
	<g>
		<path class="st0" d="M77.6,48c-0.9,0.7-2.2,1.2-3.7,1.2c-3.2,0-4.7-1.9-4.7-4.5s1.8-4.5,4.5-4.5c2.5,0,3.8,1.4,3.9,3.4l-2.3,0.5
			c-0.1-0.9-0.4-1.5-1.5-1.5c-1.1,0-1.7,0.9-1.7,2s0.7,2.2,2.2,2.2c0.8,0,1.7-0.4,2.3-0.9L77.6,48z"/>
		<path class="st0" d="M82.9,40.1c2.7,0,4.6,1.9,4.6,4.5s-1.9,4.5-4.6,4.5c-2.7,0-4.6-1.9-4.6-4.5C78.3,42.1,80.2,40.1,82.9,40.1
			 M82.9,46.7c1.2,0,2-0.9,2-2s-0.8-2-2-2c-1.2,0-1.9,0.9-1.9,2C80.9,45.8,81.7,46.7,82.9,46.7"/>
		<path class="st0" d="M91.4,40.4v0.9c0.6-0.6,1.5-1,2.6-1c1.4,0,2.2,0.5,2.7,1.5c0.6-0.9,1.6-1.4,2.9-1.4c2.2,0,3.1,1.7,3.1,3.8v2
			c0,0.4,0.1,0.8,0.5,0.8c0.2,0,0.6-0.1,0.8-0.2l0.1,2.2c-0.4,0.2-1.3,0.4-2.1,0.4c-1.3,0-2.1-0.7-2.1-2.4v-2.2
			c0-1.1-0.5-1.7-1.4-1.7c-0.7,0-1.2,0.4-1.4,0.9v5.3h-2.8v-4.5c0-1.1-0.5-1.7-1.4-1.7c-0.8,0-1.3,0.5-1.5,0.9v5.2h-2.7v-8.6h2.7
			V40.4z"/>
		<path class="st0" d="M105.6,52v-8.7c0-0.5-0.1-0.8-0.5-0.8c-0.3,0-0.8,0.1-0.8,0.2l-0.1-2.2c0.1,0,1-0.4,2-0.4s1.7,0.3,2,1.2
			c0.5-0.7,1.4-1.1,2.6-1.1c2.3,0,4,1.8,4,4.5c0,2.6-1.6,4.4-4,4.4c-1,0-1.9-0.4-2.4-0.9V52H105.6z M108.3,43.2v2.9
			c0.4,0.4,1,0.6,1.6,0.6c1.2,0,1.9-0.8,1.9-2c0-1.3-0.8-2.1-1.9-2.1C109.3,42.6,108.7,42.9,108.3,43.2"/>
		<path class="st0" d="M123.7,48c-0.9,0.7-2.2,1.2-3.6,1.2c-3.2,0-4.7-1.9-4.7-4.5s1.8-4.5,4.5-4.5c2.6,0,3.8,1.6,3.8,3.6
			c0,0.5-0.1,1.3-0.2,1.6H118c0.2,1,0.9,1.6,2.1,1.6c0.9,0,1.9-0.4,2.5-0.8L123.7,48z M121.4,43.4c0-0.7-0.5-1.2-1.5-1.2
			s-1.6,0.6-1.8,1.4h3.2L121.4,43.4L121.4,43.4z M120.9,39.4h-2.3l1.3-2.6h2.7L120.9,39.4z"/>
		<path class="st0" d="M128.4,38.2v2.2h3v2.1h-3v3c0,0.9,0.4,1.2,1,1.2c0.6,0,1.2-0.3,1.6-0.6l0.8,2.1c-0.9,0.5-2,0.9-3.3,0.9
			c-1.8,0-2.9-1.1-2.9-3.1v-3.5h-1.5v-2.1h1.5l0.3-2.2H128.4z"/>
		<path class="st0" d="M140.5,48c-0.9,0.7-2.2,1.2-3.6,1.2c-3.2,0-4.7-1.9-4.7-4.5s1.8-4.5,4.5-4.5c2.6,0,3.8,1.6,3.8,3.6
			c0,0.5-0.1,1.3-0.2,1.6h-5.5c0.2,1,0.9,1.6,2.1,1.6c0.9,0,1.9-0.4,2.5-0.8L140.5,48z M138.1,43.4c0-0.7-0.5-1.2-1.5-1.2
			s-1.6,0.6-1.8,1.4h3.2v-0.2H138.1z"/>
		<path class="st0" d="M144.5,40.4v0.9c0.6-0.7,1.5-1.1,2.6-1.1c2.2,0,3.1,1.7,3.1,3.8v2c0,0.4,0.1,0.8,0.5,0.8
			c0.3,0,0.6-0.1,0.8-0.2l0.1,2.2c-0.5,0.2-1.2,0.4-2,0.4c-1.4,0-2.2-0.7-2.2-2.4v-2.2c0-1.1-0.5-1.7-1.4-1.7
			c-0.8,0-1.3,0.6-1.6,1.1v5.1h-2.7v-8.6h2.8V40.4z"/>
		<path class="st0" d="M160.3,48c-0.9,0.7-2.2,1.2-3.7,1.2c-3.2,0-4.7-1.9-4.7-4.5s1.8-4.5,4.5-4.5c2.5,0,3.8,1.4,3.9,3.4l-2.4,0.5
			c-0.1-0.9-0.4-1.5-1.5-1.5c-1.1,0-1.7,0.9-1.7,2s0.7,2.2,2.2,2.2c0.8,0,1.7-0.4,2.3-0.9L160.3,48z"/>
		<path class="st0" d="M169.3,48c-0.9,0.7-2.2,1.2-3.6,1.2c-3.2,0-4.7-1.9-4.7-4.5s1.8-4.5,4.5-4.5c2.6,0,3.8,1.6,3.8,3.6
			c0,0.5-0.1,1.3-0.2,1.6h-5.5c0.2,1,0.9,1.6,2.1,1.6c0.9,0,1.9-0.4,2.5-0.8L169.3,48z M166.9,43.4c0-0.7-0.5-1.2-1.5-1.2
			s-1.6,0.6-1.8,1.4h3.2v-0.2H166.9z"/>
		<path class="st0" d="M176.4,43c-0.8-0.4-1.8-0.7-2.6-0.7c-0.6,0-1,0.2-1,0.6c0,0.3,0.2,0.4,0.7,0.6l1.5,0.4c1.6,0.4,2,1.3,2,2.4
			c0,1.7-1.3,2.8-3.6,2.8c-1.5,0-2.7-0.4-3.4-0.7l0.5-2.1c0.8,0.4,1.8,0.8,2.7,0.8c0.6,0,1-0.1,1-0.5c0-0.3-0.3-0.4-0.9-0.6
			l-1.4-0.4c-1.4-0.4-2.1-1.2-2.1-2.5c0-1.7,1.5-2.9,3.9-2.9c1.1,0,2.5,0.3,3.2,0.6L176.4,43z"/>
		<polygon class="st0" points="71,32.2 71,34.8 69.6,34.8 69.6,27.5 75.2,27.5 75.2,28.8 71,28.8 71,30.9 74.6,30.9 74.6,32.2 		"/>
		<path class="st0" d="M76.5,27.5h3.2c1.4,0,2.9,0.6,2.9,2.4c0,1.2-0.9,2.1-2.1,2.3c0.7,0.7,1.4,1.5,2.2,1.5c0.2,0,0.6-0.1,0.8-0.2
			l0.1,1.2c-0.3,0.1-0.7,0.3-1.2,0.3c-1.6,0-2.8-2.1-3.7-2.7H78v2.6h-1.5V27.5z M78,28.8V31h1.9c0.7,0,1.2-0.4,1.2-1.1
			s-0.5-1.1-1.2-1.1H78z"/>
		<path class="st0" d="M86.8,27.5h1.8l2.8,7.3h-1.5l-0.6-1.5H86l-0.6,1.5h-1.5L86.8,27.5z M86.3,32.2h2.6L87.7,29L86.3,32.2z"/>
		<polygon class="st0" points="93.8,29.9 93.8,34.8 92.3,34.8 92.3,27.5 93.6,27.5 97.7,32.4 97.7,27.5 99.2,27.5 99.2,34.8 
			97.9,34.8 		"/>
		<path class="st0" d="M107.3,33.7c-0.7,0.6-1.8,1.2-3,1.2c-2.2,0-3.8-1.4-3.8-3.7c0-2.4,1.6-3.8,3.8-3.8c1.9,0,2.9,1.1,3,2.8
			l-1.4,0.3c0-1-0.5-1.7-1.6-1.7c-1.3,0-2.2,0.9-2.2,2.4s0.9,2.3,2.2,2.3c0.9,0,1.7-0.4,2.3-0.9L107.3,33.7z"/>
		<polygon class="st0" points="108.6,34.8 108.6,27.5 114.4,27.5 114.4,28.8 110,28.8 110,30.4 113.6,30.4 113.6,31.7 110,31.7 
			110,33.5 114.4,33.5 114.4,34.8 		"/>
	</g>
</g>
<g>
	<polygon class="st1" points="38.3,15.6 38.3,10 33.4,7.2 28.6,10 28.6,15.6 33.4,18.5 	"/>
	<polygon class="st1" points="35.9,27.5 35.9,24.7 33.4,23.4 31,24.7 31,27.5 33.4,29 	"/>
	<polygon class="st1" points="38.3,42.3 38.3,36.7 33.4,33.9 28.6,36.7 28.6,42.3 33.4,45.1 	"/>
	<polygon class="st1" points="35.9,54.2 35.9,51.4 33.4,50 31,51.4 31,54.2 33.4,55.6 	"/>
	<polygon class="st1" points="28.6,10 28.6,15.6 33.4,18.5 38.3,15.6 38.3,10 33.4,7.2 	"/>
	<polygon class="st1" points="28.6,63.3 28.6,69 33.4,71.8 38.3,69 38.3,63.3 33.4,60.5 	"/>
	<polygon class="st1" points="51.7,23.4 51.7,29 56.6,31.8 61.4,29 61.4,23.4 56.6,20.5 	"/>
	<polygon class="st1" points="51.7,36.7 51.7,42.3 56.6,45.1 61.4,42.3 61.4,36.7 56.6,33.9 	"/>
	<polygon class="st1" points="8,38 8,40.9 10.4,42.3 12.8,40.9 12.8,38 10.4,36.7 	"/>
	<polygon class="st1" points="5.5,23.4 5.5,29 10.4,31.8 15.3,29 15.3,23.4 10.4,20.5 	"/>
	<polygon class="st1" points="51.7,50 51.7,55.6 56.6,58.4 61.4,55.6 61.4,50 56.6,47.2 	"/>
	<polygon class="st1" points="6.6,50.7 6.6,55 10.4,57.1 14.1,55 14.1,50.7 10.4,48.5 	"/>
	<polygon class="st1" points="40.1,16.7 40.1,22.3 45,25.1 49.9,22.3 49.9,16.7 45,13.9 	"/>
	<polygon class="st1" points="19.4,18.1 19.4,20.9 21.9,22.3 24.3,20.9 24.3,18.1 21.9,16.7 	"/>
	<polygon class="st1" points="19.4,31.4 19.4,34.2 21.9,35.6 24.3,34.2 24.3,31.4 21.9,30 	"/>
	<polygon class="st1" points="18.2,44 18.2,48.3 21.9,50.4 25.6,48.3 25.6,44 21.9,41.9 	"/>
	<polygon class="st1" points="40.1,30 40.1,35.6 45,38.5 49.9,35.6 49.9,30 45,27.2 	"/>
	<polygon class="st1" points="42.6,44.7 42.6,47.6 45,49 47.4,47.6 47.4,44.7 45,43.3 	"/>
	<polygon class="st1" points="42.6,58.1 42.6,60.9 45,62.3 47.4,60.9 47.4,58.1 45,56.6 	"/>
	<polygon class="st1" points="19.4,58.1 19.4,60.9 21.9,62.3 24.3,60.9 24.3,58.1 21.9,56.6 	"/>
	<polygon class="st0" points="45,38.5 45,32.8 49.9,30 49.9,35.6 	"/>
	<polygon class="st0" points="33.4,71.8 33.4,66.1 38.3,63.3 38.3,69 	"/>
	<polygon class="st0" points="10.4,31.8 10.4,26.1 15.3,23.4 15.3,29 	"/>
	<polygon class="st2" points="6.6,50.7 10.4,52.8 14.1,50.7 10.4,48.5 	"/>
	<polygon class="st2" points="51.7,50 56.6,52.8 61.4,50 56.6,47.2 	"/>
	<polygon class="st2" points="28.6,36.7 33.4,39.5 38.3,36.7 33.4,33.9 	"/>
	<polygon class="st2" points="40.1,16.7 45,19.5 49.9,16.7 45,13.9 	"/>
</g>
</svg>
