

<svg version="1.1"  xmlns="http://www.w3.org/2000/svg" xmlns:xlink="http://www.w3.org/1999/xlink" x="0px" y="0px"
	 viewBox="0 0 212.1 53.2" style="enable-background:new 0 0 212.1 53.2;" xml:space="preserve">
<style type="text/css">
	.st0{fill:#4D1449;}
	.st1{fill:#C8C0CB;}
	.st2{fill:#FCF6F6;}
</style>
<rect class="st0" width="212.1" height="53.2"/>
<title>logo-afflelou</title>
<polygon class="st1" points="32.4,43.9 32.4,22.3 36.9,22.3 36.9,40.3 43.7,40.3 43.7,43.9 "/>
<rect x="63.2" y="22.3" class="st1" width="4.5" height="21.5"/>
<polygon class="st1" points="70.3,43.9 70.3,22.3 76.4,22.3 82.1,37.3 82.1,37.3 82.1,22.3 86.3,22.3 86.3,43.9 80.4,43.9 
	74.5,28.1 74.5,28.1 74.5,43.9 "/>
<path class="st1" d="M22.9,22.3L11.7,43.9h4.9l2.3-4.8h6.3v4.8h4.5V22.3H22.9z M25.2,35.8h-4.7l4.5-9.3h0.2L25.2,35.8z"/>
<path class="st2" d="M93,22.4L81.9,43.9h4.9l2.3-4.8h6.3v4.8h4.5V22.4H93z M95.4,35.8h-4.7l4.5-9.3h0.2L95.4,35.8z"/>
<path class="st1" d="M50.5,22.3l-6,21.5h4.4l1.2-4.8h6.2l1.2,4.8h4.7l-5.9-21.5H50.5z M51.1,35.8l2.1-9.3h0.1l2.2,9.3H51.1z"/>
<polygon class="st2" points="102.3,43.9 102.3,22.4 113.4,22.4 113.4,25.7 106.8,25.7 106.8,31.2 112.7,31.2 112.7,34.5 106.8,34.5 
	106.8,43.9 "/>
<polygon class="st2" points="115.3,43.9 115.3,22.4 126.4,22.4 126.4,25.7 119.8,25.7 119.8,31.2 125.7,31.2 125.7,34.5 119.8,34.5 
	119.8,43.9 "/>
<polygon class="st2" points="128.1,43.9 128.1,22.4 132.6,22.4 132.6,40.3 139.3,40.3 139.3,43.9 "/>
<polygon class="st2" points="141.1,43.9 141.1,22.4 152.8,22.4 152.8,25.7 145.6,25.7 145.6,31 151.8,31 151.8,34.3 145.6,34.3 
	145.6,40.6 153.1,40.6 153.1,43.9 "/>
<polygon class="st2" points="154.9,43.9 154.9,22.4 159.4,22.4 159.4,40.3 166.1,40.3 166.1,43.9 "/>
<path class="st2" d="M199.4,22.4v15.2c0,3.2-1.8,6.6-7.3,6.6c-4.9,0-7.3-2.6-7.3-6.6V22.4h4.5v14.9c0,2.7,1.1,3.7,2.8,3.7
	c2,0,2.8-1.3,2.8-3.7V22.4H199.4z"/>
<path class="st2" d="M174.4,21.9c-5.2,0-8.4,3.6-8.4,11.2s3.2,11.1,8.4,11.1c5.2,0,8.4-3.6,8.4-11.1S179.6,21.9,174.4,21.9
	 M174.4,41c-2.5,0-3.6-3-3.6-7.9s1.1-8,3.6-8c2.5,0,3.6,3,3.6,8S177,41,174.4,41"/>
</svg>
