

<svg version="1.1"
	 id="svg2" inkscape:version="0.91 r13725" sodipodi:docname="Logo SFR.svg" xmlns:cc="http://creativecommons.org/ns#" xmlns:dc="http://purl.org/dc/elements/1.1/" xmlns:inkscape="http://www.inkscape.org/namespaces/inkscape" xmlns:rdf="http://www.w3.org/1999/02/22-rdf-syntax-ns#" xmlns:sodipodi="http://sodipodi.sourceforge.net/DTD/sodipodi-0.dtd" xmlns:svg="http://www.w3.org/2000/svg"
	 xmlns="http://www.w3.org/2000/svg" xmlns:xlink="http://www.w3.org/1999/xlink" x="0px" y="0px" viewBox="0 0 308.3 308"
	 style="enable-background:new 0 0 308.3 308;" xml:space="preserve">
<style type="text/css">
	.st0{fill:url(#rect5139_2_);}
	.st1{fill:#FFFFFF;}
</style>
<g id="g3260_1_" transform="matrix(10.731503,0,0,10.731503,-4368.3898,-179.82362)">
	
		<radialGradient id="rect5139_2_" cx="453.7138" cy="36.7452" r="11.4802" gradientTransform="matrix(-18.4197 -0.2161 -0.2378 20.2209 8792.5645 -619.6359)" gradientUnits="userSpaceOnUse">
		<stop  offset="0" style="stop-color:#EE0004"/>
		<stop  offset="0.5313" style="stop-color:#EB0004"/>
		<stop  offset="1" style="stop-color:#B30009"/>
	</radialGradient>
	<rect id="rect5139_1_" x="407.1" y="16.8" class="st0" width="28.7" height="28.7"/>
</g>
<sodipodi:namedview  bordercolor="#666666" borderopacity="1" gridtolerance="10" guidetolerance="10" id="namedview4" inkscape:current-layer="g10" inkscape:cx="559.83549" inkscape:cy="299.63236" inkscape:pageopacity="0" inkscape:pageshadow="2" inkscape:window-height="691" inkscape:window-maximized="1" inkscape:window-width="1280" inkscape:window-x="0" inkscape:window-y="1" inkscape:zoom="0.50595239" objecttolerance="10" pagecolor="#ffffff" showgrid="false">
	</sodipodi:namedview>
<g id="g10" transform="matrix(1.25,0,0,-1.25,0,307.99995)" inkscape:groupmode="layer" inkscape:label="Calendrier_Pro_A_2017-18 - copie">
	<g id="g5238" transform="matrix(1.0009041,0,0,1,-405.57756,-83.1549)">
		<g id="g5234">
			<path id="path3842" inkscape:connector-curvature="0" class="st1" d="M485.3,216.7c-9,2.5-10.1,7.3-10.1,10.4
				c0,5.9,4.6,9.9,12.8,9.9c5.7,0,10.7-2.4,14.4-7.3l9.9,5.8c-4.8,7.1-12.3,13-24.3,13c-14.2,0-25.9-8.9-25.9-21.9
				c0-12.8,11-18.7,22.8-22c0,0,5.4-1.6,5.5-1.6c10.1-2.7,10.9-7.2,10.9-11.2c0-7.2-7.6-11.7-14.1-11.7c-6.8,0-12.2,2.2-16.7,10
				l-9.9-5.9c6.4-11.1,14.1-15.5,26.6-15.5c13.8,0,27.1,10.5,27.1,23.7c0,15.5-12.6,19.9-23.5,22.8
				C490.7,215.1,485.3,216.7,485.3,216.7 M610.3,212.5c11.4,0,14.9,4.9,14.9,12.1c0,4.8-2.2,10.8-14.5,10.8h-14.5v-22.9L610.3,212.5
				L610.3,212.5z M626,170.5l-17,30.6h-12.7v-30.6h-12.5v76.1h28.1c11.3,0,26.4-3.2,26.4-22.1c0-12.9-6.7-18.8-17.2-21.6l19.8-32.4
				H626L626,170.5z M526.7,170.5v76.1h46.5v-12h-34v-20.8h29.3V202h-29.3v-31.4h-12.5V170.5z"/>
		</g>
	</g>
</g>
</svg>
