<?xml version="1.0" encoding="utf-8"?>
<!-- Generator: Adobe Illustrator 25.2.0, SVG Export Plug-In . SVG Version: 6.00 Build 0)  -->
<svg version="1.1" id="Calque_1" xmlns="http://www.w3.org/2000/svg" xmlns:xlink="http://www.w3.org/1999/xlink" x="0px" y="0px"
	 viewBox="0 0 180 80" style="enable-background:new 0 0 180 80;" xml:space="preserve">
<style type="text/css">
	.st0{fill:#13448C;}
</style>
<g>
	<path class="st0" d="M95.4,26.1c0-3.1,2.1-5,4.5-5c1.2,0,2.2,0.6,2.9,1.2l-1.1,1.3c-0.4-0.4-1-0.8-1.7-0.8c-1.3,0-2.4,1.1-2.4,3
		c0,1.9,0.9,3.1,2.4,3.1c0.8,0,1.3-0.3,1.9-0.9l1.1,1.3c-0.8,0.9-1.8,1.3-3,1.3C97.5,30.9,95.4,29.2,95.4,26.1z"/>
	<path class="st0" d="M103.8,27.2c0-2.5,1.7-3.8,3.6-3.8c1.9,0,3.6,1.3,3.6,3.8c0,2.4-1.7,3.8-3.6,3.8
		C105.5,31,103.8,29.6,103.8,27.2z M108.6,27.2c0-1.2-0.4-2-1.3-2s-1.3,0.8-1.3,2c0,1.2,0.4,2,1.3,2
		C108.2,29.2,108.6,28.4,108.6,27.2z"/>
	<path class="st0" d="M112.3,23.5h1.8l0.1,0.9l0,0c0.6-0.6,1.2-1.1,2.2-1.1s1.7,0.4,2,1.2c0.7-0.7,1.3-1.2,2.2-1.2
		c1.6,0,2.2,1.1,2.2,2.9v4.5h-2.1v-4.3c0-1-0.3-1.3-0.9-1.3c-0.3,0-0.8,0.2-1.2,0.7v5h-2.1v-4.3c0-1-0.3-1.3-0.9-1.3
		c-0.3,0-0.8,0.2-1.2,0.7v4.9h-2.1C112.3,30.8,112.3,23.5,112.3,23.5z"/>
	<path class="st0" d="M124.8,23.5h1.8l0.1,0.7l0,0c0.6-0.6,1.3-0.9,2-0.9c1.8,0,2.8,1.5,2.8,3.7c0,2.5-1.5,3.9-3,3.9
		c-0.7,0-1.2-0.2-1.7-0.8l0.1,1.1v2.1h-2.1V23.5z M129.5,27.1c0-1.3-0.4-1.9-1.2-1.9c-0.4,0-0.8,0.2-1.2,0.7v3
		c0.3,0.3,0.8,0.4,1.1,0.4C128.9,29.2,129.5,28.5,129.5,27.1z"/>
	<path class="st0" d="M133,28.1v-2.9h-0.9v-1.6l1.1-0.1l0.2-1.9h1.8v1.9h1.8v1.7h-1.8v2.9c0,0.8,0.3,1.1,0.9,1.1
		c0.2,0,0.4-0.1,0.7-0.1l0.3,1.6c-0.3,0.1-0.9,0.2-1.6,0.2C133.8,30.9,133,29.8,133,28.1z"/>
	<path class="st0" d="M137.7,27.2c0-2.4,1.7-3.8,3.5-3.8c2,0,3.1,1.5,3.1,3.5c0,0.3,0,0.8-0.1,0.9h-4.4c0.2,1,0.9,1.6,1.9,1.6
		c0.6,0,1-0.1,1.6-0.4l0.7,1.3c-0.8,0.6-1.7,0.8-2.6,0.8C139.3,30.9,137.7,29.6,137.7,27.2z M142.3,26.3c0-0.8-0.3-1.3-1.2-1.3
		c-0.7,0-1.2,0.4-1.5,1.3H142.3z"/>
</g>
<g>
	<path class="st0" d="M95.9,36h3.2c2.1,0,3.8,0.8,3.8,3s-1.7,3.2-3.7,3.2H98v3.2h-2.1V36z M99.1,40.6c1.2,0,1.8-0.6,1.8-1.6
		s-0.7-1.3-1.8-1.3h-1v2.9C98.1,40.6,99.1,40.6,99.1,40.6z"/>
	<path class="st0" d="M103.7,42c0-2.4,1.7-3.8,3.5-3.8c2,0,3.1,1.5,3.1,3.5c0,0.3,0,0.8-0.1,0.9h-4.4c0.2,1,0.9,1.6,1.9,1.6
		c0.6,0,1-0.1,1.6-0.4L110,45c-0.8,0.6-1.7,0.8-2.6,0.8C105.3,45.7,103.7,44.3,103.7,42z M108.3,41.1c0-0.8-0.3-1.3-1.2-1.3
		c-0.7,0-1.2,0.4-1.5,1.3H108.3z"/>
	<path class="st0" d="M111.7,38.3h1.8l0.1,1.2l0,0c0.6-1,1.3-1.5,2-1.5c0.4,0,0.7,0,0.9,0.1l-0.3,1.9c-0.2-0.1-0.4-0.1-0.8-0.1
		c-0.6,0-1.2,0.3-1.6,1.3v4.3h-2.1V38.3z"/>
	<path class="st0" d="M116.7,44.7l1-1.3c0.7,0.4,1.2,0.8,1.9,0.8s0.9-0.2,0.9-0.7c0-0.4-0.7-0.7-1.5-1c-0.9-0.3-1.9-0.9-1.9-2.1
		c0-1.3,1.1-2.2,2.8-2.2c1.1,0,1.9,0.4,2.6,0.9l-1,1.3c-0.6-0.3-1-0.7-1.6-0.7c-0.6,0-0.8,0.2-0.8,0.6c0,0.4,0.7,0.7,1.5,0.9
		c0.9,0.3,1.9,0.9,1.9,2.1c0,1.3-1,2.4-3,2.4C118.5,45.7,117.5,45.3,116.7,44.7z"/>
	<path class="st0" d="M123.4,42c0-2.5,1.7-3.8,3.6-3.8c1.9,0,3.6,1.3,3.6,3.8c0,2.4-1.7,3.8-3.6,3.8C125.1,45.8,123.4,44.3,123.4,42
		z M128.2,42c0-1.2-0.4-2-1.3-2c-0.9,0-1.3,0.8-1.3,2c0,1.2,0.4,2,1.3,2C127.8,44,128.2,43.2,128.2,42z"/>
	<path class="st0" d="M131.9,38.3h1.8l0.1,0.9l0,0c0.6-0.6,1.3-1.1,2.4-1.1c1.6,0,2.2,1.1,2.2,2.9v4.5h-2.1v-4.3
		c0-1-0.2-1.3-0.9-1.3c-0.6,0-0.9,0.2-1.3,0.7v4.9h-2.1L131.9,38.3L131.9,38.3z"/>
	<path class="st0" d="M140.3,38.3h1.8l0.1,0.9l0,0c0.6-0.6,1.3-1.1,2.4-1.1c1.6,0,2.2,1.1,2.2,2.9v4.5h-2.1v-4.3
		c0-1-0.2-1.3-0.9-1.3c-0.6,0-0.9,0.2-1.3,0.7v4.9h-2.1L140.3,38.3L140.3,38.3z"/>
	<path class="st0" d="M148.2,42c0-2.4,1.7-3.8,3.5-3.8c2,0,3.1,1.5,3.1,3.5c0,0.3,0,0.8-0.1,0.9h-4.4c0.2,1,0.9,1.6,1.9,1.6
		c0.6,0,1-0.1,1.6-0.4l0.7,1.3c-0.8,0.6-1.7,0.8-2.6,0.8C149.8,45.7,148.2,44.3,148.2,42z M152.9,41.1c0-0.8-0.3-1.3-1.2-1.3
		c-0.7,0-1.2,0.4-1.5,1.3H152.9z"/>
	<path class="st0" d="M156.2,43.3v-7.9h2.1v8.1c0,0.4,0.2,0.6,0.3,0.6s0.1,0,0.2,0l0.2,1.6c-0.2,0.1-0.6,0.2-1.1,0.2
		C156.7,45.7,156.2,44.8,156.2,43.3z"/>
	<path class="st0" d="M162.9,42c0-2.4,1.5-3.8,3-3.8c0.8,0,1.2,0.3,1.8,0.8l-0.1-1.1v-2.5h2.1v10.2H168l-0.1-0.7l0,0
		c-0.6,0.6-1.2,0.9-1.9,0.9C164,45.7,162.9,44.3,162.9,42z M167.6,43.3v-3c-0.3-0.3-0.8-0.4-1.2-0.4c-0.7,0-1.3,0.7-1.3,2
		c0,1.5,0.4,2,1.3,2C166.8,44,167.3,43.8,167.6,43.3z"/>
	<path class="st0" d="M171.2,42c0-2.4,1.7-3.8,3.5-3.8c2,0,3.1,1.5,3.1,3.5c0,0.3,0,0.8-0.1,0.9h-4.4c0.2,1,0.9,1.6,1.9,1.6
		c0.6,0,1-0.1,1.6-0.4l0.7,1.3c-0.8,0.6-1.7,0.8-2.6,0.8C172.8,45.7,171.2,44.3,171.2,42z M175.9,41.1c0-0.8-0.3-1.3-1.2-1.3
		c-0.7,0-1.2,0.4-1.5,1.3H175.9z"/>
</g>
<g>
	<path class="st0" d="M95.9,50.8h6v1.8h-3.8v2.2h3.2v1.8h-3.2v3.7H96v-9.5H95.9z"/>
	<path class="st0" d="M102.7,56.8c0-2.5,1.7-3.8,3.6-3.8c1.9,0,3.6,1.3,3.6,3.8c0,2.4-1.7,3.8-3.6,3.8
		C104.4,60.6,102.7,59.1,102.7,56.8z M107.5,56.8c0-1.2-0.4-2-1.3-2c-0.9,0-1.3,0.8-1.3,2c0,1.2,0.4,2,1.3,2S107.5,58,107.5,56.8z"
		/>
	<path class="st0" d="M111.2,53.1h1.8l0.1,1.2l0,0c0.6-1,1.3-1.5,2-1.5c0.4,0,0.7,0,0.9,0.1l-0.3,1.9c-0.2-0.1-0.4-0.1-0.8-0.1
		c-0.6,0-1.2,0.3-1.6,1.3v4.3h-2.1V53.1z"/>
	<path class="st0" d="M117,53.1h1.8l0.1,0.9l0,0c0.6-0.6,1.2-1.1,2.2-1.1s1.7,0.4,2,1.2c0.7-0.7,1.3-1.2,2.2-1.2
		c1.6,0,2.2,1.1,2.2,2.9v4.5h-2.1V56c0-1-0.3-1.3-0.9-1.3c-0.3,0-0.8,0.2-1.2,0.7v4.9h-2.1V56c0-1-0.3-1.3-0.9-1.3
		c-0.3,0-0.8,0.2-1.2,0.7v4.9H117C117,60.2,117,53.1,117,53.1z"/>
	<path class="st0" d="M129.2,58.3c0-1.6,1.2-2.4,4-2.7c0-0.7-0.3-1-1.1-1c-0.6,0-1.2,0.2-1.9,0.7l-0.8-1.5c0.9-0.6,1.9-1,3.1-1
		c1.9,0,2.9,1,2.9,3.2v4.1h-1.8l-0.1-0.8l0,0c-0.6,0.6-1.3,0.9-2.1,0.9C130,60.6,129.2,59.5,129.2,58.3z M133.3,58.2V57
		c-1.6,0.2-2,0.7-2,1.2c0,0.4,0.3,0.7,0.8,0.7C132.6,58.9,132.9,58.7,133.3,58.2z"/>
	<path class="st0" d="M137.2,57.6v-2.9h-1v-1.6l1.1-0.1l0.2-1.9h1.8v1.9h1.8v1.7h-1.8v2.9c0,0.8,0.3,1.1,0.9,1.1
		c0.2,0,0.4-0.1,0.7-0.1l0.3,1.6c-0.3,0.1-0.9,0.2-1.6,0.2C138,60.6,137.2,59.3,137.2,57.6z"/>
	<path class="st0" d="M142.3,50.9c0-0.7,0.6-1.1,1.2-1.1s1.2,0.4,1.2,1.1s-0.6,1.1-1.2,1.1S142.3,51.6,142.3,50.9z M142.6,53.1h2.1
		v7.3h-2.1V53.1z"/>
	<path class="st0" d="M146.1,56.8c0-2.5,1.7-3.8,3.6-3.8c1.9,0,3.6,1.3,3.6,3.8c0,2.4-1.7,3.8-3.6,3.8
		C147.8,60.6,146.1,59.1,146.1,56.8z M150.9,56.8c0-1.2-0.4-2-1.3-2c-0.9,0-1.3,0.8-1.3,2c0,1.2,0.4,2,1.3,2
		C150.6,58.8,150.9,58,150.9,56.8z"/>
	<path class="st0" d="M154.6,53.1h1.8l0.1,0.9l0,0c0.6-0.6,1.3-1.1,2.4-1.1c1.6,0,2.2,1.1,2.2,2.9v4.5H159V56c0-1-0.2-1.3-0.9-1.3
		c-0.6,0-0.9,0.2-1.3,0.7v4.9h-2.1V53.1z"/>
</g>
<g>
	<path class="st0" d="M58.3,24.6c0-0.8-0.6-1.1-1.8-1.1h-1.2V26h1.2v-0.1C57.6,25.9,58.3,25.4,58.3,24.6z"/>
	<path class="st0" d="M57.8,20.7c0-0.8-0.4-1-1.5-1h-1v2.1h1C57.4,21.8,57.8,21.4,57.8,20.7z"/>
	<path class="st0" d="M45.7,45.6c3.2,0,4.7-1.5,4.7-4.1s-1.7-3.7-4.8-3.7h-2.7v7.7h2.8V45.6z"/>
	<path class="st0" d="M81.9,9.1H8.8C5,9.1,2,11.6,2,14.8v48.8c0,3.1,3,5.7,6.8,5.7h73.1c3.8,0,6.8-2.6,6.8-5.7V14.8
		C88.7,11.6,85.7,9.1,81.9,9.1z M78.1,44v4.9h-8.8v10h-5.8V33.1h16.2v4.9H69.2V44H78.1z M69.4,25.7v1.8h-5.9V18h2.1v7.7H69.4z
		 M77.9,21.7v1.8h-3.2v2.2h3.9v1.8h-6.2V18h0.1h5.9v1.8h-3.8v1.9H77.9z M41,25.7c0.3,0,0.8-0.1,1-0.3v-1.7h-1.7v-1.8h3.5v4.4
		c-0.7,0.7-1.8,1.1-3.1,1.1c-2.6,0.2-4.6-1.5-4.6-4.6c0-3.1,2.1-5,4.6-5c1.3,0,2.4,0.6,3,1.2l-1.1,1.3c-0.4-0.4-1-0.8-1.8-0.8
		c-1.5,0-2.5,1.1-2.5,3S39.3,25.7,41,25.7z M37.1,33.1H46c5.7,0,10.2,2,10.2,8.3c0,6-4.6,8.7-10.1,8.7h-3.1v8.7h-5.8V33.1z
		 M47.3,27.5V18h2.1v9.5H47.3z M53.1,27.5V18h0.1h3.2c2,0,3.5,0.6,3.5,2.4c0,0.9-0.4,1.8-1.2,2v0.1c1,0.2,1.7,1,1.7,2.2
		c0,1.9-1.7,2.8-3.7,2.8H53.1z M32.9,18v9.5h-2.1V18H32.9z M17.7,21.7v1.8h-3.2v2.2h3.9v1.8h-6.2V18h0.1h5.9v1.8h-3.8v1.9H17.7z
		 M22.2,32.7c3.4,0,6,1.6,7.7,3.4l-3,3.7c-1.3-1.2-2.7-2-4.6-2c-3.6,0-6.3,3.1-6.3,8.3c0,5.3,2.5,8.4,6.3,8.4c2.1,0,3.8-1,5-2.4
		l3,3.7c-2.1,2.5-4.9,3.8-8.3,3.8c-6.5-0.2-12-4.7-12-13.4C10.2,37.6,15.7,32.7,22.2,32.7z M27.6,25.7v1.8h-5.9V18h2.1v7.7H27.6z"/>
</g>
</svg>
