

<svg version="1.1"
	 id="svg2" inkscape:version="0.91 r13725" sodipodi:docname="Logo Air Corsica.svg" xmlns:cc="http://creativecommons.org/ns#" xmlns:dc="http://purl.org/dc/elements/1.1/" xmlns:inkscape="http://www.inkscape.org/namespaces/inkscape" xmlns:rdf="http://www.w3.org/1999/02/22-rdf-syntax-ns#" xmlns:sodipodi="http://sodipodi.sourceforge.net/DTD/sodipodi-0.dtd" xmlns:svg="http://www.w3.org/2000/svg"
	 xmlns="http://www.w3.org/2000/svg" xmlns:xlink="http://www.w3.org/1999/xlink" x="0px" y="0px" viewBox="0 0 700 100"
	 style="enable-background:new 0 0 700 100;" xml:space="preserve">
<style type="text/css">
	.st0{fill:#025751;}
</style>
<sodipodi:namedview  bordercolor="#666666" borderopacity="1" gridtolerance="10" guidetolerance="10" id="namedview38" inkscape:current-layer="svg2" inkscape:cx="-12.847387" inkscape:cy="27.5" inkscape:pageopacity="0" inkscape:pageshadow="2" inkscape:window-height="788" inkscape:window-maximized="1" inkscape:window-width="1440" inkscape:window-x="0" inkscape:window-y="1" inkscape:zoom="1.383138" objecttolerance="10" pagecolor="#ffffff" showgrid="false">
	</sodipodi:namedview>
<path class="st0" d="M204,19.4c0.3-0.5,0.3-0.7,0.4-0.7c12.5,0.1,25.1-1.2,37.6,1c1.2,0.2,2.4,0.6,3.6,1c8.8,3,13.5,8.9,13.8,17.1
	c0.4,9.5-4.1,16.7-12.7,20.2c-2.1,0.9-4.3,1.4-7,2.3c10,12.8,18.2,26.9,34.6,32.4c-0.1,0.5-0.1,0.8-0.2,0.9c-8,4.4-19.3,3.6-25.1-3
	c-8.5-9.7-16.1-20.2-24-30.4c-0.2-0.2-0.1-0.5-0.2-1.1c0.8-0.2,1.6-0.4,2.4-0.6c3-1,6.1-1.6,8.9-3c7.1-3.6,10.2-10.4,8.8-18.3
	c-1.3-7-6.2-11.3-14.4-12.1c-2.8-0.3-5.7,0-9.1,0c0,1.2,0,2.3,0,3.5c0,14.9-0.1,29.8,0.1,44.6c0.1,7.1-1.7,14.7,5,20.8
	c-7.8,0-15,0-22.2,0c0-0.3-0.1-0.9,0.1-1c3.9-2.9,4.2-7.2,4.2-11.4c0.1-16.7,0.1-33.4,0-50.1C208.5,26.7,208.2,22.2,204,19.4z"/>
<path class="st0" d="M545,93.9c-8.7,0-17.5,0-26.2,0c0-0.4-0.1-0.6,0-0.7c4.7-3.6,5.4-6.2,3.3-11.9c-1-2.8-2.2-5.5-3.1-8.3
	c-0.6-2.1-1.8-2.5-3.8-2.5c-7.3,0.1-14.6,0.1-21.9,0c-2.1,0-3.1,0.7-3.7,2.6c-1.3,3.9-2.8,7.7-4.2,11.6c-1.5,4.2-1.3,5,2.1,7.9
	c0.2,0.2,0.3,0.6,0.6,1.3c-6.2,0-12.1,0-18,0c6.2-4,7.5-10.8,9.8-16.8c7.3-18.6,14.4-37.3,21.5-56c0.7-2,1.8-2.5,3.8-2.5
	c7.4,0,7.4,0,10.1,7c7.2,18.9,14.5,37.7,21.7,56.6c1.7,4.5,3.8,8.8,8.4,11.2C545.2,93.4,545.1,93.6,545,93.9z M504.5,34.1
	c-0.2,0-0.5,0-0.7-0.1c-3.5,9.7-7,19.5-10.6,29.3c7.5,0,14.6,0,22.1,0C511.7,53.4,508.1,43.7,504.5,34.1z"/>
<path class="st0" d="M274,18.8c8,0,15.3,0,22.5,0c0,0.2,0.2,0.5,0.1,0.6c-3.9,3.4-4.5,8-4.5,12.8c0.1,11.9,0,23.8,0.1,35.7
	c0,2.9,0.4,5.9,1,8.8c1.8,8.3,6.4,12.3,14.5,13.2c7.9,0.9,14.8-2.5,17.9-9.7c1.6-3.7,2.7-7.9,2.8-11.9c0.4-10.9,0.2-21.9,0.1-32.8
	c-0.1-3.1-0.5-6.4-1.6-9.3c-1-2.6-3.1-4.8-4.8-7.3c6.8,0,13.9,0,21.1,0c-3.5,2.4-5.2,5.9-5.9,10c-0.4,2.6-0.7,5.3-0.7,8
	c-0.1,9.6,0,19.2-0.1,28.8c0,3-0.2,6-0.8,8.9c-2.6,12.7-10.7,19.6-24.3,20.2c-4.5,0.2-9.2-0.2-13.7-1.1c-11-2.2-17.4-9.9-18.1-21.2
	c-0.3-6.1-0.3-12.3-0.4-18.4c-0.1-6.4,0-12.9,0-19.3C279.1,29.2,280.1,23.2,274,18.8z"/>
<path class="st0" d="M548.3,18.8c7.6,0,14.8,0,22.9,0c-6.4,5.1-5.3,11.8-5.3,18.1c-0.1,10.8,0.1,21.7,0.2,32.5
	c0,2.2,0.3,4.4,0.7,6.6c1.6,8.5,6.2,12.9,14.5,13.9c8.1,1,15.3-2.7,18.4-10.3c1.4-3.4,2.3-7.2,2.4-10.8c0.3-11.1,0.2-22.3,0.1-33.4
	c-0.1-8.1-0.7-9-6.8-16.6c7.3,0,14.3,0,21.4,0c-4,3.1-5.5,7.3-6,11.9c-0.3,2.9-0.5,5.9-0.5,8.9c-0.1,9.1,0.1,18.2-0.1,27.3
	c0,2.9-0.3,6-1,8.8c-3.1,12.8-12.4,19.5-27,19.1c-3.8-0.1-7.7-0.5-11.4-1.3c-11.1-2.7-17.3-10.7-17.6-22.9
	c-0.2-12.6-0.1-25.1-0.1-37.7C553.1,25.2,552.9,24.8,548.3,18.8z"/>
<path class="st0" d="M69,95.4c0-30.9,0-60.7,0-91.2c2.2,2.6,4.1,4.7,5.8,6.8c7.1,8.6,13.5,17.7,18.2,27.9c8.7,19,3,36.7-12.2,48.7
	C77.2,90.3,73.3,92.6,69,95.4z"/>
<path class="st0" d="M460.1,45.2c0,7.8,0,15.6,0,24.2c-0.9-1-1.4-1.4-1.7-2c-1.6-3.7-4.5-5.8-8.4-6.1c-4.2-0.3-8.4-0.1-12.9-0.1
	c0,6.4,0,12.9,0,19.4c0,5,0.7,9.7,5.2,13c-7.5,0-15.1,0-23.5,0c6.3-4.8,5.3-11,5.3-17c0.1-14.7,0-29.4,0-44c0-5,0-10-5.2-13.9
	c18,0,35.3,0,52.7,0c0,5.6,0,11.1,0,17.4c-0.9-1.1-1.6-1.7-1.8-2.4c-2-6.1-6.6-8.8-12.7-9c-6.5-0.2-13,0-19.8,0c0,9.5,0,18.9,0,28.7
	c8.5-0.1,17.8,2.2,22.1-9.1C459.6,44.7,459.8,45,460.1,45.2z"/>
<path class="st0" d="M394.9,69.2c-1.6-3.6-3.6-6.9-7.6-7.5c-4.7-0.6-9.4-0.7-14-1.1c0,9-0.3,17.3,0.2,25.6c0.2,2.5,2.7,4.9,4.2,7.4
	c-7,0-14.6,0-22.1,0c0-0.1-0.2-0.4-0.1-0.5c4-3.4,4.3-8,4.3-12.8c-0.1-15.9-0.1-31.9,0-47.8c0-5,0-9.9-5.1-13.7c18,0,35.1,0,52.5,0
	c0,5.5,0,11.1,0,16.7c-0.2,0.1-0.4,0.2-0.6,0.2c-0.4-0.6-0.9-1.3-1.1-1.9c-1.9-5.5-5.8-8.6-11.6-8.7c-6.9-0.2-13.8,0-21.1,0
	c0,2.4,0,4.7,0,7.1c0,6.3,0.1,12.7,0,19c0,2,0.6,2.8,2.6,2.6c3.1-0.2,6.3-0.2,9.5-0.5c4.4-0.4,7.5-2.7,9.2-6.8
	c0.2-0.4,0.5-0.8,0.7-1.2c0.1-0.1,0.3-0.1,0.8-0.2c0,7.9,0,15.7,0,23.5C395.3,68.9,395.1,69,394.9,69.2z"/>
<path class="st0" d="M172.5,93.8c-8.2,0-15.4,0-22.8,0c0.1-0.5,0.1-1,0.3-1.1c3.5-2.6,4.1-6.3,4.1-10.2c0-18.6,0-37.2,0-55.8
	c0-0.5-0.1-0.9-0.1-1.7c-5.3-0.3-10.5-0.6-15.4,2c-4.9,2.6-6.8,7.4-8.4,12.5c-0.3-0.1-0.5-0.2-0.8-0.2c0-6.7,0-13.4,0-20.4
	c20.9,0,41.9,0,63.1,0c0,6.8,0,13.6,0,20.4c-0.3,0.1-0.5,0.3-0.8,0.4c-1.7-5.2-3.6-10.1-8.7-12.7c-4.9-2.6-10.2-2-15.9-2
	c0,1.3,0,2.4,0,3.5c0,15.3-0.1,30.7,0,46C167.2,81,165.8,88.1,172.5,93.8z"/>
<path class="st0" d="M687.7,18.7c0,7,0,13.6,0,20.3c-0.3,0.1-0.5,0.3-0.8,0.4c-1.8-5.1-3.7-10-8.8-12.7c-4.9-2.6-10.2-2-15.8-2
	c0,1.3,0,2.4,0,3.6c0,16.2,0,32.4,0,48.6c0,5.9-0.9,12,5.3,16.7c-8.1,0-15.4,0-22.7,0c0-0.2-0.2-0.5-0.1-0.6c4-3.2,4.5-7.7,4.5-12.4
	c0-17.5,0-34.9,0-52.4c0-1,0-2.1,0-3.4c-5.4-0.3-10.6-0.6-15.5,1.9c-5.1,2.6-6.6,7.7-8.7,12.5c-0.2-0.1-0.5-0.2-0.7-0.3
	c0-6.8,0-13.5,0-20.4C645.5,18.7,666.4,18.7,687.7,18.7z"/>
<path class="st0" d="M108.4,14.4c2,12.3,4.2,24.5,6,36.8c2.5,17-4.8,30.7-20.4,37.9c-5.2,2.4-10.9,4-16.3,5.9
	c-0.1-0.3-0.3-0.7-0.4-1c0.9-0.6,1.9-1.1,2.8-1.7c14-8.7,21.4-21,21-37.7c-0.2-6.4-2.4-12.3-4.9-18.2c-0.5-1.1-0.5-2.9,0-3.9
	c3.6-6.3,7.4-12.4,11.1-18.6C107.6,14.1,108,14.3,108.4,14.4z"/>
<path class="st0" d="M65.5,94.6c-11.1-0.9-21.7-3-30.5-10c-9.7-7.7-13.1-18.2-13.5-31c6,8.9,15.3,10.1,23.8,12.9
	c2.4,0.8,4.7,1.6,7,2.5C62.4,73,66.6,83.6,65.5,94.6z"/>
</svg>
