

<svg version="1.1"  xmlns="http://www.w3.org/2000/svg" xmlns:xlink="http://www.w3.org/1999/xlink" x="0px" y="0px"
	 viewBox="0 0 120.5 34.1" style="enable-background:new 0 0 120.5 34.1;" xml:space="preserve">
<style type="text/css">
	.st0{fill:#FFFFFF;}
</style>
<g>
	<polygon class="st0" points="7.2,10.7 3.2,1.1 0.5,1.1 5.8,13.4 8.6,13.4 13.8,1.1 11.2,1.1 	"/>
	<rect x="15.7" y="1.2" class="st0" width="2.5" height="12.2"/>
	<path class="st0" d="M29,6.5c-0.6-0.2-1.5-0.3-2.6-0.4c-1.2-0.1-2.1-0.1-2.7-0.3c-0.6-0.1-0.9-0.3-1-0.4c-0.1-0.2-0.2-0.5-0.2-0.9
		c0-0.4,0.1-0.7,0.2-0.9c0.1-0.2,0.4-0.3,0.8-0.4c0.5-0.1,1.2-0.2,2.2-0.2c0.7,0,1.3,0,1.7,0.1c0.4,0.1,0.6,0.2,0.8,0.3
		c0.2,0.1,0.2,0.2,0.3,0.4c0.1,0.2,0.1,0.5,0.1,0.9v0.5H31l-0.1-0.7c0-0.9-0.2-1.7-0.7-2.2c-0.4-0.5-1-0.9-1.8-1.1
		C27.7,1.1,26.8,1,25.6,1c-0.9,0-1.7,0.1-2.4,0.2c-0.7,0.1-1.3,0.3-1.7,0.6C21,2.1,20.7,2.5,20.4,3c-0.2,0.5-0.3,1-0.3,1.7
		c0,0.7,0.1,1.3,0.4,1.8c0.3,0.5,0.7,0.9,1.2,1.1c0.5,0.2,1,0.4,1.7,0.5c0.6,0.1,1.4,0.2,2.3,0.2c1,0,1.7,0.1,2.2,0.2
		c0.4,0.1,0.6,0.2,0.7,0.4c0.1,0.1,0.2,0.4,0.2,0.9c0,0.4,0,0.7-0.1,0.9c0,0.1-0.1,0.3-0.3,0.4c-0.1,0.1-0.4,0.2-0.9,0.3
		c-0.5,0.1-1.1,0.1-1.8,0.1c-0.9,0-1.5,0-2-0.1c-0.5-0.1-0.7-0.2-0.8-0.2c-0.1-0.1-0.2-0.2-0.3-0.4c-0.1-0.3-0.1-0.7-0.1-1.2V8.9H20
		v1c0,1,0.2,1.8,0.7,2.4c0.5,0.5,1.1,0.9,1.9,1c0.7,0.1,1.7,0.2,3,0.2c1,0,1.8-0.1,2.5-0.2c0.7-0.1,1.3-0.3,1.7-0.6
		c0.5-0.3,0.8-0.7,1-1.2c0.2-0.5,0.3-1.1,0.3-1.9c0-0.9-0.2-1.6-0.6-2.1C30.2,7,29.7,6.7,29,6.5z"/>
	<rect x="33" y="1.2" class="st0" width="2.5" height="12.2"/>
	<path class="st0" d="M46.6,1.5c-0.6-0.2-1.4-0.4-2.3-0.4h-7v12.2h2.4V9h3.6c1.2,0,2.2-0.1,2.9-0.4c0.8-0.3,1.3-0.7,1.7-1.3
		c0.3-0.6,0.5-1.4,0.5-2.4c0-0.8-0.1-1.5-0.4-2.1C47.7,2.2,47.2,1.8,46.6,1.5z M45.9,5.1c0,0.5-0.1,0.9-0.3,1.2
		c-0.2,0.2-0.4,0.4-0.8,0.5c-0.4,0.1-1.1,0.2-2,0.2h-3.2V3.2h4.3c0.7,0,1.1,0.1,1.3,0.2c0.2,0.1,0.4,0.3,0.4,0.5
		C45.9,4.2,45.9,4.6,45.9,5.1z"/>
	<polygon class="st0" points="52.6,1.1 50.2,1.1 50.2,13.4 59.5,13.4 59.5,11.2 52.6,11.2 	"/>
	<path class="st0" d="M70.6,9.5c0,0.8-0.1,1.1-0.2,1.3c-0.1,0.2-0.4,0.3-0.8,0.4c-0.5,0.1-1.3,0.2-2.4,0.2c-1.1,0-1.9-0.1-2.4-0.2
		c-0.4-0.1-0.6-0.2-0.8-0.4c-0.1-0.2-0.2-0.5-0.2-1.3V1.1h-2.4v8.4c0,0.9,0.1,1.6,0.4,2.1c0.3,0.6,0.7,1,1.2,1.3
		c0.5,0.2,1.1,0.4,1.7,0.5c0.6,0.1,1.4,0.1,2.4,0.1c1.4,0,2.5-0.1,3.2-0.2c0.8-0.1,1.5-0.5,1.9-1.1c0.5-0.6,0.7-1.5,0.7-2.6V1.1
		h-2.4V9.5z"/>
	<path class="st0" d="M85.5,7.5c-0.4-0.5-0.9-0.9-1.6-1.1c-0.6-0.2-1.5-0.3-2.6-0.4c-1.2-0.1-2.1-0.1-2.7-0.3
		c-0.6-0.1-0.9-0.3-1-0.4c-0.1-0.2-0.2-0.5-0.2-0.9c0-0.4,0.1-0.7,0.2-0.9c0.1-0.2,0.4-0.3,0.8-0.4c0.5-0.1,1.2-0.2,2.2-0.2
		c0.7,0,1.3,0,1.7,0.1c0.4,0.1,0.6,0.2,0.8,0.3c0.2,0.1,0.2,0.2,0.3,0.4c0.1,0.2,0.1,0.5,0.1,0.9v0.5h2.5l-0.1-0.7
		c0-0.9-0.2-1.7-0.7-2.2c-0.4-0.5-1-0.9-1.8-1.1C82.6,1.1,81.6,1,80.5,1c-0.9,0-1.7,0.1-2.4,0.2c-0.7,0.1-1.3,0.3-1.7,0.6
		c-0.5,0.3-0.8,0.7-1.1,1.2C75.1,3.4,75,4,75,4.7c0,0.7,0.1,1.3,0.4,1.8c0.3,0.5,0.7,0.9,1.2,1.1c0.5,0.2,1,0.4,1.7,0.5
		c0.6,0.1,1.4,0.2,2.3,0.2c1,0,1.7,0.1,2.2,0.2c0.4,0.1,0.6,0.2,0.7,0.4c0.1,0.1,0.2,0.4,0.2,0.9c0,0.4,0,0.7-0.1,0.9
		c0,0.1-0.1,0.3-0.3,0.4c-0.1,0.1-0.4,0.2-0.9,0.3c-0.5,0.1-1.1,0.1-1.8,0.1c-0.9,0-1.5,0-2-0.1c-0.5-0.1-0.7-0.2-0.8-0.2
		c-0.1-0.1-0.2-0.2-0.3-0.4c-0.1-0.3-0.1-0.7-0.1-1.2V8.9h-2.4v1c0,1,0.2,1.8,0.7,2.4c0.5,0.5,1.1,0.8,1.9,1c0.7,0.1,1.7,0.2,3,0.2
		c1,0,1.8-0.1,2.5-0.2c0.7-0.1,1.3-0.3,1.7-0.6c0.5-0.3,0.8-0.7,1-1.2C85.9,11,86,10.4,86,9.7C86,8.8,85.8,8.1,85.5,7.5z"/>
</g>
<g>
	<path class="st0" d="M1.7,25.3c0-2.5,1.5-3.7,4.6-3.7c1,0,2,0.1,3,0.2v-1.1c0-1.4-1-2.1-3.1-2.1c-1.2,0-2.4,0.2-3.6,0.6v-1.7
		c1.2-0.4,2.4-0.6,3.6-0.6c3.4,0,5.1,1.2,5.1,3.7v8.3h-1.1l-0.7-1.2c-1.1,0.8-2.4,1.2-3.7,1.2C3.1,28.9,1.7,27.7,1.7,25.3z
		 M6.4,23.3c-1.7,0-2.6,0.7-2.6,2c0,1.3,0.7,2,2.1,2c1.4,0,2.6-0.4,3.5-1.2v-2.5C8.3,23.4,7.3,23.3,6.4,23.3z"/>
	<path class="st0" d="M22,28.6c-0.9,0.2-1.9,0.3-3,0.3c-4,0-6.1-2.1-6.1-6.3c0-3.9,2-5.8,6.1-5.8c1.1,0,2.1,0.1,3,0.3v1.7
		c-0.9-0.2-2-0.3-3.1-0.3c-2.6,0-4,1.4-4,4.1c0,3,1.3,4.5,4,4.5c1.2,0,2.2-0.1,3.1-0.3V28.6z"/>
	<path class="st0" d="M22.9,25.3c0-2.5,1.5-3.7,4.6-3.7c1,0,2,0.1,3,0.2v-1.1c0-1.4-1-2.1-3.1-2.1c-1.2,0-2.4,0.2-3.6,0.6v-1.7
		c1.2-0.4,2.4-0.6,3.6-0.6c3.4,0,5.1,1.2,5.1,3.7v8.3h-1.1l-0.7-1.2c-1.1,0.8-2.4,1.2-3.7,1.2C24.3,28.9,22.9,27.7,22.9,25.3z
		 M27.5,23.3c-1.7,0-2.6,0.7-2.6,2c0,1.3,0.7,2,2.1,2c1.4,0,2.6-0.4,3.5-1.2v-2.5C29.5,23.4,28.5,23.3,27.5,23.3z"/>
	<path class="st0" d="M44.3,28.2c-1.4,0.5-3.1,0.7-5.1,0.7c-3.4,0-5.1-2.1-5.1-6.3c0-3.9,1.8-5.8,5.4-5.8c1,0,1.9,0.2,2.8,0.6v-4.9
		h2V28.2z M42.3,19.3c-0.8-0.4-1.7-0.6-2.8-0.6c-2.3,0-3.4,1.3-3.4,3.9c0,3.1,1.1,4.6,3.4,4.6c1,0,2-0.1,2.8-0.4V19.3z"/>
	<path class="st0" d="M51.1,16.9c3.2,0,4.9,1.7,4.9,5.1c0,0.5,0,1-0.1,1.5h-8c0,2.5,1.4,3.7,4.1,3.7c1.3,0,2.4-0.2,3.4-0.5v1.7
		c-1,0.3-2.2,0.5-3.7,0.5c-3.9,0-5.9-2.1-5.9-6.2C45.9,18.8,47.6,16.9,51.1,16.9z M47.9,21.7H54c0-2.1-1-3.2-2.9-3.2
		C49.1,18.6,48,19.6,47.9,21.7z"/>
	<path class="st0" d="M57.5,28.9V16.9h1.4l0.3,1.5c1.1-1,2.3-1.5,3.6-1.5c1.6,0,2.8,0.6,3.4,1.7c1.2-1.1,2.5-1.7,3.8-1.7
		c2.6,0,3.9,1.5,3.9,4.6v7.5h-2v-7.6c0-1.8-0.7-2.7-2.1-2.7c-1.1,0-2.1,0.5-3,1.6v8.7h-2v-7.6c0-1.8-0.7-2.7-2.1-2.7
		c-1.1,0-2.1,0.5-3,1.6v8.7H57.5z"/>
	<path class="st0" d="M74.6,16.9h2.2l3.2,9.4l3.3-9.4h2.1l-4.7,12.4c-0.8,2.2-2.1,3.6-3.8,4.1l-0.8-1.5c1.3-0.6,2.2-1.5,2.8-2.9
		L74.6,16.9z"/>
</g>
<g>
	<path class="st0" d="M117.6,11.3c-0.9-1.1-1.5-2.1-2.4-2.9c-1-0.9-2.2-2-3.4-2.6c-3.3-1.7-7.9-1.9-11.5-1.2
		c-1.1,0.2-2.1,0.5-3.1,0.9c-0.3,0.1-0.6,0.2-0.8,0.4c-1.2,0.7-2.5,1.6-3.2,2.9c-0.2,0.5-0.5,1-0.7,1.5c-0.1,0.1-0.1,0.3-0.1,0.4
		c0,0.1-0.1,0.5-0.1,0.5c0.5-0.6,0.8-0.8,1-0.9c2.2-2.4,4.9-3.8,7.9-4.3c2.6-0.4,5.4-0.3,8.1,0.5c0.7,0.2,1.5,0.7,2.2,1.1
		c0.4,0.2,0.9,0.4,1.1,0.7c0.5,0.5-0.2,0.7-0.4,0.6c-0.3-0.1-1.3-0.5-2.5-0.9c-1.3-0.4-2.5-0.8-3.9-0.8c-1.8,0-3.6,0.1-5.3,0.6
		c-2.2,0.7-4.2,1.8-5.9,3.4c-1,0.9-2.1,2.1-2.4,3.5c-0.2,1.2-0.4,2.7-0.1,3.8c0.1,0.6,0.3,1.2,0.5,1.7c0.1,0.3,0.2,0.5,0.3,0.8
		c0.1,0.2,0.1,0.4,0.3,0.5c0,0,0.1-0.4,0.1-0.4c0-0.1,0-0.3,0-0.4c0-0.3,0-0.6,0-0.9c0-1.9,0.4-3.4,1.4-5.1c0.5-0.8,1.1-1.6,1.8-2.3
		c2.6-2.3,6.3-3.6,9.9-3.3c2.8,0.2,5.5,1.1,7.9,2.6c3.6,2.2,5,5.6,5.2,9.4c0.4-0.4,0.7-1.2,0.7-1.9c0.2-1.5,0.2-2.9-0.3-4.3
		C119.2,13.5,118.5,12.4,117.6,11.3z"/>
	<path class="st0" d="M106.1,0.9c-3.7,0-7,1.4-9.5,3.6c1.1-0.5,2-0.9,3.3-1.2c3.9-0.8,6.9-1,9.5-0.3c1.9,0.5,3.7,1.5,5.1,2.5
		c0.9,0.7,1.5,1.2,2.3,2c0.5,0.5,0.9,1.3,1.4,1.9c0.9,1.2,1.1,1.8,1.5,2.3c0.2,0.3,0.4,0.5,0.6,0.8C119,5.9,113.2,0.9,106.1,0.9z"/>
	<path class="st0" d="M117.3,23.9c0.3-0.8,0.6-1.8,0.5-2.7c-0.1-0.7-0.1-1.5-0.3-2.3c-0.1-0.6-0.3-1.1-0.6-1.7
		c-0.4-0.9-1-1.6-1.6-2.5c-0.7-1-2.4-2.4-3.4-2.9c-2.7-1.2-5.9-1.8-8.8-1.2c-1.8,0.4-3.5,1.1-5,2.2c-1.3,1.1-2.2,2.3-2.7,3.7
		c-0.5,1.1-0.7,2.4-0.8,3.6c-0.1,0.7-0.1,1-0.1,1.7c0,0.4,0.1,1.1,0.3,1.5c0.3,1,1,2,1.8,2.7c0.1,0.1,0.2,0.2,0.4,0.3
		c0.1,0.1,0.2,0.1,0.3,0.2c-0.1-0.1-0.1-0.2-0.1-0.3c-0.2-0.7-0.2-1.4-0.4-2.1c-0.1-0.7-0.1-1.5-0.1-2.2c0.1-1,0.1-1.9,0.3-2.9
		c0.2-0.9,0.5-1.8,0.9-2.6c0.2-0.5,0.5-0.9,0.8-1.3c1.5-2.1,4-2.9,6.7-3.1c1.2-0.1,2.5,0,3.8,0.4c0.8,0.3,1.9,0.7,2.6,1.1
		c0.9,0.6,1.7,1.4,2.3,2.2c0.8,1,2.6,4.7,1.5,8.2c-0.3,0.8-0.6,1.5-1.1,2.1c-0.6,0.6-1.3,1.2-2,1.6c-0.4,0.2-0.9,0.4-1.3,0.5
		c-0.6,0.2-1.3,0.2-1.9,0.1c-1.9-0.4-3.7-2.4-4.5-4.1c-0.9-2.1-0.5-4.8,1-6.4c0.2-0.3,0.6-0.5,0.4-0.9c-0.3-0.4-1.1-0.6-1.5-0.3
		c-0.7,0.4-1.4,1.6-1.8,2.4c-0.3,0.7-0.5,1.6-0.5,2.4c0,0.8,0.2,1.6,0.4,2.4c0.4,1.5,1.3,2.9,2.1,4.2c0.5,0.7,1.1,1.5,2.1,1.6
		c0.3,0,0.5,0,0.8,0c0.6-0.1,1.3-0.2,1.9-0.3c0.3-0.1,0.7-0.2,1-0.3c1.2-0.4,2.3-0.9,3.3-1.6c0.6-0.4,1.1-0.8,1.6-1.2
		c0.7-0.6,1.3-1.3,1.7-2.1C117.2,24,117.3,24,117.3,23.9z"/>
	<path class="st0" d="M100.6,23.6c-0.3-1.5-0.1-3.2,0.4-4.6c0.5-1.1,1.5-2.3,2.4-3.1c0.9-0.8,1.6-0.9,2.7-0.9c1,0,2.3,0,3.2,0.5
		c1,0.5,1.8,1.1,2.3,2c0.5,0.9,1.2,2.1,1.3,3.1c0.1,1.1-0.1,2.1-0.5,3.1c-0.4,1-1.5,1.3-2.7,1c-0.8-0.2-1.8-0.6-2-1.4
		c-0.3-1.1-0.7-2.8,0.1-3.5c0.7-0.5,1.3-0.1,1.5,0.7c0.1,0.4-0.2,0.6-0.2,0.9c-0.2,0.8,0.6,1,1.1,1.1c0.6,0.1,1,0.3,1.2-0.2
		c0.5-1.3,0-3.3-1.3-4.6c-0.5-0.5-1.1-0.8-1.8-0.6c-0.8,0.1-1.3,0.7-1.7,1.2c-1,1.5-1.1,3.8-0.4,5.5c0.6,1.4,1.8,2.7,3.3,3
		c1.2,0.3,2.4-0.1,3.5-0.9c0.6-0.5,1.2-1.4,1.5-2.3c1-3-1-6.6-1.7-7.5c-1.2-1.5-2.8-2.2-4.6-2.6c-0.7-0.1-1.8-0.2-2.5-0.2
		c-1.8,0.1-4,0.9-5.1,2.5c-0.4,0.6-0.7,1.3-1,1.9c-1.1,2-1.4,4.5-1.1,6.3c0.2,1,0.5,1.4,0.9,2.3c0.1,0.3,0.6,1,0.8,1.3
		c0.4,0.4,0.6,0.6,1.1,1c0.5,0.3,1,0.4,1.6,0.6c0.5,0.1,1,0.3,1.5,0.3c0.1,0,0.2,0,0.3,0c-0.1-0.2-0.3-0.3-0.4-0.4
		c-0.1-0.1-0.3-0.3-0.4-0.4c-0.3-0.3-0.5-0.6-0.8-0.9c-0.1-0.2-0.5-0.5-0.6-0.7c-0.4-0.5-0.5-0.8-0.8-1.3c-0.2-0.3-0.4-0.6-0.6-1
		C100.9,24.5,100.7,24.1,100.6,23.6z"/>
</g>
</svg>
